<svg version="1" xmlns="http://www.w3.org/2000/svg" width="682.667" height="682.667" viewBox="0 0 512.000000 512.000000"><path d="M230.6 53.4c-4.4 2.9-8.6 4.7-12.6 5.5-10.9 2.2-39.3 12.1-48.5 17-8.5 4.5-21.8 13.5-38.3 25.9-4.1 3.1-10.8 9.4-15 14.1-9.8 10.8-16.3 17.3-23.6 23.5-4.9 4.2-5.7 4.6-5.1 2.5.5-1.3.9-4.2 1-6.4.1-4 2.2-9 5.6-13.4 3.5-4.4 1.3-5.7-3.4-2.1-3.3 2.6-3.5 2.5-2.9-.8.6-3.3 3.9-7.2 6.3-7.2 2 0 8.6-7 10-10.8.6-1.5.7-5.8.3-10.4-.5-5.7-.3-8.2.6-9.3.7-.9 1-1.8.7-2.1-.8-.8-4.7 5.6-4.7 7.6 0 1.5-4 6-7.4 8.4-2.1 1.4-2.6 6.5-1.2 11.6.6 1.9.2 2.8-1.4 3.8-2 1.2-2.5 1.1-4.7-1-2.1-1.9-2.4-2.9-1.9-6.3l.6-4-2 2.4c-1.2 1.4-2 3.8-2 6.1 0 2-.6 5.7-1.4 8.2-1.1 3.8-1.1 4.9.1 7.2 1.3 2.5 1.3 2.7-.4 2.4-1.6-.3-1.8.5-1.5 8.4.2 7.2 0 8.7-1.1 8.2-2.2-.8-5.5-8.6-3.9-9.2 1.6-.5 1.5-2.2-.2-2.2-1 0-1.2-1.1-.9-4.3.5-4.3-2.2-13.2-5.2-17.1-1.9-2.5-2.3-2-3.7 4.6-1.1 5.1-1 5.7 1 8.3 3.1 3.9 2.8 4.5-2.3 4.5s-12.1 2.5-12.9 4.5c-.6 1.8 4.3 5.8 6.4 5.2.8-.3 2.2-.8 3.2-1.2 2.1-.8 3.6 4.8 1.8 7-.7.8-1 2.4-.7 3.5.6 2.5.8 2.5-4.4-.5-2.4-1.4-5.4-2.5-6.5-2.5-1.2 0-2.9-1-3.7-2.3-1.1-1.6-1.6-1.8-1.6-.7-.1.9.6 2.6 1.5 3.8 1.4 2.1 1.4 2.2-.5 2.2-2.2 0-2.8 2.4-1.3 4.8 1.1 1.6 7.7 5.2 9.6 5.2.8 0 1.7.7 2 1.6.4.9.9 1.4 1.3 1 1.1-1.1 4.3 2.6 4.3 5.1 0 2.6-1.2 3-3.3.9-1.5-1.5-6.6-1.2-10 .5-1.6.9-1.6 1.2.3 4.9 2.3 4.4 7.3 7.5 10 6 1.1-.6 2.1-.5 2.7.1.6.6 3.5 2.3 6.4 3.7 6.7 3.3 7.1 5.2 3.5 16-2.7 8.3-6.6 24-6.6 26.6 0 .9-.8 4.2-1.9 7.4-1 3.1-2.6 8.7-3.6 12.4-2.1 8.3-3.9 9-3 1.3.4-3 .4-5.5.1-5.5-1.2 0-5.6 11.1-6.3 15.6-.3 2.4-.8 4.4-1.2 4.4-.3 0-1.8-1.3-3.4-2.9-2.9-3.1-3.5-7.1-1.4-9.3.6-.8 1.7-2.3 2.3-3.3.6-1.1 2.8-2.9 5-4 4.2-2.2 6.1-5.7 2.5-4.8-2.4.6-2.5.3-.9-3.2.6-1.4 1.9-2.5 2.8-2.5 2.3 0 3.8-1.9 3.3-4.1-.7-2.4-1.7-2.4-3.4-.2-1.3 1.6-1.2 1.7.4.4 1.5-1.2 1.7-1.1 1.7.4 0 2.7-3.4 1.3-3.9-1.5-.3-2.4-1.7-4-3.5-4-.5 0-.1 1 1 2.2 1.5 1.7 1.6 2 .3 1.6-1.4-.5-1.6 0-1.2 3.6.4 3.3-.1 5.4-2.3 9.7l-2.8 5.4-.7-3.5c-.4-2-1.9-4.4-3.6-5.7-3.8-3.1-4.6-2.9-2.7.8 1.2 2.5 1.8 2.9 2.5 1.8.5-.8.9-.9.9-.3 0 2.3-1.4 2.3-3.7.2l-2.4-2.3 1 2.8c1.8 4.7 3.2 6.8 4 6.3.8-.5.4 9.4-.4 10.2-.8.8-4.5-2.5-6.1-5.4-2.4-4.3-1.5-15.2 1.5-19 1.5-2 2.1-4.1 2.1-8 0-3-.4-5.4-.8-5.4-1.6 0-4.2 3.6-4.2 5.9 0 1.2-.7 3.7-1.5 5.7-1.5 3.6-1.5 3.7-1.5 5.6 0 .6-1 .3-2.3-.8-2-1.9-9.7-4.8-9.7-3.7 0 1.2 2.6 5.1 5.4 8.2 2.1 2.3 2.7 3.5 1.8 3.8-1 .4-1 1.1.3 3.1.9 1.5-.1.8-2.2-1.6-2.1-2.3-4.3-4.2-4.9-4.2-.6 0-2.7-1.6-4.7-3.5S7.9 229 7.5 229c-.3 0-.5 1.5-.5 3.4 0 5.6 6 12 12.2 13.1 4.5.8 5.8 2.4 3.2 3.8-3.1 1.7-7.4 6.8-7.4 8.7 0 1.5.6 1.7 4.3 1.3 2.3-.4 5.8-1.7 7.7-3 5.3-3.5 7.1-3 13.9 3.8 6.3 6.2 8 9.4 3.6 6.5-1.3-.9-3.5-1.6-4.8-1.6-1.4 0-3-.6-3.6-1.4-1.9-2.2-7.1-2.8-9.8-1.1-3.1 2.1-2.9 3.7.8 6.4 3 2.3 3.3 2.3 5.9.7 4.1-2.4 10.2-2.1 12.7.7 1.8 1.9 3.4 6.5 3.7 10.2.3 3.5 8.6 14.7 8.6 11.6 0-.9.5-.9 2-.1 1.1.6 2 1.7 2 2.5 0 .9.4 2.3.9 3.3 1.4 2.8 6.9 26.2 5.9 25.6-.4-.3-.8-1.2-.8-1.9 0-.8-.6-1.2-1.4-.9-.9.4-2-.5-2.9-2.3-.9-1.5-3.1-4.4-5.1-6.2-2-1.9-3.6-4.1-3.6-4.9 0-.7-.5-1-1-.7-.5.3-1 2-1 3.6 0 1.8-.5 2.9-1.1 2.7-.6-.2-1-.6-1-.8.1-.3-.5-2.8-1.3-5.5-.9-2.8-1.4-6.9-1.3-9.3.1-4.3-1.1-6.2-4.2-6.2-.9 0-1.1.7-.6 2.3 1.5 4.8 1.7 6.7.8 6.7-1.5 0-4.3-6.8-4.3-10.6 0-4-1.6-7.7-3.1-6.9-.5.4-.9 1.7-.9 3 0 2.2-.3 2.3-3.6 1.8-3.4-.6-3.5-.5-3 2.3.2 1.6.5 3.2.5 3.6.1.3 1.3 2.1 2.8 3.9l2.7 3.2-2.5-.8c-1.8-.5-1.5 0 1.3 1.9 2.1 1.5 3.8 2.9 3.8 3.1 0 .2-1.5.1-3.4-.2-2.9-.4-4 0-6.6 2.4l-3.2 3 2.7 3.1c3.2 3.9 6 4 9.9.7 2.9-2.5 3-2.5 4.9-.6 2 2 1.6 4.1-.9 4.1-1.9 0-1.8 1.6.1 2.4.8.3 1.5 1.1 1.4 1.8 0 .8-.2.9-.5.2-.5-1.3-7.4 1.4-7.4 2.8 0 1.7 3.1 2 4.9.4 1-.9 2.3-1.6 2.9-1.6.6 0 2.6-.9 4.6-2.1 2.8-1.6 4-1.8 6.8-1 1.8.5 2.6 1 1.7 1-1.9.1-5.1 3.5-7.3 7.8-1.7 3.4-.7 5.3 1.5 2.7 1.8-2.2 5.4-3.5 12.2-4.3l5.9-.8 3.3 4.1c3.9 4.9 6.5 10 10 19.3 1.4 3.7 3.6 7.7 4.9 8.8 2.5 2.2 5.2 8.5 3.5 8.5-.5 0-2.7-1.1-4.9-2.5-3.4-2.1-4-3.1-4-5.9 0-2-.6-3.6-1.4-3.9-3.2-1.3-3.5 2.8-.5 6.7 1.1 1.4 1.7 3.1 1.3 3.7-.9 1.5-5.3-4-5.4-6.8 0-1.8-.8-2.3-4.2-3-3.5-.7-4.4-1.3-4.6-3.3-.3-2.1-.2-2.2 1.2-1.1 2.6 2.2 2-.8-.7-3.3-1.2-1.2-3.7-3.9-5.4-6.1-2.7-3.3-3.4-3.8-4.3-2.5-1.1 1.6-.9 5.1.5 8.5.8 1.8.7 1.8-.8.6-1-.8-2.7-1.1-4.2-.7-2.7.7-6.5 3.9-6.5 5.5 0 1.2 5.6 3.1 9 3.1 3.2 0 5.8 2.4 3.9 3.6-.8.4-.9.3-.5-.4s.2-1.2-.3-1.2c-.6 0-1.1.7-1.1 1.5s-1.6 2.1-3.6 3c-4.5 1.9-4.4 4.9.3 5.3 2.5.3 3.5-.2 4.9-2.3 1-1.5 2.9-3.1 4.2-3.6 2.1-.8 3-.3 7.3 3.9l4.9 4.9-3.7 2.5c-2.1 1.4-5 3.2-6.5 4.2-2.1 1.2-2.8 2.4-2.8 4.9 0 5.6 1.3 6.2 5.4 2.5 2.1-1.9 5.8-3.8 8.8-4.5 2.9-.8 5.9-2 6.8-2.8 2.3-2.1 8.3-1.9 13.4.5 6.4 2.9 16.9 16 12.8 16-1.4 0-8.2-5.1-8.2-6.1 0-.6 1.5-.1 3.4 1 5.3 3.3 5.4 2.4.1-1.3-2.7-1.9-5.2-3.3-5.7-3-1.2.8 1.9 6.2 4.3 7.5 2 1 2 1.1.2 2.9-1.5 1.5-2.2 1.6-4.3.5-1.4-.6-4.6-2.2-7.1-3.4-6.3-3.1-11.9-2.2-11.9 1.8 0 3.1 4.5 7.1 8 7.1 1.1 0 2 .4 2 1 0 .5-.6 1-1.3 1-1.8 0-5.7 4.2-5.7 6.2s3.8 6.8 5.4 6.8c.6 0 3-2.8 5.3-6.3 2.2-3.4 5.1-7.1 6.4-8.2l2.3-2-1.5 2.5c-.9 1.4-2.4 4.9-3.4 7.8-1.7 4.5-1.7 5.4-.5 6.2 2.1 1.3 2.8.4 4.5-5.4 1.4-4.9 1.9-5.5 4.9-6 2.6-.5 3.6-1.4 4.7-4.1l1.4-3.4 3.5 2 3.5 1.9-3-.5c-2.6-.4-2.5-.3.6.8 2 .6 7.2 4.4 11.5 8.3 6.6 5.8 40.3 29.4 42.1 29.4.3 0-.1-.8-.8-1.8-1.3-1.5-1.2-1.6.3-.3 1 .7 1.6 1.7 1.3 2.1-.6.9 15 10.8 22.1 14.1 15.5 7 28.8 9.8 37.2 7.7 2.8-.6 11.8-1 22.7-.9 15 .2 19.4-.1 26.5-1.8 4.7-1.1 14.5-2.4 21.8-3 18.4-1.5 26.9-3.8 32.2-8.6 1.4-1.3 5.2-3.1 8.5-4 12-3.4 35.6-18 46.2-28.5 4-4 9.5-8.9 12.2-10.9 5.8-4.3 11.8-11.3 13.7-15.8.8-1.8 2.7-4.7 4.2-6.5 3.9-4.5 12.4-16.6 17-24.2 5.6-9.3 8.2-13.9 8.8-15.9.3-1.2 1.6-3.6 2.8-5.2 5.4-7.3 12.4-20.4 13.6-25.2.8-3.4 1-9.4.6-17-.3-7.2-.1-13.2.6-15.5.8-2.7.7-6.8-.1-15.5-2.2-20.9-2.5-27.5-1.2-28.2.9-.6.9-1.5.1-3.5-1.2-3.3-1.3-15.5-.1-17.4.6-1 1.5-.8 3.8 1.2 1.7 1.4 3.3 2.6 3.6 2.6.3 0 1.8.5 3.4 1.2 1.5.6 5.3 1.2 8.3 1.3 3.2.1 7 .9 9 2 3.1 1.7 6.7 2.1 7.9.9.2-.2-.4-1.5-1.3-2.9-1-1.6-2.6-2.5-4.2-2.5-3 0-2.3-1.7 1.3-3.1 2.1-.8 2.3-1.2 1.3-2.4-1.4-1.7-8.5-2.1-9.5-.5-.8 1.4-5.2 1.3-6.1-.1-.4-.8 0-.9 1.5-.4 1.6.5 2.3.1 3-1.7.5-1.4.5-2.8-.1-3.5-1.5-1.9-5.2-1.1-5.8 1.2-.7 2.3-3 3-6.8 2l-2.7-.7 3-1.5c1.7-.9 4-2.5 5.3-3.7 1.3-1.1 4.2-3 6.5-4.1 6.4-3.1 5.9-4.5-1.5-4.2-4.2.2-7.3.9-9.3 2.2-3 2-3 2-1.6 0 3.2-4.4 6.5-7.4 7.3-6.9.5.3 1.7-.1 2.6-.9.9-.8 3.4-2.2 5.5-3 2.2-1 3.7-2.3 3.7-3.3 0-.9 1.6-3.8 3.5-6.4 3.2-4.4 4.5-8 2.8-8-.3 0-3.7 2.7-7.4 6s-6.9 6-7.2 6c-.3 0-.7-.9-1-2-.7-2.7-2.7-2.5-2.7.2v2.2l-1.6-2.2c-.8-1.2-2.2-2.2-3.1-2.2-1.3 0-1.4 1.1-.8 7.5.5 5.4.3 8-.5 9-1.8 2.2-3 1.8-3-.8 0-1.2-.9-3.7-2-5.5-3.5-5.7-5-3.8-5 6.6 0 6-1.2 10.5-2.3 9.2-.4-.5-4.4-11-5.4-14.4-.5-1.5-.2-1.8 1-1.3 1 .4 1.7.2 1.7-.3 0-.6-.5-1-1.1-1-2.1 0 3.5-8.1 6.1-8.7 1.4-.3 3.4-1.4 4.5-2.3 8.3-7.4 9.5-8.9 9.5-11.9 0-2.4-.4-3.1-1.9-3.1-1 0-2.4.7-3.1 1.5-.9 1.1-2.2 1.4-4 1-2.5-.5-3-.1-5.3 4-1.4 2.5-2.2 4.3-1.6 4 1.5-1 1 2.4-.7 5-2.8 4.3-3.7 3-3.1-4.1.6-5.9 1.1-7.1 4.7-11 2.2-2.4 4-4.8 4-5.2 0-.5-.9-2.1-2-3.5-2.8-3.5-2.5-4 1.8-3.3 3.6.5 4 .3 7.6-4 3.9-4.6 4.3-8.3.8-6.9-3.7 1.6-6.4 1.7-7.3.4-.6-1.1-1.1-1.1-2.1-.1-.6.6-2 1.2-3 1.2-1.7 0-1.7-.2.2-4 1.1-2.1 2-5 2-6.4 0-1.3.7-2.6 1.5-3 2-.7 2-4.6 0-4.6-.9 0-3.3-.9-5.4-2-2.7-1.3-4.9-1.7-7.5-1.3l-3.6.6.6-7.4c.4-4.1 1.1-8.2 1.5-9.1 1.4-2.7 1.1-3.1-1.8-2.3-3.7.9-5.3 2.3-5.3 4.8 0 1.1-.3 1.7-.7 1.4-.3-.4-.6-2.1-.5-3.9l.1-3.3-2.4 2.7c-1.8 2.1-2.4 4-2.4 8-.1 2.9-.3 6.6-.5 8.3-.2 1.6-.4 4.3-.5 6-.2 2.8-.3 2.7-1.7-1.5-1.6-5.1-1.8-13.1-.5-17.6.9-3.2-.7-17.4-2-17.4-.9 0-4.1 8.7-5 13.5-.6 3.3-.3 4.4 1.7 6.8 2.5 3 3 4.7 1.5 4.7-.5 0-1.3-.9-1.6-2-.4-1.1-2.4-2.9-4.6-4.1-2.2-1.1-4.2-2.6-4.6-3.4-.3-.8-1.4-1.5-2.5-1.5-1.8 0-2 .4-1.4 4 1.3 8.2 3 9.7 9.8 9.2.9-.1 2.2.5 2.8 1.3 1 1.3.8 1.5-1.3 1.5-3.8 0-4 1.3-.7 5.5 1.7 2.1 2.8 4.1 2.4 4.4-.3.3-.9-.1-1.4-.9-1.7-3.1-8.2-9-9.8-9-2.4 0-4.2 1.9-4.2 4.5-.1 2-.1 2-1.5 0-4-5.4-12.2-13.8-14.9-15.2-1.6-.8-5-3.6-7.5-6.2C377 87.9 367 81 361.6 81c-1.7 0-3.6-1.4-6.1-4.5-2.1-2.5-5.2-5.4-6.9-6.4-3.7-2.3-31-9.1-36.6-9.1-2 0-5-.4-6.6-1-1.6-.5-9.4-1.6-17.4-2.5-8-.8-16.1-1.9-18-2.5-6.3-1.8-27-6-29.9-6-1.6 0-5.5 1.8-9.5 4.4zm27.7 0c3.9 1.2 3.1 1.3-9.6 1.2-7.5 0-13.7.2-13.7.5 0 .4-1.1.9-2.5 1.1-3.8.8-3-.7 1.8-3.2 3.6-1.8 5.2-2 12-1.5 4.3.4 9.7 1.2 12 1.9zm-6.6 4.2c-.3.3-1.2.4-1.9.1-.8-.3-.5-.6.6-.6 1.1-.1 1.7.2 1.3.5zM266 59c0 .6-3 1-6.7 1.1-5.9.1-6.4.2-3.3 1 1.9.4 6 .8 9 .7 3.6-.1 8.1.8 13.1 2.6 8.5 2.9 15.3 3.3 20.6 1.1 1.9-.8 4.3-1.5 5.2-1.5.9 0 5.9 2.3 11.1 5.1 10.6 5.6 19.6 8.9 31.4 11.3 9.8 2.1 10.9 2.7 17.1 9 3 3.1 7.5 6.4 11 8 3.3 1.6 7.5 3.5 9.3 4.3 6.7 3.2 12.8 9.9 17.8 19.8 2.7 5.2 4.5 9.7 4.1 10.1-.4.4-2.8-.8-5.4-2.6-3.1-2.3-4.4-2.8-4-1.7.8 2-1.2 2.3-3.4.4-.9-.6-3.1-3.8-5-7-1.9-3.3-4.2-6.3-5.2-6.8-.9-.6-2.8-2.7-4.2-4.9-1.3-2.1-3.5-4.1-4.7-4.5-4.7-1.3-6.9-3-9.3-7.1-2.4-4-2.7-4.2-6-3.7-2.1.3-4.1.1-5-.7-3.1-2.6-1.5 1.4 2.1 5.4l3.6 3.9-2.9 2.7c-4.7 4.5-9.3 9.9-9.3 10.9 0 .6 1.6 1.3 3.5 1.7 3.7.7 7.5-1.4 7.5-4.2 0-.7 1.9-3 4.1-5.2 3.8-3.6 4.5-3.9 7.8-3.1 2.4.5 4.9 2.3 7.8 5.6 2.3 2.6 4.2 5.2 4.3 5.6 0 1.1-10.2-.2-11.5-1.4-1.4-1.3-2.5-1.1-2.5.6 0 .8 1.7 1.9 4.1 2.6 2.6.8 5.1 2.6 7 5.1l3.1 3.8h-6.5c-5.1 0-6.7.4-8.2 2-1 1.1-2.7 2-3.8 2-3.4 0 .1 3 3.7 3.1 1.7.1 6 .2 9.6.4 3.6.2 7.5.4 8.8.4 3.5.1 1.7 1.8-2.5 2.4-2.1.3-6 1.1-8.8 1.7-2.7.7-6.8 1.5-9 1.9-5.1.8-5.6 3.1-1.6 7.1 2.7 2.7 3.2 2.9 5.8 1.8 1.5-.6 4-2.5 5.5-4.2 1.5-1.7 2.8-2.5 2.8-1.8s.5 1 1.1.6c1.8-1.1 2.9 1.7 2.9 7.8 0 3.2.4 5.8.9 5.8s1.5-3 2.2-6.7c2.1-10.7 8.4-18.2 6.8-8.2-.9 5.4.8 11.9 3 11.9 1.5 0 1.4-1.3-.1-2.9-1.1-1.1-1-1.4 0-1.8 3.1-1.2 5-4.5 4.5-7.9-.6-3.8-.3-4 7-4.7 4.6-.4 4.9-.3 7.2 3.2 1.4 1.9 2.5 4.6 2.5 5.9 0 2-.4 2.2-2.2 1.6-1.3-.3-3-1.3-3.9-2-2.2-2-2.9-1.7-2.9 1.1 0 3.1 3.6 8.9 6.4 10.1 1.1.5 2.2 1.5 2.4 2.3.3 1-.7.7-3.2-.9-3.2-1.9-4.6-2.2-9.2-1.6-3 .3-5.4.2-5.4-.3 0-1.3-6.2-2.3-7.4-1.1-.6.6-.2 1.8 1.2 3.3 1.2 1.3 2.2 2.8 2.2 3.4 0 1.6 2.5 2.3 8.3 2.3 3 0 5.7-.6 6.7-1.5 1.8-1.6 6-1 6 1 0 .7-.7 1.8-1.6 2.5-.8.8-2.1 2.8-2.9 4.6-1.5 3.5-4.3 4.8-13.5 5.9-3 .3-5.9 1-6.5 1.4-1.1.9-8.7 2.9-12.4 3.3-3.1.4-4.9 4.6-2.3 5.4.9.3 3 1.2 4.5 2 4 2 8.1 1.8 10.2-.6 1-1.1 2.6-2 3.6-2s2.1-.5 2.5-1.2c.5-.8 0-.9-1.4-.6-2.4.7-3.3-1.9-.9-2.6 5.3-1.7 6.7-1.6 6.7.4 0 3.9 3.1 10 5.1 10 1.5 0 1.8-.5 1.3-2.4-.3-1.5.4-4.2 2.2-7.7 1.5-3 2.7-7 2.8-8.9.1-3.3.3-3.5 3.6-3.6 5.5-.1 6-.3 6-2 0-1.1.6-1.4 2.3-.9 4.1 1.3 3.8 2.2-1.7 7.3-3.7 3.3-5.1 5.2-4.2 5.5.8.3 1.2 1.5.9 3-.5 2.6 1.8 5.7 4.3 5.7 1 0 1.3-.6.9-1.9-.4-1.3.4-2.5 2.5-4.2 1.7-1.3 4.2-4.3 5.6-6.7 1.4-2.3 2.9-4.2 3.4-4.2 1.5 0 1.2 1.1-.7 3.4-1.7 2-1.7 2 0 .7 1.1-.9 1.7-.9 1.7-.2 0 .6-1.1 1.8-2.5 2.7-2.8 1.9-4.4 7.9-2.6 9.7 1 .9 1.6.7 2.7-.7 1.4-1.9 1.4-1.9 1.4.2s1.2 2.7 5.1 2.3c1.9-.2 3.3 2.5 1.8 3.4-.5.4-1.7.4-2.7.1-1-.4-2.7 0-3.7.8-1.9 1.4-1.9 1.6-.3 6.7 1 2.9 1.6 5.5 1.3 5.7-.2.2-1.9-.4-3.7-1.5-2.2-1.3-3.3-2.7-3.4-4.4-.2-5.2-.5-5.9-4-7.4-2-.8-3.9-1.5-4.1-1.5-.6 0 .2 4.6 1.3 7.4 1.5 4-1.3.6-4.1-4.9-3-5.9-5.6-7-7.9-3.2-.9 1.5-.4 2.4 3.2 5.8 2.3 2.2 4.2 4.1 4.2 4.3 0 .2-2.2.6-5 1-2.9.4-5 1.2-5 1.9 0 1.3-8.4 10.3-10.2 10.9-.6.2-.8 1-.4 1.6.5.9 1.3.9 2.6.2 1-.5 2.7-1 3.8-1 1 0 2.9-1.1 4.2-2.5 1.3-1.4 3.1-2.5 4.1-2.5 1 0 2-.4 2.3-.9.3-.4 3-1.1 6-1.5 10.1-1.1 14.8 3.7 6.1 6.3-2.5.7-6.1 2.6-8.1 4.2-2 1.5-4.4 3.1-5.5 3.4-1.1.4-1.9 1.5-1.9 2.9 0 1.3-.3 3.8-.6 5.5-.6 2.7-.4 3.1 1.4 3.1 1.2 0 3.8-1.4 5.7-3.2 3.5-3 3.9-4.4 2.4-8.3-.2-.6.1-1.1.6-1.2.6-.1.9.6.7 1.5-.1 1.1.9.4 2.7-1.6 2.5-2.9 3.2-3.2 4.9-2.3 3.1 1.7 6.6 1.3 9.5-.9 3-2.4 6.3-2.6 7.1-.4 1.1 2.8.7 3.3-3.1 4-2.1.4-5 1.3-6.5 2-3.2 1.6-5.4 7.4-3.9 10.1.7 1.3.5 2.3-.6 3.5-1.2 1.3-1.4 2.8-.9 6.3.8 5.1 2.2 5.6 5.6 2.1 2.2-2.5 2.3-3.5.5-9.1-.4-1.4.3-3 2.2-5.2 2.5-2.9 3.2-3.1 6.7-2.5 3.6.7 4.1 1.1 5.6 5.7 1.9 5.5 1.8 7.5-1.2 21.5-2.1 10-2.5 24.6-.8 31 .6 2.4.7 0 .3-7.6-.6-11.4 1.1-25.9 2.8-24.8.5.3.9 9.4.9 20.2-.1 19.1-1.4 31.4-3.9 37.2-1.1 2.5-1.1.1.4-16.5.3-4 .3-4.4-.5-2-.4 1.6-1.4 8.4-2 15-1.3 14.3-4 20.9-12.9 32.5-8.2 10.5-11.5 16.3-15.2 26-1.7 4.7-4.2 9.9-5.5 11.7-2.7 3.5-3 4.8-1.1 3.7.7-.4.9-.3.4.2s-1.2.9-1.5.9c-.4.1-4.3 3.7-8.7 8.1-17.4 17.4-26.6 23.9-38.1 26.9-7 1.8-13.9 5.7-16.1 9.2-2.7 4.1-15.9 14.1-20.1 15.2-2 .5-9.3 2.5-16.2 4.5-21.6 6.1-20.3 5.9-33.2 4.6-12-1.2-21.5-.8-30 1.2-3.5.9-7.1.8-15-.1-21.4-2.6-26.7-3.9-41.7-10.3-8-3.3-15.2-6.5-15.8-7.1-.7-.5-4-2.2-7.2-3.8-3.3-1.5-7.9-4.5-10.3-6.6-6.7-6-11.4-9.4-24-17.2-13.4-8.3-15-10.5-12.9-17.5.6-2.2 1.4-6 1.7-8.3.5-5.1 2-9.3 3.3-9.3 1.7 0 11.1-8 11.1-9.5 0-1.2-3.6-3.5-5.5-3.5-.3 0-2 1.4-4 3.1l-3.5 3.1v-2.5c0-4.2-2.9-9.9-4.8-9.5-2.2.4-2.5 10.1-.4 13.9 1 1.8 1.3 3.8.8 6.4-.7 3.6-.8 3.6-2.7 1.9-1.1-1-1.9-3-1.9-4.8-.1-5.4-1.8-10.8-4-12.3-1.3-.9-2-2.3-1.8-3.6.1-1.2-.2-2.3-.7-2.5-.6-.2-1.1.3-1.2 1-1.4 10-1.1 9.8-9.6 7-6-2-8.1-1.6-7.1 1.4.5 1.6.4 1.6-.5.4-.6-.8-1.1-4.3-1.1-7.8 0-5.8.2-6.3 2.5-7.2 2.3-.9 2.5-1.4 1.9-4.5-.6-3.6 1.5-11.3 4.2-15 1.8-2.5 3-1 3.3 4.2.1.7 1.2 1.3 2.5 1.3 2.4 0 8.6-1.9 8.6-2.6 0-2.1-3.6-6.7-6.1-7.7l-3.1-1.2 2.6-2.8c4.1-4.4 5.8-8.4 4.6-10.6-.5-1.1-1-4.2-1-7s-.4-5.1-.8-5.1c-.8 0-2.8 6.1-5.2 15.7-.6 2.4-2 5.2-3.2 6.3-2.5 2.3-4.6 2.7-2.8.5.7-.9 1-1.8.7-2.2-.4-.3-1.6.5-2.7 1.9-3.6 4.7-8.8 4.3-7.6-.5.4-1.7 3-4.2 7.6-7.4 6-4.2 7-5.2 7-7.8 0-5.7-1.2-6.1-7.5-2.1-4.3 2.8-6.1 4.7-7.3 7.8-1.4 3.6-1.7 3.8-2.4 1.8-.5-1.4-.3-2.9.7-4.3.8-1.2 1.5-4 1.6-6.2.1-4.4 3.6-13.5 3.9-10 .4 4.2 3-8.3 3-14.3 0-7.7-1.4-11-3.7-9-5.5 4.5-8.9 14.8-6.3 18.8.7 1.1.8.6.4-1.8-.7-3.6 0-4.2 1.6-1.2.8 1.5.6 3.3-.6 7-1.8 5.6-3.1 7-4 4.3-.9-2.5-7.6-12.3-8.4-12.3-1.5 0-3.1 3-3.2 5.7-.1 3.6 2.4 8.9 4.1 8.5.7-.1 1 .2.6.8-.3.5.6 2.5 2 4.4 1.4 1.9 2.5 3.8 2.3 4.2-.4 1.5 1.4 7.8 3.3 11.8 2.6 5.4 3.4 10.3 1.9 12.1-.6.8-.8 2-.4 2.6.5.8.3.9-.5.5-.7-.5-1-1.5-.6-2.3.3-.9-.1-2.5-.8-3.7-.8-1.2-1.7-3.9-2.2-6.1-.4-2.2-1-3.4-1.2-2.8-.3.7-1.2 1.3-2 1.3-1.2 0-1.4-.8-1-3.7.3-2.1.3-3.2 0-2.4-.5 1.2-4.5-9.7-8.6-23.4l-1.5-5-.1 4.1c-.1 2.5 1.4 8.1 4 14.9 2.4 6.4 4.2 13.1 4.4 16.2.2 3 .8 5.9 1.3 6.6.5.7 1.2 3.4 1.5 6.2l.5 5-2.8-6c-4.5-9.6-10.7-32.7-13-48.5-1.1-7.8-1.1-30.5 0-34 .7-2.2.8-2.2 1-.5.1 1.1.6-.5 1.1-3.5 1.2-7.2 6.9-13.6 6.9-7.7 0 1.3 1.1 3.4 2.5 4.7 2.2 2.1 2.5 2.1 3.1.6.4-.9.4-3.9 0-6.6-.9-6.4 1.1-10.6 5.4-11.5 3.6-.8 5-2.5 2.1-2.5-2.3 0-2.6-.7-1.1-3 .9-1.3 1.1-1.3 1.9 0 .5.8 2.2 1.4 3.8 1.5 2.4 0 2.8.4 2.6 2.9-.1 1.6-.9 3.6-1.7 4.5-2 2.3-1 11.1 1.3 11.1.9 0 2.2.5 2.9 1.2 2.6 2.6 3.4-2.9 1.7-12.4-.7-4.1-.5-4.9 1.1-5.5 1.3-.5 2.5.2 4.3 2.7 3.9 5 7.8 9 9 9 .6 0 1.9-1 3-2.2 1.8-1.9 2.1-1.9 2.7-.5.9 2.5 2.4 2.1 2.4-.6 0-2.9-2.6-6.7-4.7-6.7-.8 0-2.8-.9-4.4-2-1.5-1.2-4.3-2.5-6.1-3.1-1.8-.6-4.6-1.5-6.1-2.1l-2.8-1.1 4.1-2.5c3.5-2 4.6-2.2 6.6-1.3 3.8 1.7 4.8 1.4 8.7-2.4 2.9-2.8 3.5-4.1 3.4-7-.2-4.4-1.8-4.4-5.1-.3-4.7 6.1-5.6 6.8-8.4 6.8-1.5 0-3.4.6-4.1 1.2-1.1 1.1-1.3.8-.9-1.5.6-3.3-.5-3.5-2-.3-.7 1.5-2.1 2.5-4.2 2.8-3.6.5-4.6-.4-2.5-2.2.8-.7 1.5-1.9 1.5-2.7 0-1.8 6-7.3 8-7.3.9 0 2.1.5 2.8 1.2 2.1 2.1 14.2-3.6 14.2-6.8 0-.7 1.2-2.5 2.8-4 2.1-2.1 2.3-2.5.7-1.9-1.1.4-3.5 1.1-5.4 1.5-1.8.5-5 2.5-7 4.4-4 3.9-8.1 4.8-8.1 1.8 0-1.1.8-2.6 1.8-3.4 2.4-2.1 13.9-5.8 18.1-5.8 2 0 4.1-.4 4.8-.8 1.9-1.2 2.9-5.4 2.3-10l-.5-4.2-5.4 5.5c-3 3-6.3 5.5-7.3 5.5s-3.3.7-4.9 1.6c-1.7.8-3.3 1.4-3.5 1.1-.6-.6 8.5-9.7 11.9-12 1.5-1 3.5-3.5 4.4-5.5.9-2 1.9-4 2.1-4.5.7-1.4-2.6-.7-3.9.9-.7.9-2.2 1.4-3.7 1.1-1.8-.4-2.8.3-4.5 2.9-2.6 4-4.2 4.4-3.3.9.4-1.4.2-2.5-.4-2.5-.5 0-1.2-1.1-1.6-2.5-.7-3-1.4-3.1-5.3-.7-2.6 1.6-2.8 2-1.7 3.3 1.5 1.5 3.8 9 3.1 9.8-.3.2-.5-.1-.5-.7 0-.7-.6-1.2-1.3-1.2-.8 0-1.3 1.9-1.4 6-.1 3.8.3 6 1 6s.7.4-.1 1.2c-.7.7-1.2 2-1.2 3 0 2.8-2.2 6.8-3.7 6.8-1.6 0-1.1-2.4 1.4-7.3.8-1.6 1.2-3.1.9-3.4-.7-.7-3.7 5.5-5.2 10.7-1 3.5-1.2 3.9-1.3 1.8-.1-1.5 1.4-7.4 3.3-13 5.5-16.8 5.5-19.3-.4-22.3-4.1-2.1-4.3-2-3.6 2.7 1 6.3 1.9 20.8 1.3 20.8-.2 0-2.2-1.6-4.3-3.5-2.1-2-4.5-3.4-5.4-3.3-1.9.4-3.9 9-2.2 9.6.6.2 2.6 1.3 4.4 2.6 4.5 3 5.8 8.7 3.4 15.1-1 2.5-2.2 4.5-2.7 4.5-1.1 0-1.2-1.4-.2-2.4.4-.3.8-1.2 1-1.9.1-.7.6-2.5.9-4.2l.7-2.9-2.6 1.7-2.6 1.7.6-3.5c.4-2.3.2-3.5-.6-3.5-.6 0-1.1.8-1.2 1.7 0 1.4-.2 1.3-.9-.5-.5-1.2-1.7-2.5-2.6-2.9-1.3-.5-1.5-1.5-.9-5.2 1-7.5 2.4-10.7 10.2-24.5 4.1-7.2 9.4-16.9 11.8-21.6 5.1-10.1 6-11 19.8-21.9 5.9-4.6 15.6-13.5 21.4-19.8 9.4-10.1 11.6-11.9 18.7-15.3 4.5-2.2 13.3-5.3 19.6-6.9 11.8-3.1 26.3-8.4 29-10.6 2.9-2.4 12.6-6.4 19.2-8 3.6-.8 13.7-1.7 22.4-2 8.7-.4 16-.8 16.3-1 .7-.8 1.1-.6 1.1.5zm13.5 0c1.4.6.2.9-4.2.9-3.4.1-6.5-.4-6.8-.9-.8-1.2 8.1-1.2 11 0zm18 2.9l3 .7-2.3 1.3c-3.7 2-12.2 1.6-17.2-.7l-4.5-2h9c5 0 10.4.3 12 .7zm26.4 2.7c1.2 1.1-.8 1-3.9-.2l-3.5-1.4 3.5.6c1.9.4 3.7.8 3.9 1zm-116.2 2.5c-2.2 1.1-4.1 1.8-4.3 1.6-.5-.5 5.6-3.7 7.1-3.6.6 0-.7.9-2.8 2zm117.5 2.3c14.4 5.6 21.1 8.6 20.5 9.2-1.1 1.1-13.9-3.1-23.4-7.6-9.4-4.5-11.8-6-9.4-6 .5 0 6 2 12.3 4.4zm19.2.6c4.6 2.1 9.6 6.3 9.6 8.1 0 .7-5.4-1.7-23-10-4.9-2.3 8.2-.4 13.4 1.9zm-148.9 2.5c-6.7 3.1-9.9 4-9.1 2.6 1-1.5.5-1.4-4.8.9-6.1 2.6-15.3 5.3-14.1 4.1.6-.5 4.4-2.3 8.5-3.9 8.3-3.3 14.5-4.9 12-3.2-2.6 1.7 1 1.1 5.5-1 2.2-1 4.7-1.8 5.5-1.8.8 0-.7 1-3.5 2.3zM370.7 86c5.4 3.1 7.3 5 5.1 5-1.1 0-12.2-6.2-13.7-7.6-.2-.2.4-.4 1.5-.4 1 0 4.2 1.4 7.1 3zm60.7 8.2c1.5 5.9 0 12.9-1.8 8.2-.9-2.4-.7-5.4.4-5.4.6 0 1-.5 1-1.1 0-.6-.7-.9-1.5-.5-1.7.6-1.8.4-.9-1.8.9-2.3 2.1-2 2.8.6zM97 97.9c-3.4 3.4-4 3.7-4 2 0-1.6 6.4-7.3 6.8-6.1.1.5-1.1 2.4-2.8 4.1zm265.2-1.2c4 3.6.6 6-4 2.7-2.7-1.8-2.8-3.1-.4-3.7.9-.3 1.9-.5 2.1-.6.3 0 1.3.6 2.3 1.6zm84.3 10.8c-.4 3.6-1 6.3-1.4 6-1-1.1-.7-11.9.4-12.7 1.6-1.1 1.7-.3 1 6.7zM97 104.1c0 1.1-.4 1.8-1 1.4-.5-.3-.7-1.2-.3-2 .7-2.1 1.3-1.9 1.3.6zm37-.8c-.8.7-4.6 4.2-8.5 7.8-6.1 5.6-6.4 5.8-2.5 1.5 5.5-6.2 10.2-10.5 11.5-10.6.5 0 .3.6-.5 1.3zm286 5.1c-.5.7-.7 1.6-.3 1.9.3.4.1.7-.6.7-.8 0-1.1-.7-.7-1.5.3-.9-.1-1.8-.9-2.1-.8-.4-1.5-1.8-1.5-3.3l.1-2.6 2.5 2.9c1.8 2 2.2 3.1 1.4 4zm-62.6 1.2c-2.5 2.5-4.9 4.2-5.2 3.9-.7-.7 7.6-8.4 9-8.5.4 0-1.3 2.1-3.8 4.6zm68.4-.5c1.2 1.9 1.1 2-1 1.7-1.2-.2-2.4-1.1-2.6-2.1-.5-2.4 2-2.1 3.6.4zm16.5 4.6c1.2 5.4 1.2 6.4-.2 8.7-1.6 2.6-3.1 3.4-3.1 1.6 0-.6-.6-1-1.3-1-1.1 0-1.2-1.4-.5-6.6.6-5.6 2.3-10.2 3.4-9.2.1.2.9 3.1 1.7 6.5zm-354.9.5c-.7 1.1-.7 1.1-2.4-2.2-1.3-2.5-1.3-2.5.8-.6 1.2 1 1.9 2.3 1.6 2.8zm-19.5 2.5c1.4 4.9 1.4 5.3-.4 5.3-2 0-3.4-3-2.8-6.3.7-3.8 2-3.4 3.2 1zm15.4 1.4c-.8 2.9-1.3 2.3-1.3-1.4 0-2.2.3-2.8.9-1.8.5.7.6 2.2.4 3.2zm319.7 1.3c0 .6-.7.2-1.5-.8-.8-1.1-1.5-2.5-1.5-3 0-.6.7-.2 1.5.8.8 1.1 1.5 2.5 1.5 3zm15-1.4c0 .5-.7.7-1.5.4-.8-.4-1.5-.8-1.5-1 0-.2.7-.4 1.5-.4s1.5.4 1.5 1zm11.8 1.8c.2.7-.2 1-1.2.6-.9-.3-1.6-1.1-1.6-1.6 0-1.3 2.3-.5 2.8 1zm29.2.6c4.3 2 4.8 2.5 3.1 3.1-2.3.7-4.8-.4-7.5-3.4-2.4-2.7-2-2.6 4.4.3zm-73 2.1c1.8 1.9 2 2.5.8 2.5-.8 0-2-1.1-2.6-2.5-.6-1.4-1-2.5-.9-2.5.2 0 1.4 1.1 2.7 2.5zm32.3-1c2 .8 3.9 2 4.3 2.7.6 1 .5 1-.7.1-.8-.6-2.9-1.3-4.8-1.5-1.9-.2-3.6-.9-3.9-1.6-.5-1.6.8-1.5 5.1.3zm-326.5 1.2c-.8 1-2 2.7-2.6 3.8-.6 1.1-1.2 1.5-1.2.9 0-1.2 3.8-6.4 4.7-6.4.3 0-.1.8-.9 1.7zm315.9.5c2.5 2.8 4.2 9.3 2.2 8.6-1.8-.6-4.7-4.8-5.5-8.1-.8-3.3.5-3.5 3.3-.5zm46.7-.7c.3.9-.3 1.9-1.4 2.5-2.5 1.3-2.5 2.7-.1 3.5 2.4.7 3.2 2.7 2 4.6-.7 1.1-1 .9-1.5-.9-.4-1.2-1-2.2-1.5-2.2-1.3 0-1.1 1.3.6 3.8l1.6 2.2-3.5-2.3c-1.9-1.2-3.5-3-3.6-4 0-.9-.4-1.7-1-1.7-1.6 0-2.2 6.3-1.1 13 .9 5.2.8 6.8-.4 8.7-.8 1.2-1.2 2.9-.9 3.8.4.8.1 2.2-.6 3-.7.9-1.1 3.7-.8 7.5.3 6.6-.3 7.5-2.2 3-.8-2-1.1-5.8-.7-11.3.2-4.5.1-10.5-.4-13.3-.7-3.8-.6-6.1.6-9.3 2.2-6.3 5.2-10.1 8-10.1 1.3 0 2.7-.5 3-1 .9-1.5 3.2-1.2 3.9.5zm-23 1.1c1.8 1.7 2.1 4.4.7 4.4-1.1 0-4.1-3.9-4.1-5.2 0-1.3 1.8-.9 3.4.8zm-9.6 3c2.6 1.8 2 3.8-.9 2.9-1-.4-1.9-.2-1.9.4 0 1.7 4.9 2.5 7.7 1.2 2.1-1 2.9-.9 4.3.4.9.8 2 1.2 2.3.8.7-.7 1 1.7.7 5.5-.1 1.3.7 4.2 1.8 6.6 1.7 3.6 1.9 4.9 1 8.9-.5 2.6-1.4 4.7-1.9 4.7s-.9-.4-.9-1c0-1.1-13.9-21.8-18.1-27-1.6-1.9-2.9-3.8-2.9-4.2 0-1.4 6.5-.8 8.8.8zm16.4 1.6c-.9.9-1.2.7-1.2-1.2s.3-2.1 1.2-1.2c.9.9.9 1.5 0 2.4zm18.8-1.7c0 .9-.6 1.2-1.5.9-.8-.4-1.2-1-.9-1.5.8-1.4 2.4-1 2.4.6zm3 1c0 .8-.4 1.5-1 1.5-.5 0-1-.7-1-1.5s.5-1.5 1-1.5c.6 0 1 .7 1 1.5zm-380 .9c0 .3-.4.8-1 1.1-.5.3-1 .1-1-.4 0-.6.5-1.1 1-1.1.6 0 1 .2 1 .4zm309.2 1.7c1.6 1.2 2.7 2.4 2.4 2.7-.3.2-1.2-.1-2.1-.8-1.3-1.1-1.4-1-.9.4.8 2.1-3.4 2.2-6.1.2-1.6-1.2-1.7-1.6-.6-3 1.8-2.1 3.7-2 7.3.5zm10.6.7c.2.7-.3 1.2-1.2 1.2-.9 0-1.6-.7-1.6-1.6 0-1.7 2.2-1.4 2.8.4zm-342.2.7c-2.2 1.7-4.6 2-4.6.6 0-1.1 1.8-1.9 4.5-2 2 0 2 0 .1 1.4zm8.4 3c.6 1.5 1.5 2.3 2.4 1.9.8-.3 1.7 0 2.2.7.5.9.2 1-.9.6-2.1-.8-2.2 0-.2 2 1.7 1.6 1.2 3.3-1.1 3.3-.8 0-1.4-.8-1.4-1.8s-.7-2.7-1.6-3.8c-1.4-1.8-1.5-1.8-.9.6.4 1.4.9 3.3 1.2 4.3.6 2.2-.5 8.7-1.5 8.7-.4 0-.6-2.5-.5-5.6.2-3-.2-6.4-.7-7.4-.7-1.3-.6-2 .3-2.4.9-.5.9-.7-.1-1.2-.6-.3-1-1-.6-1.5 1-1.6 2.4-1 3.4 1.6zm383 0c3.4 1.8 3.7 3.5 1.4 7.1-1.3 1.9-2 2.2-3 1.3-1.6-1.3-1.9-5.3-.4-4.4.6.3 1 0 1-.8s-.7-1.7-1.5-2.1c-.8-.3-1.5-1-1.5-1.6 0-1.3.6-1.3 4 .5zm-363.3 3.2c-.9.9-2 1.3-2.4.9-.4-.4-.1-1.1.7-1.6 2.5-1.6 3.5-1.1 1.7.7zm337.3 6.7c2.8 4.3 4.9 8 4.7 8.3-.3.2-2.6-1.7-5.1-4.3-2.6-2.5-4.5-4.9-4.2-5.2.3-.2-.1-1.4-.9-2.6-1.7-2.3-2-4.9-.6-4.4.5.1 3.3 3.8 6.1 8.2zM83.6 140c1.1 0 1.4 1 1.2 3.9-.2 2.1-.6 3.7-1 3.4-.5-.2-.8.1-.8.6 0 .6-.4 1.1-.9 1.1-1.3 0-2.5-8.5-1.5-10.1.6-1 .9-1 1.2-.1.2.7 1 1.2 1.8 1.2zm299.4-.6c0 1.1-3.3 3.6-4.1 3.1-1.6-1-1-2.3 1.4-2.8 1.2-.2 2.3-.5 2.5-.6.1 0 .2.1.2.3zm87.3.7c-1.4 1.4-10.2 2.5-8.8 1.1.6-.6 2.6-1.2 4.5-1.5 1.9-.2 3.9-.5 4.5-.5.5-.1.4.3-.2.9zm-11.8 1.8c-.3.6-1.1 1.1-1.7 1.1-.6 0-.6-.6.2-1.5 1.4-1.7 2.6-1.3 1.5.4zM91 149c-2.4 3.9-4.4 6.9-4.6 6.7-.3-.2.3-2.4 1.1-4.8 1.5-4 6.3-10.4 7.3-9.5.2.3-1.5 3.6-3.8 7.6zm303.2-5.8c-.7.7-1.2.8-1.2.2 0-.6.3-1.4.7-1.7.3-.4.9-.5 1.2-.2.2.3-.1 1.1-.7 1.7zm-20.6.3c-1.1.8-2.9 1.5-4 1.5-1.9-.1-1.9-.2.4-1.5 3.5-2 6.2-1.9 3.6 0zm24.1 1.9c-.3.8-1.5 2-2.6 2.6-1.7.9-2.1.8-2.1-.5 0-2.1 3.3-5.4 4.4-4.4.5.4.6 1.4.3 2.3zM76 148.5c0 1.1-.9 3.1-1.9 4.5l-1.9 2.4-.7-3.9c-.4-2.2-1.1-4.7-1.6-5.6-1.3-2.5-.1-2.9 3.2-1.1 1.7 1 2.9 2.5 2.9 3.7zm374.6-2.7c-1.8 1.6-1.8 1.6-.6-.6.6-1.3 1.4-2.1 1.8-1.8.3.4-.2 1.4-1.2 2.4zm17.7-1.1c-.6 1.5-6.3 1.8-6.3.4 0-1.2 1.9-1.8 4.6-1.7 1.3.1 2 .6 1.7 1.3zm-416.6.9c-.3.3-1.2.4-1.9.1-.8-.3-.5-.6.6-.6 1.1-.1 1.7.2 1.3.5zm319.7 1.6c-.6 1-6.4 1.1-6.4 0 0-.4 1.6-.7 3.5-.8 1.8 0 3.2.3 2.9.8zm86-.3c.3.5-.1 1.4-.9 2.1-.8.7-1.5 1-1.5.7 0-.3-.3-1.2-.6-2.1-.7-1.7 2-2.3 3-.7zM49 149.4c0 .9-.7 1.2-2 .9-1.1-.3-2-.9-2-1.4 0-.5.9-.9 2-.9s2 .6 2 1.4zm6.3.9c1.4 1.4 3.7 5.4 3.7 6.2 0 .3-.9 0-2-.7s-2-2.1-2-3c0-1-.4-1.8-1-1.8-.5 0-1-.5-1-1 0-1.4.9-1.3 2.3.3zm376.8 12.2c1.8 3.6 1.8 3.8.2 1.7-1.2-1.4-2.5-2.1-3.5-1.7-1.8.7-4.8-2.8-4.8-5.6 0-.9-.9-2.8-2-4.2-3.6-4.6-2.1-4.2 3.1.8 2.8 2.8 6 6.8 7 9zM452 154c0 3.9-.3 4.8-1.4 4.4-.8-.3-1.9-1.8-2.4-3.4-.8-2.1-.7-3.1.6-4.4 2.6-2.6 3.2-1.9 3.2 3.4zm-384.4 4.9c-.1 7.3-.4 9.3-2 11-1.8 2-2 2-3.2.3-1.6-2.1-1.8-7.2-.3-7.2.5 0 .9-.8.8-1.8-.3-2.1.9-5.9 2.9-9 .8-1.2 1.5-2.2 1.6-2.2.1 0 .2 4 .2 8.9zm350.6-5.9c1.7 1.7 2.8 3.3 2.5 3.6-.6.7-7.7-4.7-7.7-5.9 0-1.6 2.3-.6 5.2 2.3zM80 156.3c0 1.5-.9 4.6-2.1 6.9-3.5 6.9-5.1 12-3.9 13.2.7.7 1 .3 1-1.1 0-1.2.5-2.5 1.1-2.9.8-.4.9.4.4 2.7-1 4.7-1.8 5.3-5.9 3.9-4.3-1.4-5.8-5-3.2-7.9.9-1 1.6-2.3 1.6-2.9 0-.7.6-1.2 1.4-1.2.8 0 2-1.7 2.7-3.8.7-2 2.1-5.7 3.1-8.2 1.5-3.4 2.1-4.1 2.8-3 .6.8 1 2.8 1 4.3zm334.6-1.1l2.9 3.3-3.2-2.9c-3.1-2.8-3.8-3.6-3-3.6.2 0 1.6 1.5 3.3 3.2zm42.9-1.1c.4 1.2.2 2.6-.5 3.3-1 .8-1.1.6-.7-1.2.4-1.9.3-2.1-.9-1.1-1.5 1.3-1.7.9-.8-1.5.9-2.2 2.1-2 2.9.5zm4.5-.8c0 .7-.7 2.2-1.6 3.3-1.4 1.7-1.5 1.7-1 .1.3-1 .6-2.5.6-3.3 0-.8.5-1.4 1-1.4.6 0 1 .6 1 1.3zm-391.7 1c.3.8.2 1.9-.3 2.6-.5 1-.9.8-1.4-.4-.3-.9-.6-2.1-.6-2.6 0-1.4 1.7-1.1 2.3.4zm14.4.9c-.3.8-.6.5-.6-.6-.1-1.1.2-1.7.5-1.3.3.3.4 1.2.1 1.9zm363.6 5.5c-.3.7-1.1 1.3-1.9 1.3-1.5 0-2-5.1-.7-6.4 1-.9 3.2 3.5 2.6 5.1zm-51.8-2.7c.3.5-.3 1-1.4 1-1.2 0-2.1-.5-2.1-1 0-.6.6-1 1.4-1 .8 0 1.8.4 2.1 1zm9.5 3.6c1.3.4 1.3.6 0 1.4-2.2 1.3-8.5-.3-7.5-1.9.4-.8 4.3-.5 7.5.5zm-301.5 5.1c-.5 1.5-.7 1.5-2.3-.1-1.6-1.6-1.6-1.8.3-3.2 1.8-1.3 2-1.3 2.3.1.2.9.1 2.3-.3 3.2zm343.8-2.5c.9.7 1.9 3.3 2.3 5.8.5 3.7.4 4.3-.7 3.2-2-1.9-2.9-1.4-2.8 1.5 0 2.5.1 2.6.9.8.8-2 .8-2 1.6-.1.5 1.2.3 2.1-.4 2.4-.6.2-.8 1.1-.5 2 .6 1.5.5 1.5-1 .3-1.3-1-1.7-2.9-1.7-7.5 0-4.2-.3-5.6-1-4.6-.7 1.1-.8.6-.5-1.5.2-1.7.4-3.1.4-3.3.2-.6 1.9-.1 3.4 1zm17.7-.4c0 .4-.9 1.3-2 2-2.2 1.3-2.3 1.2-1.4-1.2.6-1.6 3.4-2.3 3.4-.8zm7-.2c0 1.6-3.6 6.4-4.8 6.4-.7 0-2.4 1.2-3.8 2.7-1.3 1.4-2.6 2.4-2.9 2.1-.6-.6 9.5-11.8 10.7-11.8.4 0 .8.3.8.6zm-42 1.4c0 .5-.2 1-.4 1-.3 0-.8-.5-1.1-1-.3-.6-.1-1 .4-1 .6 0 1.1.4 1.1 1zm-374 3.6c2.6 4.1 1.7 6-1.1 2.5-1.8-2.2-2.1-2.3-3.7-.7-1.4 1.2-2.1 1.3-3 .4-1.6-1.6-1.5-4.5.1-5.1 3.4-1.4 5.6-.6 7.7 2.9zm37.5-1.7c.3.5.1 1.2-.5 1.6-.5.3-1-.1-1-.9 0-1.8.6-2.1 1.5-.7zm25.2.4c-.2.7-1.6 1.1-3 .9-1.4-.1-2.8.2-3.2.8-.3.5.2 1 1.1 1 1.5 0 1.6.2.5 1.2-1.1 1.1-1.4 1-1.8 0-.3-.6-.9-.9-1.5-.6-.5.4-.3-.5.6-1.8 1.1-1.7 2.6-2.5 4.7-2.6 1.9 0 2.9.4 2.6 1.1zm301.3.6c0 .6-.4 1.2-.8 1.5-1.3.8-5.2-.5-4.6-1.5.7-1.2 5.4-1.2 5.4 0zm-315 2.7c0 .8-.4 1.2-1 .9-.5-.3-1-1-1-1.6 0-.5.5-.9 1-.9.6 0 1 .7 1 1.6zm325.5 3.3c-.3.6-1.1 1.1-1.7 1.1-.6 0-.6-.6.2-1.5 1.4-1.7 2.6-1.3 1.5.4zm59.2 1.9c-1.5 1.6-2.7 3.3-2.7 4 0 1.7-3.7 5.2-5.5 5.2-2.7 0-1.6-2 4.1-7.7 5.5-5.5 9.2-6.9 4.1-1.5zM56 174c0 .5-.4 1-.9 1-.6 0-1.3-.5-1.6-1-.3-.6.1-1 .9-1 .9 0 1.6.4 1.6 1zm39.7 1.2c-.3.8-.6.5-.6-.6-.1-1.1.2-1.7.5-1.3.3.3.4 1.2.1 1.9zm349 1.5c-.3 1-.5.4-.5-1.2 0-1.7.2-2.4.5-1.8.2.7.2 2.1 0 3zm-338.2.3c-.4 1.2-.9 1.9-1.2 1.7-.3-.3-.2-1.5.2-2.7.4-1.2.9-1.9 1.2-1.7.3.3.2 1.5-.2 2.7zm347.5-2.6c0 .3-.4.8-1 1.1-.5.3-1 .1-1-.4 0-.6.5-1.1 1-1.1.6 0 1 .2 1 .4zm-329.4 6.3c-1.3 1.4-2.5-.9-1.3-2.8 1.2-2 1.2-2 1.5.1.2 1.2.1 2.4-.2 2.7zm304.2-3.5c-.3.7-2 1.4-3.9 1.6-3.2.2-3.3.1-1.5-1.3 2.4-1.8 5.9-2 5.4-.3zm-22.3.7c-.6.5-2.3 1.2-4 1.5l-3 .6 3-1.4c3.5-1.8 5.4-2 4-.7zm68.5 5.3c0 1.6-.4 2.8-1 2.8-.5 0-1-1.9-1-4.3 0-3.1.3-3.8 1-2.7.5.8 1 2.7 1 4.2zm-68.4 1.7c-2.1 4.5-2.4 4.9-3 2.9-1-3.7-.7-5.8.8-5.8.7 0 1.9-.7 2.6-1.5 2.3-2.7 2.1-.9-.4 4.4zm37.1-3.7c-.3.8-.6.5-.6-.6-.1-1.1.2-1.7.5-1.3.3.3.4 1.2.1 1.9zm-16.7-.9c0 .2-1.3 1.6-3 3.2l-3 2.9v-3c0-2.6.4-3 3-3.2 1.7-.1 3-.1 3 .1zm12 .6c0 1.1-4.8 5.1-6.1 5.1-1.5 0-1-1.9 1.1-4s5-2.7 5-1.1zm-317 1.5c0 .3-.4.8-1 1.1-.5.3-1 .1-1-.4 0-.6.5-1.1 1-1.1.6 0 1 .2 1 .4zm269 .3c-.1 1.5-2.6 3.8-5.4 5.1-2.5 1.1-3.2 1.1-4.4-.2-1.4-1.3-1.3-1.6.9-2.4 1.3-.6 3.5-1.4 4.9-2 3.1-1.3 4-1.4 4-.5zm-306.2 2.5c2 2 1.5 4.7-.8 4.1-1.3-.3-2-1.4-2-2.9 0-2.6 1-3 2.8-1.2zm357 1c.2 1-.6 1.9-1.8 2.3-2.8.9-3.4.2-2-2.5 1.3-2.3 3.3-2.2 3.8.2zm24.8 4.1c.6 2.8-.7 8.9-2.1 9.4-.6.2-.9-2.2-.7-5.7.4-6.1 1.7-7.9 2.8-3.7zm-353 5.5c-1.2 1.2-1.8 1.3-3 .3-1.9-1.6-1.2-3.5 1.7-4.8 1.8-.9 2.3-.7 2.5 1 .2 1.1-.3 2.6-1.2 3.5zm303.4-1.4c0 .5.7 1.8 1.7 2.8 2 2.2.1 2.4-2.1.2-2.5-2.4-3.8-5.3-3-6.6.7-1.2 3.4 1.6 3.4 3.6zm31.5 1.8c1.1 2.9 2 6 2 6.8 0 .8.4 2.1.8 2.8 1 1.5 2.9 19.3 2.2 20-.3.3-.5-.2-.5-1 0-.9-.6-1.8-1.4-2.1-.7-.3-1.7-2.3-2.1-4.4-.3-2.1-1.5-5.8-2.6-8.2-1-2.4-1.9-5.4-1.9-6.8 0-1.3-.7-3.7-1.5-5.3-1.3-2.5-1.3-3-.1-3 .7 0 2.1 1 2.9 2.2 1.5 2.1 1.5 2 .2-1.4-1.7-4.3-1.8-4.8-.7-4.8.4 0 1.6 2.4 2.7 5.2zm5.9.5c3.3 10.4 3.5 11.3 2.6 11.8-1.3.8-1.8-.4-3.9-9.4-2.1-9.4-1.4-10.8 1.3-2.4zm-26 1.5c.5 1.5.6 3.1.2 3.5-.9 1-4.6-3.3-4.6-5.4 0-2.5 3.4-1 4.4 1.9zm13.9 1.2c2.6 5 1.6 5.7-1.4.9-3.2-5.1-3.4-5.6-1.8-5.1.7.2 2.1 2.1 3.2 4.2zm-363 1c.6 1.9.5 3.5-.2 4.9l-1.2 2.2.5-2.2c.2-1.2-.2-2.4-1-2.7-1.7-.7-1.9-5.9-.2-5.4.6.2 1.6 1.7 2.1 3.2zm396.6.2c-2.9 3.5-10.3 5.5-8.3 2.2.7-1.2 6.3-3.7 8.3-3.8 1.1 0 1.1.3 0 1.6zm-406.6 8c-.9 3.8-1.9 6.1-2.1 5.1-.4-1.8 2.8-13.1 3.5-12.3.2.2-.4 3.4-1.4 7.2zm6.6.4c.1 1-.7 1.6-2 1.6-1.8 0-2-.4-1.4-3.6.4-1.9 1-3.9 1.3-4.5.6-.9 1.8 2.9 2.1 6.5zm39.1-6.6c0 .2-.8 1-1.7 1.7-1.6 1.3-1.7 1.2-.4-.4 1.3-1.6 2.1-2.1 2.1-1.3zm327.3 4.4c2.6 4.4.7 4-2.1-.4-1.4-2.1-1.8-3.4-1-3.2.7.3 2.1 1.9 3.1 3.6zm-357.9.6c-.7 3-2.4 3.5-2.4.8 0-1.8 2-4.5 2.7-3.8.2.2.1 1.5-.3 3zm339.5-2.8c4.7 1 3.7 2.2-2.1 2.7-2.9.3-6.2.6-7.3.8-1.3.3-2-.1-2-1.1 0-1.1.9-1.4 3.3-1.2 2.1.1 3.1-.2 2.7-.8-.7-1.1.9-1.3 5.4-.4zm42.6 1.4c.3.5-.3 1-1.5 1s-1.8-.5-1.5-1c.3-.6 1-1 1.5-1s1.2.4 1.5 1zm15.5 1.5c0 .8-.7 1.5-1.5 1.5-1.6 0-2-1.2-.8-2.3 1.1-1.2 2.3-.8 2.3.8zm-72 1.7c-.1 2.3-2.7 4.8-5 4.8-2.4 0-2.4 0 .5-3 3.1-3.2 4.5-3.8 4.5-1.8zm28.6 1.3c1.8 1.4 1.7 1.4-1.3 1.5-2.3 0-3.3-.5-3.3-1.5 0-1.9 2.1-1.9 4.6 0zm28.2-.6c.9.5 4.3 1.5 7.6 2.1 6.6 1.4 6.4 3-.6 3.6-3.7.4-4.7.1-7.5-2.6-1.8-1.6-3.3-3.2-3.3-3.5 0-.8 1.9-.6 3.8.4zM491 212c0 1.6-3.4 2.8-5.5 2-2.1-.8-2-.8 2.5-2.3 2.4-.8 3-.8 3 .3zm-49 1.6c0 1.6-4.9 4.3-7.7 4.4-4.3 0-4.2-1.1.5-3.2 3.8-1.7 7.2-2.2 7.2-1.2zm-369.3 3.1c1.7 3.9 2 10.6.5 11.1-.7.2-1.2 1.2-1.2 2.2 0 1-1.6 3-3.7 4.5l-3.6 2.8.5-4c.7-5.2 4.9-19.3 5.7-19.3.3 0 1.2 1.2 1.8 2.7zM35 217c0 .5-.5 1-1.1 1-.5 0-.7-.5-.4-1 .3-.6.8-1 1.1-1 .2 0 .4.4.4 1zm449 .6c0 .2-.9.4-2 .4s-2-.4-2-.9.9-.7 2-.4c1.1.3 2 .7 2 .9zm9.5 1.7c2.8 2.1 0 3.2-3 1.3-1.4-.9-2.5-1.9-2.5-2.1 0-1 3.7-.4 5.5.8zm-413.5.2c0 .2-.9 1.9-2 3.7-1.3 2.2-2 2.7-2 1.5 0-2 2.1-5.7 3.2-5.7.5 0 .8.2.8.5zm375.7 1.7c-.3.8-.6.5-.6-.6-.1-1.1.2-1.7.5-1.3.3.3.4 1.2.1 1.9zm-422.5 3c-.7.7-1.2.8-1.2.2 0-1.4 1.2-2.6 1.9-1.9.2.3-.1 1.1-.7 1.7zm386.4.3c.7 2.7-1.3 5.7-4.8 7.6-1.6.9-1.8.5-1.8-3.3 0-3.5.4-4.5 2.3-5.4 3.3-1.7 3.6-1.6 4.3 1.1zm-309.8 3.6c-1.5.9-3.8-.7-3.8-2.7 0-1.2.5-1.1 2.6.2 1.8 1.3 2.2 1.9 1.2 2.5zm338.2-2c1.1.8.7.9-1.9.5-2.9-.5-4-.1-6.3 2.1-3.3 3.1-3.8 2-.6-1.4 2.3-2.4 6.3-3 8.8-1.2zm-333.3.5c-.3.3-1.2.4-1.9.1-.8-.3-.5-.6.6-.6 1.1-.1 1.7.2 1.3.5zM95 229.2c0 .7.3 3 .6 5 .7 3.8.1 4.5-2.5 2.9-.9-.6-1.1-2-.6-5 .6-3.7 2.5-5.9 2.5-2.9zm17.2 2c-.6.6-1.6.7-2.2.3-.9-.6-.9-.9.1-1.6 1.7-1 3.4 0 2.1 1.3zm-86.5 1.3c.3.9.3 1.9-.1 2.2-.7.7-3.6-1.6-3.6-2.8 0-1.5 3-1 3.7.6zm50.3 3.9c.8 3.8-.5 6-2.1 3.5-1-1.7-1.2-6.3-.2-7.2.9-1 1.4-.3 2.3 3.7zm-65.8-.9c.3 1.3.1 2.2-.3 1.9-.9-.5-1.3-4.4-.5-4.4.2 0 .6 1.1.8 2.5zm40.8.9c0 .2-.7.6-1.5 1-.8.3-1.5.1-1.5-.4 0-.6.7-1 1.5-1s1.5.2 1.5.4zm12.7 2.8c-.3.7-.5.2-.5-1.2s.2-1.9.5-1.3c.2.7.2 1.9 0 2.5zm373.1.9c.2 1.3-.4 3.3-1.2 4.4-1.4 1.9-1.4 1.9-2.6-.6-.9-2-.9-3.2 0-4.8 1.4-2.8 3.4-2.2 3.8 1zm-420.7-.2c2.4 2 2.4 2 .2 1.4-1.2-.3-2.8-1.1-3.4-1.9-1.7-2.1.5-1.7 3.2.5zm43.8 16.8c0 11.7-.3 15.2-1 13.3-1.8-4.3-2.3-16.6-.9-23 .7-3.3 1.4-6 1.6-6 .2 0 .4 7.1.3 15.7zm-30.4-11c.8 2 1.3 3.8 1.1 4-.5.6-3.6-5.1-3.6-6.7 0-2 1-1 2.5 2.7zm23 8c-.3 1.6-1.3 3.5-2.2 4.3-1.3 1.3-1.4 1.1-.8-2 .9-4.2 1.3-5 2.7-5 .6 0 .8 1.1.3 2.7zm-27-.7c-2.8 1.2-3.7 1.2-3 0 .3-.6 1.6-1 2.8-.9 2.1 0 2.1.1.2.9zm33.9 25.4c1.4 5.4 2.6 10.3 2.6 10.9 0 2-6-5.7-8.1-10.3-1.7-3.7-2-5.8-1.5-12.5.8-12.7 1.8-14.4 3.2-5.5.6 4.1 2.3 11.9 3.8 17.4zM24 256c-2 1.3-6.3 1.3-5.5 0 .3-.6 2.1-1 3.8-1 2.4 0 2.8.3 1.7 1zm434 8.7c-1.1 1.7-1.1 1.7-.6 0 .3-1 .7-2.6.7-3.5.1-1.5.2-1.5.6 0 .2 1-.1 2.5-.7 3.5zm3.5 11.2c-.3 1.8-.8 3.1-1.1 2.9-.9-.9-2.1-9.7-1.3-9.2.5.3 1-1.9 1-4.8l.1-5.3 1 6.5c.5 3.6.6 8 .3 9.9zm-434.8-9.7c-.3.8-.6.5-.6-.6-.1-1.1.2-1.7.5-1.3.3.3.4 1.2.1 1.9zM33 265c1.3.8 1.3 1-.2 1-.9 0-2-.5-2.3-1-.8-1.3.5-1.3 2.5 0zm60 8.1c0 1.6-.4 2.8-.9 2.5-.5-.3-1.2 1.1-1.6 3.1-.5 2.6-.9 3.3-1.5 2.3-.5-.8-.3-2.5.6-4.3.9-1.6 1.3-3.5 1-4.2-.5-1.4.2-2.5 1.6-2.5.4 0 .8 1.4.8 3.1zm1.1 7.6c-.4 1.5-1.2 2.8-1.9 3.1-.9.3-.9-.4-.1-2.7 1.3-3.8 3-4.1 2-.4zm-17.7 4.9c.6 1.7-.9 4.4-2.5 4.4-.5 0-.9-1.1-.9-2.3 0-3.7 2.3-5.1 3.4-2.1zM56.5 288c1.6 1.7 1.6 2 .3 1.5-.9-.4-1.9-1.3-2.2-2.1-.7-1.9-.2-1.8 1.9.6zM39 289.1c0 1.1-.4 1.8-1 1.4-.5-.3-.7-1.2-.3-2 .7-2.1 1.3-1.9 1.3.6zm-4 1.9c0 2.3-1 2.6-2.8.8-1.8-1.8-1.5-2.8.8-2.8 1.3 0 2 .7 2 2zm47 5.6c0 3.1-.4 3-4-.9-3.2-3.5-3.7-5.3-1.7-6 1.8-.7 5.7 4 5.7 6.9zm377.2 3.2c-.6 3.1-2.6 8.5-4.4 12-3.3 6.6-5.6 9.3-3.8 4.6.6-1.5 2.2-7.5 3.6-13.3 3.2-13.8 3.3-14.2 4.7-11.3.8 1.7.8 3.9-.1 8zm-419.6-3.7c1.4 2.2 2.3 4.3 2 4.6-.4.5-5.6-7-5.6-8.2 0-1.3 1.2-.1 3.6 3.6zm7.4-.8c0 1.8-.2 1.9-1 .7-1.3-2-1.3-4.3 0-3.5.6.3 1 1.6 1 2.8zm40 8.8c-.7 1.6-1.6 2.9-2.1 2.9-1.3 0-1.1-.8.9-6 1.4-3.7 1.8-4.1 2-2.2.2 1.3-.2 3.7-.8 5.3zm15-.2c0 .5-1.4 2.1-3.2 3.6-4 3.4-5.1 1.5-1.1-1.9 3-2.7 4.3-3.2 4.3-1.7zm-56.9 2.4c-1 .9-1.1.8-.5-.6.3-1 .9-1.5 1.2-1.2.3.3 0 1.1-.7 1.8zm48.9.2c-1.3 1.4-2.6 2.2-2.9 1.9-.3-.3.5-1.4 1.9-2.4 3.4-2.7 3.8-2.5 1 .5zm16.4 1.6c.4 2.3.1 3.8-1 5.1-2.2 2.3-3.7 2.3-3.1 0 .3-.9.8-3.4 1.2-5.5.7-4.3 2-4.2 2.9.4zm348.7 3.6c-1.1 4.1-5.1 10.5-10.1 16.3-2.5 2.8-1.8.9 3.7-10 6.4-12.7 8.7-15 6.4-6.3zm-426.4-4.1c-.3.3-1.2.4-1.9.1-.8-.3-.5-.6.6-.6 1.1-.1 1.7.2 1.3.5zm16.3 3c0 1.3-.4 2.4-1 2.4-.5 0-1-1.4-1-3.1 0-1.7.4-2.8 1-2.4.6.3 1 1.7 1 3.1zm-12.9 1.6c-1.3 1-3.1 1.8-4 1.8-1.7 0-4.1-1.8-4.1-3.1 0-.9 5.7-1.6 8.4-1 1.8.4 1.8.5-.3 2.3zm24.7 4.3c1.2 1.4 1.8 2.5 1.3 2.5s-1.6-1.1-2.5-2.5c-.9-1.4-1.5-2.5-1.3-2.5.2 0 1.3 1.1 2.5 2.5zm-12.8 1c-.7.8-2 1.5-2.9 1.5-1.1-.1-.8-.5.9-1.5 3.2-1.8 3.5-1.8 2 0zm32.3 5.2c.2 1 .8 2.7 1.2 3.8.6 1.7.4 1.7-1.4-.4-2.2-2.4-2.8-5.1-1.2-5.1.5 0 1.1.8 1.4 1.7zM62 323c0 .5 1 1 2.2 1 1.7 0 1.9.3 1 1.2-.8.8-1.5.8-2.6-.2-.9-.7-2.6-1-4.1-.6-2.5.6-3.6-.8-1.2-1.7 2.1-.9 4.7-.7 4.7.3zm-7.6 4.1c-.5.9-4.4 1.9-4.4 1.1 0-.3.8-1.4 1.7-2.4 1.2-1.4 1.8-1.5 2.4-.6.4.7.6 1.5.3 1.9zm40.3 1.3c-3.2 4.4-4.7 4.9-4.7 1.8 0-2.9 3-6.2 5.5-6.2H98l-3.3 4.4zM110 327c1.1 1.1 2 2.4 2 2.9 0 .8-5.2 3.1-7.1 3.1-1.4 0-1-6.8.4-7.3 2.1-.9 2.6-.8 4.7 1.3zm-27.6 5.5c.8 1.9 1.9 3.5 2.5 3.5 1.4 0 2.4 5.5 1.6 9-.8 3.8-2 3.8-3.9.2-1.7-3.3-3.6-16.2-2.4-16.2.4 0 1.4 1.6 2.2 3.5zm13-.3c-.4 1.3-.9 2.5-1.3 2.8-.8.7-3 6.5-4.7 13-.8 3-1.7 5.6-1.9 5.9-1.2 1.2-.3-7.7 1-10.3.8-1.5 1.5-3.9 1.5-5.2 0-1.3.4-2.4 1-2.4.5 0 1.6-1.4 2.5-3 1.8-3.5 2.9-4 1.9-.8zm345.7 5.1c-1 .9-1.1.8-.5-.6.3-1 .9-1.5 1.2-1.2.3.3 0 1.1-.7 1.8zm.4 6.5c-2 3.9-4.1 7.4-4.6 7.8-.6.3.8-3.1 3.1-7.6s4.3-8 4.6-7.8c.2.3-1.2 3.7-3.1 7.6zM60.3 343c.3 1.1.1 2-.4 2s-.9-.9-.9-2 .2-2 .4-2 .6.9.9 2zm378.7-.8c0 .7-.9 2.4-2.1 3.8l-2 2.5 1.8-3.8c1.8-3.9 2.3-4.5 2.3-2.5zm-8.4 11.5c-5.8 11.6-9.5 17.1-9.6 14.1 0-3.5 12.5-24.8 14.6-24.8.2 0-2 4.8-5 10.7zm-374.2-3c.3 1 .9 2.4 1.2 3 .8 1.7-3.2 1.6-7.1-.1-2.7-1.2-2.8-1.4-1-2.1 1.1-.3 2.7-1 3.5-1.5 2.2-1.3 2.7-1.2 3.4.7zm378.6-.9c0 .5-.7 1.7-1.5 2.8-1.4 1.8-1.4 1.7-.4-.9 1.2-2.7 1.9-3.4 1.9-1.9zm-311.5 8.9c.3 1.3.2 2.3-.3 2.3-1.1 0-3.3-4.6-2.4-5.4.8-.8 1.8.4 2.7 3.1zm-43.5-.5c0 1.9-.2 2-1 .8-1.3-1.9-1.3-3 0-3 .6 0 1 1 1 2.2zm-10 1.4c0 1.4-.4 2.3-1 1.9-.5-.3-1-1.5-1-2.6 0-1 .5-1.9 1-1.9.6 0 1 1.2 1 2.6zm5.6 3.7c2.1 4 .7 4.8-2.2 1.2-2.8-3.5-3.4-7.6-.8-5.4.8.7 2.2 2.6 3 4.2zm38.2 1c.4 3.4-1.5 3.5-2.8.1-1.3-3.4-1.3-3.6.8-3.2 1 .2 1.8 1.4 2 3.1zm-55.8-.8c0 2.1-4.7 4.2-6.1 2.8-.8-.8-.3-1.6 1.7-2.7 3.7-1.9 4.4-2 4.4-.1zm77.3 0c.1.5-1.1 1.2-2.7 1.3-2.7.3-2.8.2-1.6-1.3 1.4-1.7 4-1.7 4.3 0zm-38.2 3.4c1.1 2.4 1.6 2.8 3.2 2 1.3-.8 2.5-.6 4.4.6 2.9 2 2.9 2-1.9 2.9-3 .5-4 .3-5.6-1.4-2.1-2.2-3.5-7-2.1-7 .4 0 1.3 1.3 2 2.9zM99 365c0 .5-.2 1-.4 1-.3 0-.8-.5-1.1-1-.3-.6-.1-1 .4-1 .6 0 1.1.4 1.1 1zm24 .5c0 .8-.2 1.5-.4 1.5s-.6-.7-1-1.5c-.3-.8-.1-1.5.4-1.5.6 0 1 .7 1 1.5zm-20 1.1c0 .2-.7.4-1.5.4s-1.5-.4-1.5-1c0-.5.7-.7 1.5-.4.8.4 1.5.8 1.5 1zm6 0c0 .8-.4 1.2-1 .9-.5-.3-1-1-1-1.6 0-.5.5-.9 1-.9.6 0 1 .7 1 1.6zm-24 1.5c0 1.1-2.7 1.2-3.4 0-.3-.4-.3-1.1 0-1.4.8-.8 3.4.3 3.4 1.4zm44 .4c-.7.8-1.7 1.5-2.2 1.5-.6 0-.5-.7.2-1.5s1.7-1.5 2.2-1.5c.6 0 .5.7-.2 1.5zM86 371c0 .5-1.1 1-2.5 1s-2.5-.5-2.5-1c0-.6 1.1-1 2.5-1s2.5.4 2.5 1zm8 3.5c3.7 1.9 3.9 2.8.4 1.5-1.4-.6-3.9-1-5.5-1-1.8 0-2.8-.4-2.4-1 .9-1.5 4.2-1.2 7.5.5zm10.4 1.1c.3.9.6 2.5.6 3.7-.1 2.2-.1 2.2-2-.2-1.1-1.3-2-2.9-2-3.7 0-1.9 2.6-1.8 3.4.2zm9 3c3.1 2.6 5.6 5.3 5.6 6.1 0 1.1-.6 1-2.7-.5-4.7-3.2-5.3-3.4-4.7-1.8.3.9 1.1 1.6 1.6 1.6s2.3.9 3.9 2.1c2.2 1.6 2.9 2.8 2.9 5.5 0 1.9-.4 3.4-.9 3.4-1.5 0-11.5-11.7-12.3-14.3-.9-3.3-.9-6.7.1-6.7.5 0 3.4 2.1 6.5 4.6zm-37.8-1.1c-1.1.8-3 1.5-4.1 1.5-1.2 0-3 .9-4 2-1.3 1.4-2.2 1.7-2.9 1-1.6-1.6 1.8-4.3 6.6-5.1 6.3-1 6.5-1 4.4.6zm44.5 1.7c1.2 2.2 1.2 2.2 2 .3.6-1.5.8-1.1.8 1.7.1 2-.3 4-.9 4.3-.5.3-1-.3-1-1.3 0-1.1-.6-2.2-1.4-2.5-.8-.3-2-1.5-2.6-2.6-.9-1.7-.8-2.1.4-2.1.9 0 2.1 1 2.7 2.2zM408.3 393c-.9 1.7-3.3 4.3-5.3 5.8-6.5 5.2-6.5 4.5 0-2.2 3.5-3.6 6.6-6.6 6.8-6.6.2 0-.5 1.4-1.5 3zm-319.8-.2c-.3.3-1.1 0-1.8-.7-.9-1-.8-1.1.6-.5 1 .3 1.5.9 1.2 1.2zm-.8 3.7c2.1 1.9 3.4 3.5 2.8 3.5-2 0-7.5-4-7.5-5.5 0-2.1.4-1.9 4.7 2zm6.3-.5c1.2.8 1.2 1-.4 1.6-1.1.4-2.4 0-3.4-1-1.5-1.5-1.5-1.6.3-1.6 1.1 0 2.7.4 3.5 1zm14.8 4.2c-.2 1.7-1.1 2.4-3.1 2.6-1.9.2-3.1 1.1-3.8 2.9-.5 1.4-1.2 2.3-1.5 2-.9-.9 1.6-5 4.5-7.4 3.3-2.8 4.3-2.9 3.9-.1zm-17.2 5.3c-2.6 1.9-4.2 1.9-2.6 0 .7-.8 2-1.5 2.9-1.5 1.3.1 1.3.3-.3 1.5zM135 409c.8.5 1 1 .4 1-.7 0-2.2-.9-3.5-2.1-1.9-1.6-2-1.8-.4-1 1.1.6 2.7 1.5 3.5 2.1zm-44.6 2.5c-2 3.1-4.8 2.9-5.2-.4-.3-1.9 0-2.3 1.6-1.9 1.1.3 2.6.2 3.3-.3 2.1-1.3 2.2-.3.3 2.6zm299.1-.4c-5.4 5.8-20 16.1-32.6 22.9-17 9.1-16.5 7.5.8-2.9 7.6-4.5 18.1-11.3 23.3-15.1 5.2-3.9 9.6-7 9.9-7 .2 0-.4.9-1.4 2.1zM99 413c0 .5-.5 1-1.1 1-.5 0-.7-.5-.4-1 .3-.6.8-1 1.1-1 .2 0 .4.4.4 1zm45.9 3c6.6 4 14.2 10 12.7 10-2.2 0-13.5-6.4-16.8-9.5-6.3-5.9-5-6.1 4.1-.5zm227.1 2.4c0 1.4-25.8 18.2-26.6 17.4-.7-.7 8-8.5 12.6-11.3 2.5-1.5 3.8-2.5 3-2.2-.8.3-2.4.8-3.5 1.2-1.1.3-.8-.1.8-1 1.5-.9 3.2-1.3 3.7-1 .5.3 2.6-.3 4.7-1.4 3.8-2 5.3-2.5 5.3-1.7zm-207.1 13.2c1.4 1.2-1.9.1-3.5-1.2-1.8-1.4-1.8-1.4.6-.3 1.4.6 2.7 1.3 2.9 1.5zm37.5 18c6 2.1 11.5 3.4 27.1 6 2.6.5 3.3.9 2.1 1.2-1.1.2-2.6 1-3.4 1.8-1.7 1.8-5.9 1.7-14.4 0-6.4-1.4-13.4-4.3-12.6-5.2.3-.2 2.7.2 5.4 1s7.6 1.8 10.9 2.1c3.3.4 6.8.9 7.9 1.2 1 .3 1.6.1 1.3-.4-.4-.6-3.5-1.3-6.9-1.6-7.7-.7-22.4-4.9-29.8-8.5-3-1.4-6-2.6-6.6-2.5-.6 0-1.1-.5-1.1-1.2 0-.9 2-.5 6.6 1.2 3.6 1.4 9.7 3.6 13.5 4.9zm126.6-3.2c0 2.6-15.2 6.7-23.9 6.5-2.7 0-.8-.8 6.9-2.9 8.5-2.4 14-4 16.8-4.9.1-.1.2.5.2 1.3zm-136 4.1c1.4.8 2.1 1.4 1.5 1.4-.5 0-2.1-.6-3.5-1.4-1.4-.8-2-1.4-1.5-1.4.6 0 2.1.6 3.5 1.4zm85.9 3.4c1.5 1-17 1.9-22.9 1.1l-3.5-.4 3.5-.7c5.3-1 21.3-1 22.9 0zm-9.1 3.8c-2.1.2-5.5.2-7.5 0-2.1-.2-.4-.4 3.7-.4 4.1 0 5.8.2 3.8.4z"/><path d="M376.5 146.9c-.3.2-.5.8-.5 1.3 0 1.3 2.6.9 3.8-.5.8-1 .6-1.3-.9-1.3-1.1 0-2.2.2-2.4.5zM216 206.7c-1.4.2-9.4 1.5-17.9 2.9-18.4 3-26.5 3.3-30.9 1.1-3.9-1.9-4.3-.6-.5 1.4 1.8 1 5.6 1.3 11.9 1.2l9.2-.1-3.3 5.6c-3.3 5.6-7.7 17.7-9.1 24.7-.5 2.7-1 3.4-2.3 3.1-.9-.3-5.4-1.6-10.1-3-23.9-7.1-47.8-6.1-64.1 2.5-7.4 4-15.6 12.6-16.5 17.4-.8 4.3 0 6.5 2.2 6.5 1.6 0 1.6-.1 0-1.9-2.5-2.7-1.2-6.3 4.5-12.5 8.4-9.2 20.5-14.2 36.9-15.2 12-.7 23.5.7 37.3 4.8 8.9 2.6 10.7 3.4 10.7 5.1 0 1.1-3 5.2-6.7 9.1-13.8 14.5-24.5 35.3-28.7 55.9-2.4 11.3-2.1 16.3.9 19.2 3.4 3.5 9.3 3.4 13.4-.1 8.5-7.1 17.1-31.3 23.6-66.1 1.4-7.6 2.8-14.8 3.1-16.1.4-2.2.8-2.3 5.7-1.7 5.8.6 8.3-.4 7.3-3-.6-1.8-4.3-1.7-10.3.1l-2.2.6 2-7.3c2.4-8.8 8.7-22.1 12.6-26.7 2.6-3.1 3.6-3.5 11.8-4.7 19-2.8 34.1-2.8 40.8 0 .9.4 1.7.3 1.7-.3 0-2.5-22.3-4.2-33-2.5zM191.5 248c.4.6-.9 1-3.2.9-3 0-3.4-.2-1.8-.9 2.7-1.2 4.3-1.2 5 0zM170 267.1c-7.4 33.3-12 47.8-18.8 59.1-4.6 7.9-6.6 9.4-10.2 8.3-2.9-.9-3.5-4.9-2.1-13.3 2.7-16.2 9.3-33 18.4-47 4.5-6.8 13.6-17.6 14.4-16.9.2.2-.6 4.7-1.7 9.8z"/><path d="M208 225.2c-5.8 7.8-10.1 18.4-14.5 35.3-3.3 12.7-3.7 16.2-2.5 18.5 2.5 4.8 7.5 1.4 15.1-10 2.9-4.4 5.3-8 5.4-8 .2 0 .1 1.9-.2 4.2-.5 5.5 1.4 9.2 4.9 9.6 4.1.5 9.7-2.7 12.9-7.2 1.5-2.3 3.8-5 5.1-6.1 1.2-1.1 3.6-3.5 5.2-5.3 1.6-1.7 3.8-3.2 4.9-3.2 1.1 0 3.5-.9 5.3-2.1 1.9-1.1 3.4-1.9 3.4-1.7 0 .2-1.6 5.2-3.5 11.1-3.9 12-4.2 14.5-2 15.4 2.1.8 5-2 9.7-9.5 2.2-3.5 4.2-6.2 4.3-6 .2.2-.1 2.4-.6 5.1-1.5 8.5 1.8 12.7 7.1 8.8 1.7-1.2 3.1-1.7 3.5-1.1 1.7 2.7 10.5-1.1 14.7-6.3l1.8-2.2v2.3c0 6 4.4 8 8.7 4 1.8-1.6 2.3-1.8 2.3-.6 0 2.1 3.2 4.8 5.7 4.8 1.1 0 3.6-1.1 5.6-2.5l3.7-2.4-.3 2.2c-.4 3.8 3.4 2.7 6.7-2 1.6-2.4 2.7-4.5 2.4-4.8-.3-.4-1.6 1-2.8 3-1.2 2-2.4 3.4-2.7 3.1-.8-.7 4.5-17 10.3-32 3-7.7 5.3-14.3 5.2-14.8-.2-.4-1.3-.1-2.5.7-1.4 1-3.4 5.2-5.8 12.5-3.6 10.8-3.7 11-5.8 9.5-3.2-2.2-7.2-1.8-10.6 1-3.1 2.7-9.1 13.5-9.1 16.5 0 1.9-4.3 7-6 7-1.6 0-1.2-2.3 2-10.9 1.6-4.5 2.7-8.8 2.3-9.6-1.1-3-3.6-1-5.6 4.4-1.4 3.6-3.9 7.3-7.4 10.8-8.4 8.4-10.4 6.6-6.1-5.6 2.7-7.7 8-13.9 12.8-15.2l3.5-.9-3.9.5c-8.2.9-16.1 9.3-18.6 19.5-1.1 4.6-4 9-6 9-1.8 0-1.1-5.8 1.5-12.6 2.9-7.8 3.2-11.2.8-12.1-.9-.4-1.8-.2-2 .3-.8 2-14.5 22.6-14.9 22.2-.2-.3 1.6-6.5 4.1-13.8 2.5-7.4 4.5-13.8 4.5-14.2 0-1.7-3-.7-8 2.7-6.8 4.6-8.9 4.6-5.5.1 2.3-3 4.7-11.5 4.1-14-.8-3.1-3.4-4.1-5.7-2-4.1 3.7-7.4 17.5-4.8 20.1 1.3 1.3-1.3 5.8-4.1 7.3-1.6.9-1.8.6-1.3-2.8.6-4.7-.9-8.6-4.1-10.7-2.2-1.4-2.8-1.5-6-.1-2 .8-3.9 2.2-4.2 3-.4 1.1-1.4 1.4-2.9 1-2-.5-2.5 0-3.8 4.1-2.9 8.3-14.5 25.5-17.3 25.5-2.2 0-1.3-5.7 3.2-21.4 3.1-10.6 4-12.5 7.8-16.6 8.1-8.7 11-18.1 5.9-18.8-1.6-.2-3 .8-5.3 4zm6.5.5c-.9 3.7-4.8 10.3-7.5 12.8l-2.1 1.9 2.1-5.3c3.4-8.8 5.4-12.1 7.2-12.1.6 0 .7 1.2.3 2.7zm35 10.5c-.8 3.6-5.2 12.8-6.1 12.8-1 0 .6-6.3 2.8-11.3 2.5-5.4 4.3-6.3 3.3-1.5zm-20.4 11.5c1 2.8-.1 10.6-2.1 14.4-1.1 2-6.3 2.6-8.8 1-4.4-2.7 2.8-18.1 8.5-18.1.7 0 1.8 1.2 2.4 2.7zm89.3 1.2c1.6 1.7 1.5 2.3-.8 9.7-2.9 9.1-7.6 14.8-11.7 14.2-2.2-.3-2.4-.8-2.2-5.1.2-5.4 3.8-13.6 7.8-18 3-3.2 4.6-3.4 6.9-.8zM221.3 265l3.8.5-2.6 3.5c-3.3 4.4-5.2 5.5-7.1 4-2.4-2.1-1.5-10.8 1-9.3.6.4 2.8 1 4.9 1.3z"/><path d="M269.1 239.9c-.7.5-1.1 1.9-.9 3.2.4 3.3 5.2 3.5 5.6.2.4-2.5-2.7-4.6-4.7-3.4zM334.2 248.1c-1.8 1.2-5 5.1-7.1 8.8-3.5 6-3.8 7-3.2 11.6.5 4 1.1 5.2 3.3 6.5 2.5 1.4 3.1 1.3 6.4-.5 2-1.1 5.6-4.5 8.1-7.7 2.4-3.2 5.9-6.9 7.7-8.3 7.7-5.8 18.5-7 32.8-3.4 10.3 2.5 30.5 3.6 36.6 2 4.8-1.3 11.2-6.5 11.2-9 0-1-.7-.5-2 1.5-1.1 1.7-3.9 4-6.2 5-6.3 2.8-25 2.5-37.8-.6-13.4-3.3-22.8-3.2-30.2.3-5.4 2.7-7.9 5-16.1 15.1-3.1 3.8-4.4 4.7-6.5 4.4-2.2-.2-2.8-.9-3-3.4-.4-4.4 1.4-8.3 4.5-9.5 7.3-2.7 13-10.2 10.3-13.4-1.7-2.1-4.9-1.8-8.8.6zm7.5.5c.9 2.5-1.3 6.1-5.7 9-2.2 1.5-4.3 2.4-4.6 2.1-1.3-1.2 6.6-12.7 8.7-12.7.5 0 1.2.7 1.6 1.6zM63.7 263.5c.4 4.4 1 9.1 1.4 10.5 1 2.9 0-8.6-1.1-14.5-.6-2.6-.6-1.1-.3 4zM66.2 281.5c0 1.6.2 2.2.5 1.2.2-.9.2-2.3 0-3-.3-.6-.5.1-.5 1.8zM77 303.8c0 1.4.6 2.2 1.6 2.2 1.4 0 1.5-.3.3-1.8-.7-.9-1.5-1.9-1.6-2.1-.2-.2-.3.5-.3 1.7zM448 200.9c0 .5.5 1.3 1 1.6.6.3 1 .2 1-.4 0-.5-.4-1.3-1-1.6-.5-.3-1-.2-1 .4z"/></svg>