<?xml version="1.0" encoding="UTF-8"?> <svg xmlns="http://www.w3.org/2000/svg" xmlns:xlink="http://www.w3.org/1999/xlink" viewBox="0 0 300 113" shape-rendering="geometricPrecision"><symbol id="a" overflow="visible"><path d="m179.3125-184.875c.73828.375.92187.93359.54687 1.67188-.36718.74218-1.01171.92968-1.9375.5625-2.96875-1.48829-6.12109-2.55469-9.45312-3.20313-3.33594-.64453-6.67188-1.0625-10.01563-1.25-3.14843-.375-6.43359-.5625-9.85937-.5625-3.42969 0-6.90234.0937-10.42188.28125-7.79296.375-15.53124 1.02734-23.21874 1.95313-7.6875.92968-15.429692 2.03906-23.218755 3.32812-.179687.1875-.453125.28125-.828125.28125-1.304688.1875-2.507812.375-3.609375.5625-.929687.17969-1.855469.35938-2.78125.54688-.929687.1875-1.484375.28125-1.671875.28125-4.261719 5.1875-8.339844 11.12109-12.234375 17.79687-3.335937 5.74219-6.671875 12.73438-10.015625 20.98438-3.335938 8.25-6.015625 17.65624-8.046875 28.21874 0 .36719-.140625.6875-.421875.96875s-.328125.60547-.140625.96875c.1875 0 .367187.0469.546875.14063.1875.0937.46875.14062.84375.14062l.28125-.28125c2.039062-.92578 3.941406-1.75781 5.703125-2.5 1.757813-.73828 3.65625-1.28906 5.6875-1.65625.375 0 .882813-.0469 1.53125-.14062.644531-.0937 1.25-.14063 1.8125-.14063h1.671875c3.144531 0 4.992188.5586 5.546875 1.67188.5625 1.10547.84375 1.9375.84375 2.5-.1875.74219-.558594 1.48047-1.109375 2.21875-.375.55469-1.027344 1.0625-1.953125 1.53125-.929687.46094-2.226563.6875-3.890625.6875h-1.953125c-2.21875 0-4.445313-.13281-6.671875-.40625-2.21875-.28125-4.445312-.60938-6.671875-.98438-.367187.375-.640625.5625-.828125.5625-.375.1875-.75.375-1.125.5625-.367188.17969-.730469.35938-1.09375.54688-1.117188 6.85547-2.554688 15.105469-4.3125 24.75-1.761719 9.636719-3.851562 19.828125-6.265625 30.578125-2.40625 10.75-5.09375 21.546875-8.0625 32.390625-2.960937 10.835938-6.199219 20.925781-9.71875 30.28125-3.523437 9.363281-7.371094 17.519531-11.546875 24.46875-4.167969 6.957031-8.570312 11.914062-13.203125 14.875-1.476563.925781-3.5625 1.710938-6.25 2.359375-2.6875.65625-5.972656.425781-9.859375-.6875 0 0-.09375-.09375-.28125-.28125-2.96875-1.105469-5.144531-2.679687-6.53125-4.71875-1.394531-2.042969-2.367188-4.085937-2.921875-6.125-.738281-2.40625-1.019531-5-.84375-7.78125 0-.1875.04687-.375.140625-.5625.09375-.179687.04687-.453125-.140625-.828125.375-2.21875.703125-4.398438.984375-6.53125.273438-2.125.6875-4.304688 1.25-6.53125.554688-3.523438 1.199219-6.996094 1.9375-10.421875.742188-3.429687 1.574219-6.8125 2.5-10.15625 4.273438-14.082031 9.558594-27.515625 15.859375-40.296875 6.300781-12.789062 13.617187-24.75 21.953125-35.875 2.226562-2.769531 4.546875-5.5 6.953125-8.1875s4.816406-5.328125 7.234375-7.921875c2.957031-2.96875 6.101562-5.843755 9.4375-8.625005 0-.73828.09375-1.47656.28125-2.21875.1875-.75.328125-1.6289.421875-2.64062.09375-1.01953.320313-2.27344.6875-3.76563-2.40625-.55078-4.632813-1.14843-6.671875-1.79687-2.03125-.65625-4.164062-1.35156-6.390625-2.09375-4.261719-1.28906-8.339844-2.53906-12.234375-3.75-3.886719-1.20703-7.683594-2.26953-11.390625-3.1875-2.96875-.5625-5.976563-1.11719-9.03125-1.67188-3.0625-.5625-6.257813-1.02343-9.59375-1.39062-12.789063-1.48828-25.90625-1.76953-39.34375-.84375-13.4375.92969-26.175781 4.17187-38.21875 9.73437-6.113281 2.59375-11.675785 5.83985-16.687505 9.73438-2.03125 1.66797-4.0664 3.42969-6.10937 5.28125-2.03906 1.855469-3.80078 3.804688-5.28125 5.84375-1.11328 1.292969-2.36328 3.054688-3.75 5.28125-1.39453 2.21875-2.41406 4.492188-3.0625 6.8125-.64453 2.3125-.73438 4.445312-.26563 6.390625.46094 1.949219 2.07813 3.199219 4.85938 3.75.74219.367187.96875.921875.6875 1.671875-.28125.742188-.69531 1.015625-1.25.828125-1.47656-.375-2.82031-.882813-4.03125-1.53125-1.20703-.644531-2.08594-1.617187-2.64062-2.921875-.375-1.289062-.51563-2.582031-.42188-3.875.0937-1.300781.32813-2.601562.70313-3.90625 1.29296-5 3.56249-9.488281 6.81249-13.46875 3.24219-3.98828 6.8086-7.5625 10.70313-10.71875 5.1875-4.25781 10.70312-7.78125 16.546875-10.5625 5.835937-2.78125 11.808594-5.00391 17.921875-6.67188 13.15625-3.51953 26.226562-5.18749 39.203125-4.99999 12.96875.1875 25.851563 1.48437 38.640625 3.89062 6.851562 1.48047 13.660156 3.33594 20.421875 5.5625 6.769531 2.21875 13.675781 4.25781 20.71875 6.10937.925781-4.44531 2.222656-9.82031 3.890625-16.12499 1.664062-6.30079 3.703125-12.59766 6.109375-18.89063 2.414063-6.30078 5.101563-12.09375 8.0625-17.375 2.96875-5.28906 6.210937-9.23437 9.734375-11.82812-.742188 0-1.390625.0469-1.953125.14062-.554687.0937-1.199219.23438-1.9375.42188-2.59375.36718-5.101563.73437-7.515625 1.10937-2.40625.375-4.8125.65234-7.21875.82813-3.15625.375-6.171875.51562-9.046875.42187-2.867187-.0937-5.6875-.41406-8.46875-.96875-2.21875-.375-4.398437-1.11328-6.53125-2.21875-2.136719-1.11328-4.039063-2.69141-5.703125-4.73437-.367188-.55079-.179688-1.05469.5625-1.51563.738281-.46875 1.296875-.33203 1.671875.40625 1.289063 1.66797 2.953125 2.91797 4.984375 3.75 2.039062.83594 4.082031 1.4375 6.125 1.8125 2.414062.55469 4.828125.875 7.234375.96875 2.40625.0937 4.722656-.0469 6.953125-.42187 5.925781-.36329 11.664062-1.00782 17.21875-1.9375 5.5625-.92579 11.125-1.85157 16.6875-2.78125 8.707031-1.47657 17.320312-2.91016 25.84375-4.29688 8.53125-1.39453 17.24219-2.28125 26.14062-2.65625 7.78907-.1875 15.57813-.1875 23.35938 0 3.70703.375 7.41016.88672 11.10937 1.53125 3.70704.64844 7.14063 1.80469 10.29688 3.46875zm-144.5625 100.921875c.550781-4.632813 1.664062-9.269531 3.34375-13.90625-4.273438 3.710937-8.121094 7.511719-11.546875 11.40625-3.429687 3.886719-6.714844 7.964844-9.859375 12.234375-8.34375 11.304688-15.667969 23.351562-21.96875 36.140625-6.300781 12.78125-11.304688 26.402344-15.015625 40.859375-.925781 3.144531-1.710937 6.335938-2.359375 9.578125-.644531 3.25-1.335938 6.453125-2.078125 9.609375-.1875 2.21875-.460937 4.390625-.828125 6.515625-.375 2.132813-.5625 4.316406-.5625 6.546875-.1875 1.851562-.09375 3.796875.28125 5.828125.367188 2.039063 1.195312 3.800781 2.484375 5.28125.375.1875.609375.328125.703125.421875s.324219.234375.6875.421875c.375.363281.933594.773437 1.671875 1.234375.742187.46875 1.667969.75 2.78125.84375 1.117187.09375 2.371094-.140625 3.765625-.703125 1.386719-.554687 2.914062-1.75 4.578125-3.59375 0-.5625.09375-.84375.28125-.84375v-.28125c.367187-.367187.546875-.546875.546875-.546875v-.28125c.742188-.929688 1.484375-1.808594 2.234375-2.640625.742187-.835937 1.292969-1.714844 1.65625-2.640625 1.667969-2.59375 3.152344-5.007812 4.453125-7.234375 3.707031-6.304687 6.859375-12.882813 9.453125-19.734375 2.59375-6.855469 5.003906-13.894531 7.234375-21.125 2.21875-7.226562 4.160156-14.503906 5.828125-21.828125 1.664063-7.320313 3.425781-14.6875 5.28125-22.09375 1.300781-4.820313 2.503906-9.734375 3.609375-14.734375 1.113281-5.007812 2.226562-9.921875 3.34375-14.734375zm29.1875-28.640625c-1.855469.375-3.617188 1.12109-5.28125 2.23437.925781.17969 1.898438.26563 2.921875.26563 1.019531 0 1.992187.0937 2.921875.28125.925781 0 1.894531.0469 2.90625.14062 1.019531.0937 1.992188.0469 2.921875-.14062.75 0 1.445313-.13281 2.09375-.40625.644531-.28125 1.0625-.78906 1.25-1.53125.363281-.75.222656-1.21094-.421875-1.39063-.648438-.1875-1.339844-.28125-2.078125-.28125-1.117187-.1875-2.230469-.1875-3.34375 0-1.117187.1875-2.414063.46485-3.890625.82813zm0 0"></path></symbol><symbol id="b" overflow="visible"><path d="m184.03125-114.26563c0-.91406.41406-1.23437 1.25-.95312.83203.27344 1.06641.68359.70312 1.23437-1.48046 5.9375-4.72656 10.57422-9.73437 13.90625-2.40625 1.480474-5.09375 2.683599-8.0625 3.60938-2.96875.929688-5.93359 1.671875-8.89063 2.234375-6.11718.917969-12.37109 1.242187-18.76562.96875-6.39844-.28125-12.74609-.789063-19.04687-1.53125-3.71094-.375-7.32422-.882813-10.84375-1.53125-3.52344-.644531-7.04297-1.429687-10.5625-2.359375-3.898442-.925781-7.792974-1.85156-11.687505-2.78125-3.886719-.92578-7.773437-1.57813-11.65625-1.95313-3.898437-.36328-7.792969-.45312-11.6875-.26562-3.886719.17969-7.683594.82422-11.390625 1.9375-1.480469.375-2.824219.83984-4.03125 1.39062-1.210938.554692-2.460938 1.10938-3.75 1.67188-5.75 2.59375-10.292969 5.605469-13.625 9.03125-3.335938 3.429688-5.464844 5.792969-6.390625 7.09375-.1875 0-.28125.09375-.28125.28125h-.28125c-.1875.367188-.375.640625-.5625.828125-.179687.1875-.359375.464844-.546875.828125-1.480469 1.855469-2.917969 3.710938-4.3125 5.5625-1.386719 1.855469-2.824219 3.617188-4.3125 5.28125-.554688.5625-1.246094 1.214844-2.078125 1.953125-.835937.742187-1.714844 1.480469-2.640625 2.21875-.375.375-1.304688 1.117187-2.78125 2.21875-.742188.5625-1.855469 1.125-3.34375 1.6875-1.480469.554687-3.242188.828125-5.28125.828125-2.40625 0-4.535156-.601562-6.390625-1.8125-1.851563-1.207031-3.148437-3.15625-3.890625-5.84375-.738281-2.6875-.785156-6.066406-.140625-10.140625.648437-4.082031 2.359375-9.085937 5.140625-15.015625 2.417969-5.375 4.96875-9.58594 7.65625-12.64063 2.6875-3.0625 5.140625-5.33203 7.359375-6.8125 2.226563-1.48828 4.175781-2.41406 5.84375-2.78125 1.664063-.375 2.773437-.5625 3.328125-.5625h1.109375c.375.1875.882813.375 1.53125.5625.65625.1875 1.164063.46485 1.53125.82813 1.113281.55469 1.945313 1.57422 2.5 3.0625 1.300781 2.59375.835937 5.46484-1.390625 8.60937-.742188 1.49219-1.667969 2.88672-2.78125 4.187505-1.105469 1.292969-2.308594 2.585937-3.609375 3.875-5 4.085937-10.746094 6.960937-17.234375 8.625-.925781 2.042969-1.757812 4.40625-2.5 7.09375-.738281 2.6875-1.15625 5.1875-1.25 7.5s.277344 4.308594 1.109375 5.984375c.835937 1.667969 2.367187 2.5 4.59375 2.5 2.03125.179688 4.019531-.566406 5.96875-2.234375 1.945313-1.664063 3.382813-3.054687 4.3125-4.171875l1.671875-1.65625c1.476562-1.664062 2.910156-3.378906 4.296875-5.140625 1.394531-1.769531 2.832031-3.671875 4.3125-5.703125h.28125v-.28125c.375-.550781 1.160156-1.519531 2.359375-2.90625 1.207031-1.394531 2.691406-2.925781 4.453125-4.59375 1.757813-1.675781 3.703125-3.394531 5.828125-5.15625 2.132812-1.757812 4.40625-3.191406 6.8125-4.296875 4.269531-2.039065 8.671875-3.660155 13.203125-4.859375 4.539063-1.20703 9.222656-1.72266 14.046875-1.54688 7.039062.1875 13.941406 1.1211 20.703125 2.79688 6.769531 1.66797 13.582035 3.24219 20.437505 4.71875 3.33203.554688 6.71093 1.015625 10.14062 1.390625 3.4375.367187 6.91406.734375 10.4375 1.109375 3.33203.375 6.75781.609375 10.28125.703125 3.51953.08594 7.13281-.05469 10.84375-.421875 3.14453-.375 6.38281-.835938 9.71875-1.390625 3.34375-.5625 6.58594-1.582031 9.73437-3.062505 6.125-2.78125 10.20313-7.41406 12.23438-13.90625zm-182.078125 22.531255c-.1875.367187-.46875 1.105469-.84375 2.21875 4.257813-1.300781 8.523437-3.429687 12.796875-6.390625 1.476562-1.113281 2.769531-2.179688 3.875-3.203125 1.113281-1.019535 2.132812-2.269535 3.0625-3.750005.925781-1.30078 1.664062-2.6914 2.21875-4.17187.5625-1.47656.472656-2.86719-.265625-4.17188-.1875-.36328-.746094-1.05468-1.671875-2.07812-.929688-1.01953-2.320312-.88281-4.171875.40625-.554687.375-1.199219.93359-1.9375 1.67187-2.59375 2.23047-4.914063 5.01172-6.953125 8.34375-.929688 1.66797-1.902344 3.335942-2.921875 5.000005-1.023437 1.667969-1.996094 3.429687-2.921875 5.28125l-.265625.28125zm0 0"></path></symbol><symbol id="c" overflow="visible"><path d="m38.359375-108.14063c.375-.73828.929687-.875 1.671875-.40625.738281.46094.925781.96485.5625 1.51563-2.78125 4.82422-5.5625 9.554688-8.34375 14.1875-2.78125 4.625-5.65625 9.257812-8.625 13.890625-2.78125 4.636719-5.933594 9.273437-9.453125 13.90625-1.855469 2.960937-3.703125 5.554687-5.546875 7.78125-.929688.742187-1.996094 1.574219-3.203125 2.5-1.210937.929687-2.554687 1.761719-4.03125 2.5-1.4765625.742187-2.773437 1.109375-3.890625 1.109375-.1875 0-.28125.09375-.28125.28125h-.828125c-.738281 0-1.484375-.1875-2.234375-.5625l-.265625-.265625c-.1875 0-.28125-.09375-.28125-.28125h-.28125c-.1875-.1875-.28125-.328125-.28125-.421875s-.09375-.226562-.28125-.40625c-.363281-.375-.546875-.65625-.546875-.84375-.738281-1.476562-1.109375-3.050781-1.109375-4.71875-.1875-2.96875.042969-6.394531.6875-10.28125.648437-3.894531 1.433594-7.515625 2.359375-10.859375.929688-3.882813 2.042969-7.867187 3.34375-11.953125v-1.65625c.554688-2.039062 1.15625-4.171875 1.8125-6.390625.6484375-2.226565 1.429688-4.640625 2.359375-7.234375 5.1875-16.3125 9.957031-28.35937 14.3125-36.14062 4.351563-7.78125 7.921875-13.0625 10.703125-15.84375.925781-.92579 2.316406-1.94532 4.171875-3.0625 1.851563-1.11329 3.519531-1.11329 5 0 0 0 .1875.0937.5625.28125.738281.55468 1.242187 1.24609 1.515625 2.07812.28125.83594.515625 1.53125.703125 2.09375.375 2.40625.144531 4.67969-.6875 6.8125-.835937 2.125-1.714844 4.11719-2.640625 5.96875-2.230469 4.63672-5.011719 8.94922-8.34375 12.9375-3.335938 3.98047-7.042969 7.54297-11.125 10.6875-.929688 2.60547-1.808594 5.20312-2.640625 7.79687-.835937 2.59375-1.714844 5.1875-2.640625 7.78125-.367188 1.48047-.828125 3.05469-1.390625 4.71875-.929687 3.156255-1.855469 6.402349-2.78125 9.73438-.1875.1875-.28125.375-.28125.5625 0 0-.183594.554688-.546875 1.65625v.84375c-.1875.367188-.28125.640625-.28125.828125s-.09375.464844-.28125.828125c-.367188 1.117188-.6875 2.277344-.96875 3.484375-.28125 1.210937-.605469 2.554687-.96875 4.03125-.375.929687-.609375 1.902344-.703125 2.921875-.09375 1.023438-.324219 1.992188-.6875 2.90625-.1875 1.304688-.46875 2.882812-.84375 4.734375-.367187 1.855469-.59375 3.664063-.6875 5.421875-.09375 1.761719-.046875 3.292969.140625 4.59375.1875 1.292969.648438 2.03125 1.390625 2.21875.550781 0 1.054687-.140625 1.515625-.421875.46875-.28125.890625-.507813 1.265625-.6875 1.664063-1.488281 3.144531-3.066406 4.4375-4.734375 1.300781-1.664062 2.597656-3.425781 3.890625-5.28125 1.488281-2.039062 3.019531-4.21875 4.59375-6.53125 1.570312-2.3125 3.101562-4.582031 4.59375-6.8125 2.769531-4.632812 5.546875-9.265625 8.328125-13.890625 2.78125-4.632813 5.46875-9.269535 8.0625-13.906255zm-7.21875-47.54687c-2.042969 2.78125-4.179687 6.90625-6.40625 12.375-2.21875 5.46875-4.625 11.44922-7.21875 17.9375 2.96875-2.59375 5.65625-5.375 8.0625-8.34375s4.628906-6.21094 6.671875-9.73437c.925781-1.66407 1.757812-3.51563 2.5-5.54688.738281-2.03906 1.203125-4.17578 1.390625-6.40625v-.54687c0-1.30079-.234375-2.03907-.703125-2.21875-.460938-.1875-1.015625-.0937-1.671875.28125-.648437.36718-1.246094.82421-1.796875 1.375-.554688.55468-.828125.82812-.828125.82812zm0 0"></path></symbol><symbol id="d" overflow="visible"><path d="m51.703125-107.85938c.5625-.5625 1.164063-.65625 1.8125-.28125.644531.36719.785156.92188.421875 1.67188-2.59375 3.88672-5.609375 7.589844-9.046875 11.109375-3.429687 3.523437-7.273437 6.578125-11.53125 9.171875-.1875.375-.328125.703125-.421875.984375-.09375.273437-.230469.59375-.40625.96875-4.273438 7.59375-8.679688 13.0625-13.21875 16.40625-4.53125 3.335937-9.304688 5.09375-14.3125 5.28125h-1.109375c-3.148437 0-5.457031-1.019531-6.9375-3.0625-1.488281-2.039063-2.414063-4.585937-2.78125-7.640625-.375-3.0625-.375-6.351562 0-9.875.367187-3.519531.824219-6.851562 1.375-10l.28125-.28125c.1875-.738281.28125-1.382812.28125-1.9375 0-.5625.09375-1.117188.28125-1.671875.554687-2.414063 1.292969-4.734375 2.21875-6.953125.1875-.375.28125-.64844.28125-.82813 0-.1875.09375-.46875.28125-.84375 0 0 .089844-.1875.265625-.5625.1875-.92578.421875-1.71093.703125-2.35937.28125-.64453.601563-1.33594.96875-2.07813.375-.73828.65625-1.48437.84375-2.23437 1.476563 0 2.632813.42187 3.46875 1.26562.832031.83594 1.4375 1.80469 1.8125 2.90625 1.476563-2.03125 3.5625-4.4375 6.25-7.21875s5.976563-4.35937 9.875-4.73437c2.03125-.36328 3.878906-.082 5.546875.84375 3.15625 1.48047 5.472656 3.88672 6.953125 7.21875 1.488281 3.33594 2.046875 7.13672 1.671875 11.40625 0 2.21875-.371094 4.8125-1.109375 7.78125-.375.367188-.609375.828125-.703125 1.390625-.09375.554687-.324219 1.109375-.6875 1.671875 3.519531-2.414062 6.625-5.101562 9.3125-8.0625 2.6875-2.96875 5.140625-6.11719 7.359375-9.45313zm-31.96875 27.51563c0-.363281.09375-.546875.28125-.546875-2.40625.367187-4.867187.59375-7.375.6875-2.5.09375-4.765625-.414063-6.796875-1.53125-.929688-.550781-1.765625-1.289063-2.515625-2.21875-.742187-.925781-1.292969-1.945313-1.65625-3.0625-2.039063 5.929687-2.921875 11.117187-2.640625 15.5625.273438 4.449219 1.984375 6.671875 5.140625 6.671875 2.40625 0 5-1.570312 7.78125-4.71875 2.78125-3.144531 5.375-6.757812 7.78125-10.84375zm6.390625-14.453125c.75-2.226563 1.304688-4.960937 1.671875-8.203125.375-3.23828.328125-6.10938-.140625-8.60938-.460938-2.50781-1.433594-4.3164-2.921875-5.42187-1.480469-1.11328-3.792969-.74219-6.9375 1.10937-.375.1875-1.859375 1.35157-4.453125 3.48438-2.59375 2.125-4.542969 5.04297-5.84375 8.75-.367188 1.48047-.734375 2.82422-1.109375 4.03125-.367187 1.199219-.546875 1.890625-.546875 2.078125-.375.742187-.65625 1.484375-.84375 2.234375-.1875.742188-.464844 1.386719-.828125 1.9375-.554687 2.21875-.648437 3.980469-.28125 5.28125.738281 2.78125 2.59375 4.449219 5.5625 5 1.851563.375 3.84375.46875 5.96875.28125 2.132813-.1875 4.222656-.554688 6.265625-1.109375 1.476562-2.78125 2.492188-5.191406 3.046875-7.234375.1875-.550781.421875-1.054688.703125-1.515625.28125-.46875.507812-.890625.6875-1.265625zm0 0"></path></symbol><symbol id="e" overflow="visible"><path d="m45.03125-105.35938c.375-.73828.882812-.875 1.53125-.40625.644531.46094.785156.96485.421875 1.51563-2.59375 3.71094-5.148437 7.511719-7.65625 11.40625-2.5 3.886719-5.046875 7.777344-7.640625 11.671875-1.292969 1.855469-2.449219 3.664063-3.46875 5.421875-1.023438 1.761719-2.089844 3.570312-3.203125 5.421875-2.03125 2.78125-4.070313 5.375-6.109375 7.78125-.5625.367187-1.585938.96875-3.0625 1.8125-1.480469.835937-2.964844.507813-4.453125-.984375v-.28125h-.265625c-.375-.363281-.65625-.726562-.84375-1.09375-.179688-.375-.359375-.75-.546875-1.125v-.828125c-.375-2.226563-.195313-4.5.546875-6.8125.738281-2.320313 1.570312-4.5 2.5-6.53125.925781-2.414063 1.664062-4.875 2.21875-7.375.5625-2.5 1.304688-4.953125 2.234375-7.359375 1.300781-3.707031 2.503906-7.27344 3.609375-10.70313 1.113281-3.42578 2.410156-6.99218 3.890625-10.70312-1.480469 1.66797-2.960937 3.24219-4.4375 4.71875-1.492187 1.30469-3.023437 2.51172-4.59375 3.625-1.574219 1.10547-3.382813 1.9375-5.421875 2.5-1.480469.55469-2.871094.82812-4.171875.82812-1.480469 0-2.683594-.27343-3.609375-.82812-.929688-.5625-1.761719-1.02344-2.5-1.39063-1.851562-2.03906-2.914062-4.3125-3.1875-6.8125-.28125-2.5-.238281-5.05078.125-7.65625.375-2.76953 1.027344-5.40625 1.953125-7.90625.929687-2.50781 1.851563-4.96874 2.78125-7.37499l1.671875-4.17188c.914062-1.85156 1.789062-3.24219 2.625-4.17187.84375-.92579 1.265625-1.48438 1.265625-1.67188 2.59375-2.21875 4.628906-2.91016 6.109375-2.07812 1.476562.83593 2.59375 1.80859 3.34375 2.92187.738281 0 1.289062 1.66797 1.65625 5v.28125c.1875 0 .28125.0937.28125.28125 0 2.03125-.234375 4.02344-.703125 5.96875-.460937 1.94922-1.058594 3.85156-1.796875 5.70312-.554688 1.85547-1.203125 3.66407-1.953125 5.42188-.742187 1.76172-1.574219 3.38281-2.5 4.85937-.1875.1875-.511719.69922-.96875 1.53125-.460937.83594-.96875 1.66797-1.53125 2.5-.554687.83594-1.0625 1.625-1.53125 2.375-.460937.74219-.6875 1.19922-.6875 1.375.925781 0 2.035156-.17968 3.328125-.54687.925781-.375 2.128906-.78906 3.609375-1.25 1.488281-.46875 3.160156-1.34766 5.015625-2.64063.738281-.5625 1.570312-1.16406 2.5-1.8125.925781-.64453 1.945312-1.42968 3.0625-2.35937l.546875-.5625c.1875 0 .375-.0937.5625-.28125 0 0 .09375-.0859.28125-.26563l.265625-.28125c.75-.5625 1.957031-1.39453 3.625-2.5 1.664062-1.11328 3.796875-1.20703 6.390625-.28125-1.667969 5.1875-3.382813 10.28907-5.140625 15.29688-1.761719 5-3.386719 10.09375-4.875 15.28125-.929688 2.40625-1.761719 4.820312-2.5 7.234375-.742188 2.40625-1.574219 4.8125-2.5 7.21875-.367188.929687-.6875 1.949219-.96875 3.0625-.28125 1.117187-.605469 2.320313-.96875 3.609375-.1875.375-.375.933594-.5625 1.671875-.375 1.480469-.5625 2.589844-.5625 3.328125.925781-1.101562 1.804688-2.257812 2.640625-3.46875.84375-1.207031 1.726563-2.457031 2.65625-3.75 1.289063-2.039062 2.492187-3.894531 3.609375-5.5625 1.113281-1.664062 2.222656-3.519531 3.328125-5.5625 2.59375-3.707031 5.09375-7.410156 7.5-11.109375 2.414063-3.707031 4.828125-7.414065 7.234375-11.125005zm-40.3125-4.45312c.375-.1875.835938-.69531 1.390625-1.53125.5625-.83203 1.117187-1.71094 1.671875-2.64063.738281-1.10156 1.390625-2.30468 1.953125-3.60937.925781-1.47656 1.757813-3.00391 2.5-4.57813.738281-1.58203 1.296875-3.20703 1.671875-4.875.925781-2.03906 1.617188-4.21874 2.078125-6.53124.46875-2.3125.421875-4.58204-.140625-6.8125 0-.375-.04687-.74219-.140625-1.10938-.09375-.375-.140625-.74219-.140625-1.10937-.179688 0-.265625.0898-.265625.26562-.929687 1.67969-1.8125 3.39844-2.65625 5.15625-.835937 1.76172-1.710937 3.57031-2.625 5.42188-.375.36718-.75 1.10546-1.125 2.21875-.179687.1875-.265625.46484-.265625.82812h-.28125c-1.304688 3.15625-2.1875 5.9375-2.65625 8.34375-.460938 2.40625-.78125 4.35547-.96875 5.84375-.179688 2.03125-.179688 3.60547 0 4.71875zm0 0"></path></symbol><symbol id="f" overflow="visible"><path d="m28.359375-107.59375c.550781-.91406 1.195313-1.14453 1.9375-.6875.738281.46094.925781.96875.5625 1.53125-2.59375 5.92969-5.1875 11.90625-7.78125 17.9375-2.59375 6.023438-5.746094 11.71875-9.453125 17.09375-.929688 1.292969-2.042969 2.820312-3.34375 4.578125-1.292969 1.761719-2.683594 3.105469-4.171875 4.03125-.929687.742187-2.085937 1.34375-3.46875 1.8125-1.386719.460937-2.914063.507813-4.59375.140625l-.265625-.28125c-.5625 0-1.023438-.1875-1.390625-.5625h-.28125c-2.039063-1.101562-3.289063-3.140625-3.75-6.109375-.46875-2.96875-.46875-6.070313 0-9.3125.460937-3.238281 1.105469-6.390625 1.9375-9.453125.835937-3.0625 1.53125-5.332031 2.09375-6.8125.554687-1.664062 1.015625-3.054688 1.390625-4.171875.367188-1.113281.734375-2.128906 1.109375-3.046875.367187-1.11328.6875-2.03906.96875-2.78125.28125-.75.601563-1.30469.96875-1.67188l1.953125-6.125c2.21875.375 3.976562 1.02735 5.28125 1.95313 1.113281.92969 1.851562 2.32031 2.21875 4.17187.375 1.85547-.179688 4.63672-1.65625 8.343755-.375 1.105469-.75 2.121094-1.125 3.046875-.367188.929688-.734375 1.855469-1.109375 2.78125-.367187.742188-1.058594 2.414062-2.078125 5.015625-1.023438 2.59375-1.949219 5.328125-2.78125 8.203125-.835938 2.867188-1.390625 5.640625-1.671875 8.328125s.0429688 4.402344.96875 5.140625v.28125h.28125c.738281.375 1.476563.375 2.21875 0 .75-.375 1.492187-.835938 2.234375-1.390625.363281-.363281.640625-.546875.828125-.546875 1.488281-1.675781 2.785156-3.394531 3.890625-5.15625 1.113281-1.757812 2.226562-3.378906 3.34375-4.859375 3.144531-5 5.828125-10.1875 8.046875-15.5625 2.226563-5.375 4.457031-10.660155 6.6875-15.859375zm-17.796875-8.60938c-2.59375 0-4.261719-1.01953-5-3.0625-.375-.73828-.46875-1.7539-.28125-3.04687v-.28125c.1875-1.48828.832031-2.78516 1.9375-3.89063 1.113281-1.11328 2.414062-1.67187 3.90625-1.67187 1.476562 0 2.863281.69922 4.15625 2.09375 1.300781 1.38672 1.953125 2.82031 1.953125 4.29687 0 1.85547-.652344 3.4336-1.953125 4.73438-1.292969 1.29297-2.679688 1.9375-4.15625 1.9375-.375 0-.75-.0469-1.125-.14063-.367188-.0937-.734375-.14062-1.109375-.14062h.84375c.1875 0 .460937-.27344.828125-.82813zm0 0"></path></symbol><symbol id="g" overflow="visible"><path d="m50.59375-105.64063c.375-.92578.835938-1.20312 1.390625-.82812.550781.36719.644531.73437.28125 1.10937-2.40625 5.375005-4.820313 10.60938-7.234375 15.70313-2.40625 5.09375-5.183594 10.054688-8.328125 14.875-.75 1.117188-1.730469 2.460938-2.9375 4.03125-1.199219 1.574219-2.539063 2.917969-4.015625 4.03125-.929688.375-2.136719.792969-3.625 1.25-1.480469.460938-3.148438.136719-5-.96875-1.667969-.738281-2.964844-2.359375-3.890625-4.859375-.929687-2.507813-.652344-6.546875.828125-12.109375-2.59375 3.710938-6.023438 7.371094-10.28125 10.984375-4.261719 3.617187-8.289062 6.167969-12.09375 7.65625-3.800781 1.480469-6.71875 1.292969-8.75-.5625-2.039062-1.851563-2.226562-6.394531-.5625-13.625 2.230469-10.1875 5.84375-18.015625 10.84375-23.484375s9.816406-9.41016 14.453125-11.82813c.738281-.17578 2.640625-.91015 5.703125-2.20312 3.0625-1.30078 5.976562-1.76953 8.75-1.40625 1.675781.375 2.421875 1.30469 2.234375 2.78125-.1875-.1875-.46875-.28125-.84375-.28125-.742187 0-1.386719-.0859-1.9375-.26563-3.15625-.375-5.804687-.0508-7.9375.96875-2.125 1.02344-3.652344 1.90235-4.578125 2.64063-3.148438 2.40625-6.15625 6.07031-9.03125 10.98437-2.875 4.906255-5.515625 11.531255-7.921875 19.875005-1.476563 4.8125-2.078125 8.195313-1.796875 10.140625.273438 1.949219 1.058594 2.921875 2.359375 2.921875 1.292969 0 2.953125-.738281 4.984375-2.21875 2.039062-1.488281 4.171875-3.296875 6.390625-5.421875 2.226563-2.132812 4.363281-4.359375 6.40625-6.671875 2.039063-2.320313 3.800781-4.316406 5.28125-5.984375 1.113281-2.78125 1.992187-5.140625 2.640625-7.078125.65625-1.945313 1.257812-3.664063 1.8125-5.156255.738281-1.47656 1.296875-2.77343 1.671875-3.89062l2.5-5c1.851563.1875 3.332031.74609 4.4375 1.67187.925781.92969 1.484375 2.22657 1.671875 3.89063.1875 1.66797-.460938 4.074219-1.9375 7.21875-.929688 2.042969-1.484375 3.621094-1.671875 4.734375-.375.929687-1.027344 2.507813-1.953125 4.734375-.929688 2.21875-1.808594 4.625-2.640625 7.21875-.835937 2.59375-1.484375 5.007812-1.953125 7.234375-.460938 2.21875-.226562 3.699219.703125 4.4375h.28125v.28125h.28125c.550781.375 1.195313.335937 1.9375-.125.75-.46875 1.398437-.890625 1.953125-1.265625l.828125-.828125c1.300781-1.113281 2.503906-2.457031 3.609375-4.03125 1.113281-1.582031 2.132812-3.113281 3.0625-4.59375 2.59375-4.257813 4.957031-8.613281 7.09375-13.0625 2.132812-4.445313 4.3125-8.988285 6.53125-13.625005zm0 0"></path></symbol><symbol id="h" overflow="visible"><path d="m51.984375-155.6875c.738281 0 .925781.46484.5625 1.39063 0 0-.09375.1875-.28125.5625-.742187 1.85546-1.992187 5.00781-3.75 9.45312-1.761719 4.44922-3.757813 9.54688-5.984375 15.29688-2.21875 5.74218-4.492188 11.80859-6.8125 18.20312-2.3125 6.39844-4.445312 12.558594-6.390625 18.484375-1.949219 5.929687-3.574219 11.210937-4.875 15.84375-1.292969 4.636719-1.84375 7.976563-1.65625 10.015625 2.039063-2.414062 3.800781-4.96875 5.28125-7.65625 1.476563-2.6875 3.144531-5.328125 5-7.921875 2.414063-4.257813 4.78125-8.332031 7.09375-12.21875 2.3125-3.894531 4.765625-7.882815 7.359375-11.968755.375-.73828.882812-.92187 1.53125-.54687.65625.36719.796875.92187.421875 1.67187-2.59375 4.26172-5.140625 8.386724-7.640625 12.375005-2.5 3.980469-4.960938 8.101563-7.375 12.359375-1.292969 2.230469-2.589844 4.414062-3.890625 6.546875-1.292969 2.125-2.683594 4.210937-4.171875 6.25-.742188.929687-1.945312 2.273437-3.609375 4.03125-1.667969 1.761719-3.335937 2.453125-5 2.078125-.929687-.375-1.53125-1.394531-1.8125-3.0625-.28125-1.664062.132813-4.628906 1.25-8.890625v-.28125c-.367187.375-.6875.796875-.96875 1.265625-.28125.460938-.605469.871094-.96875 1.234375l-4.171875 4.171875c-.375.375-.796875.703125-1.265625.984375-.460937.273437-.964844.59375-1.515625.96875-.929688.554687-2.136719 1.109375-3.625 1.671875-1.480469.554688-3.148438.828125-5 .828125-2.40625 0-4.535156-.597656-6.390625-1.796875-1.851563-1.207031-3.148437-3.109375-3.890625-5.703125-.738281-2.601563-.785156-5.941406-.140625-10.015625.648437-4.082031 2.265625-8.992188 4.859375-14.734375 2.59375-4.820313 5.046875-8.710935 7.359375-11.671875 2.320313-2.96875 4.597656-5.28516 6.828125-6.95313l.28125-.28125c.363281-.375.726562-.5625 1.09375-.5625.375 0 .75-.0859 1.125-.26562 3.144531-1.85156 5.875-2.5 8.1875-1.9375 2.320312.55469 3.765625 1.01172 4.328125 1.375.550781.375 1.054687.65625 1.515625.84375.46875.17969.882812.45312 1.25.82812 1.113281 1.29297 2.132812 2.58985 3.0625 3.89063.375-1.30078.742188-2.41406 1.109375-3.34375.375-.92578.742187-1.84766 1.109375-2.76563.375-.75.65625-1.58593.84375-2.51562 2.59375-7.03906 4.863281-13.52344 6.8125-19.45312 1.945312-5.92579 3.382812-10.00391 4.3125-12.23438.175781-.36328.359375-.64062.546875-.82812s.375-.46875.5625-.84375c.1875-.36329.367187-.64063.546875-.82813.738281-.73828 1.710938-1.52344 2.921875-2.35937 1.207031-.83204 2.550781-1.16016 4.03125-.98438zm-32.53125 75.90625c1.300781-3.519531 2.691406-7.78125 4.171875-12.78125 1.488281-5.007812 2.972656-9.64453 4.453125-13.90625-.375-.92578-.886719-1.89844-1.53125-2.92188-.648437-1.01953-1.339844-1.89843-2.078125-2.64062-1.492188-1.11328-2.605469-1.76563-3.34375-1.95313-.554688-.1875-1.292969-.28125-2.21875-.28125h-.28125c-.742188 0-1.203125.0937-1.390625.28125-.554687.375-.828125.5625-.828125.5625l-.5625.54688c-.1875.1875-.375.32812-.5625.42187-.179688.0937-.359375.23438-.546875.42188-1.304687 1.29297-2.464844 2.63672-3.484375 4.03125-1.011719 1.38672-2.074219 2.91406-3.1875 4.57812-1.117188 1.49219-2.136719 3.02344-3.0625 4.593755-.929688 1.574219-1.855469 3.382813-2.78125 5.421875v.28125c0 .179688-.046875.265625-.140625.265625-.085937 0-.125.09375-.125.28125-.375 1.117187-.75 2.042969-1.125 2.78125-.7421875 2.042969-1.523437 4.40625-2.359375 7.09375-.832031 2.6875-1.382812 5.28125-1.65625 7.78125-.28125 2.5-.097656 4.679687.546875 6.53125.648437 1.855469 2.179687 2.875 4.59375 3.0625 2.03125.1875 4.066406-.503906 6.109375-2.078125 2.039062-1.582031 3.523438-2.929688 4.453125-4.046875.363281-.363281.734375-.914063 1.109375-1.65625 1.113281-.925781 2.128906-1.992187 3.046875-3.203125.925781-1.207031 1.851563-2.363281 2.78125-3.46875zm0 0"></path></symbol><g fill="#211e1e" transform="translate(-185.68623 -358.36615)"><use height="100%" width="100%" x="315.68311" xlink:href="#a" y="548.38177"></use><g><use height="100%" width="100%" x="395.3858" xlink:href="#c" y="548.38177"></use><use height="100%" width="100%" x="430.93268" xlink:href="#d" y="548.38177"></use><use height="100%" width="100%" x="479.53189" xlink:href="#e" y="548.38177"></use><use height="100%" width="100%" x="523.68774" xlink:href="#f" y="548.38177"></use><use height="100%" width="100%" x="550.07019" xlink:href="#g" y="548.38177"></use><use fill="#000" height="100%" width="100%" x="597.55853" xlink:href="#h" y="548.38177"></use></g><use height="100%" width="100%" x="643.9361" xlink:href="#b" y="548.38177"></use></g></svg> 