<svg xmlns="http://www.w3.org/2000/svg" xmlns:xlink="http://www.w3.org/1999/xlink" shape-rendering="geometricPrecision" height="1016.013" width="1206.72" viewBox="0 0 905.043 762.007" xmlns:v="https://vecta.io/nano"><style><![CDATA[.B{overflow:visible}]]></style><symbol id="A" class="B"><path d="M179.3-184.88c.738.375.922.934.547 1.672-.367.742-1.012.93-1.937.563a36.58 36.58 0 0 0-9.453-3.203 74.8 74.8 0 0 0-10.016-1.25c-3.148-.375-6.434-.562-9.86-.562a195.82 195.82 0 0 0-10.422.281c-7.793.375-15.53 1.027-23.22 1.953s-15.43 2.04-23.22 3.328c-.18.188-.453.28-.828.28l-3.61.563-2.78.547c-.93.188-1.484.28-1.672.28-4.262 5.188-8.34 11.12-12.234 17.797-3.336 5.742-6.672 12.734-10.016 20.984-3.336 8.25-6.016 17.656-8.047 28.22 0 .367-.14.688-.422.97s-.328.605-.14.97c.188 0 .367.047.547.14.188.094.47.14.844.14l.28-.28 5.703-2.5c1.758-.738 3.656-1.29 5.687-1.656.375 0 .883-.047 1.53-.14a12.65 12.65 0 0 1 1.813-.141h1.672c3.144 0 4.992.56 5.547 1.672.563 1.106.844 1.938.844 2.5-.187.742-.56 1.48-1.11 2.22-.375.555-1.027 1.063-1.953 1.53-.93.46-2.227.688-3.89.688h-1.953a54.71 54.71 0 0 1-6.672-.406c-2.22-.28-4.445-.61-6.672-.984-.367.375-.64.563-.828.563l-2.22 1.11-4.312 24.75c-1.762 9.637-3.852 19.828-6.266 30.578a710.01 710.01 0 0 1-8.062 32.391c-2.96 10.836-6.2 20.926-9.72 30.28-3.523 9.363-7.37 17.52-11.547 24.47C7.078 42.4 2.676 47.347-1.957 50.308c-1.477.926-3.562 1.71-6.25 2.36-2.687.656-5.973.426-9.86-.687l-.28-.28c-2.97-1.105-5.145-2.68-6.53-4.72-1.395-2.043-2.367-4.086-2.922-6.125-.738-2.406-1.02-5-.844-7.78 0-.187.047-.375.14-.562.094-.18.047-.453-.14-.828.375-2.22.703-4.398.984-6.53a55.69 55.69 0 0 1 1.25-6.531 188.89 188.89 0 0 1 1.938-10.422c.742-3.43 1.574-6.812 2.5-10.156 4.273-14.082 9.56-27.516 15.86-40.297 6.3-12.79 13.617-24.75 21.953-35.875a202.48 202.48 0 0 1 6.953-8.187l7.234-7.922a138.32 138.32 0 0 1 9.438-8.625 9.02 9.02 0 0 1 .281-2.219c.188-.75.328-1.63.422-2.64.094-1.02.32-2.273.688-3.766-2.406-.55-4.633-1.148-6.672-1.797l-6.39-2.094-12.234-3.75c-3.887-1.207-7.684-2.27-11.39-3.187l-9.03-1.672a134.72 134.72 0 0 0-9.594-1.391c-12.79-1.488-25.906-1.77-39.344-.844s-26.176 4.172-38.22 9.734c-6.113 2.594-11.676 5.84-16.688 9.734a165.81 165.81 0 0 0-6.109 5.281c-2.04 1.856-3.8 3.805-5.28 5.844-1.113 1.293-2.363 3.055-3.75 5.28-1.394 2.22-2.414 4.492-3.062 6.813-.645 2.313-.734 4.445-.266 6.39.46 1.95 2.078 3.2 4.86 3.75.742.367.97.922.688 1.672-.28.742-.695 1.016-1.25.828-1.477-.375-2.82-.883-4.03-1.53s-2.086-1.617-2.64-2.922c-.375-1.29-.516-2.582-.422-3.875.094-1.3.328-2.602.703-3.906a34.83 34.83 0 0 1 6.813-13.469c3.242-3.988 6.81-7.562 10.703-10.72 5.188-4.258 10.703-7.78 16.547-10.562a107.15 107.15 0 0 1 17.922-6.672c13.156-3.52 26.227-5.188 39.203-5 12.97.188 25.852 1.484 38.64 3.89a201.01 201.01 0 0 1 20.422 5.563c6.77 2.22 13.676 4.258 20.72 6.11.926-4.445 2.223-9.82 3.89-16.125s3.703-12.598 6.11-18.89c2.414-6.3 5.102-12.094 8.063-17.375 2.97-5.29 6.21-9.234 9.734-11.828-.742 0-1.39.047-1.953.14a24.79 24.79 0 0 0-1.937.422l-7.516 1.11c-2.406.375-4.812.652-7.22.828-3.156.375-6.172.516-9.047.422-2.867-.094-5.687-.414-8.47-.97-2.22-.375-4.398-1.113-6.53-2.22-2.137-1.113-4.04-2.69-5.703-4.734-.367-.55-.18-1.055.563-1.516.738-.47 1.297-.332 1.672.406 1.29 1.668 2.953 2.918 4.984 3.75a30.77 30.77 0 0 0 6.125 1.813 39.04 39.04 0 0 0 7.234.969c2.406.094 4.723-.047 6.953-.422 5.926-.363 11.664-1.008 17.22-1.937l42.532-7.078c8.53-1.394 17.242-2.28 26.14-2.656 7.79-.187 15.578-.187 23.36 0 3.707.375 7.4.887 11.11 1.53 3.707.648 7.14 1.805 10.297 3.47zM34.75-83.96c.55-4.633 1.664-9.27 3.344-13.906-4.273 3.71-8.12 7.512-11.547 11.406-3.43 3.887-6.715 7.965-9.86 12.234C8.344-62.92 1.02-50.874-5.282-38.085c-6.3 12.78-11.305 26.402-15.016 40.86-.926 3.145-1.71 6.336-2.36 9.578a279.53 279.53 0 0 1-2.078 9.609c-.187 2.22-.46 4.39-.828 6.516-.375 2.133-.562 4.316-.562 6.547-.187 1.852-.094 3.797.28 5.828.367 2.04 1.195 3.8 2.484 5.28.375.188.61.328.703.422s.324.234.688.422c.375.363.934.773 1.672 1.234.742.47 1.668.75 2.78.844s2.37-.14 3.766-.703c1.387-.555 2.914-1.75 4.578-3.594 0-.562.094-.844.28-.844v-.28l.547-.547v-.28a57.75 57.75 0 0 1 2.234-2.641c.742-.836 1.293-1.715 1.656-2.64 1.668-2.594 3.152-5.008 4.453-7.234 3.707-6.305 6.86-12.883 9.453-19.734S14.456-3.34 16.687-10.57a305.36 305.36 0 0 0 5.828-21.828l5.28-22.094a330.16 330.16 0 0 0 3.609-14.734L34.75-83.96zm29.188-28.64c-1.855.375-3.617 1.12-5.28 2.234.926.18 1.898.266 2.922.266a14.74 14.74 0 0 1 2.922.281c.926 0 1.894.047 2.906.14a10.05 10.05 0 0 0 2.922-.141c.75 0 1.445-.133 2.094-.406.645-.28 1.063-.79 1.25-1.53.363-.75.223-1.21-.422-1.39-.648-.187-1.34-.28-2.078-.28a10.01 10.01 0 0 0-3.344 0c-1.117.188-2.414.465-3.89.828z"/></symbol><symbol id="B" class="B"><path d="M184.03-114.27c0-.914.414-1.234 1.25-.953.832.273 1.066.684.703 1.234-1.48 5.938-4.727 10.574-9.734 13.906-2.406 1.48-5.094 2.684-8.062 3.61a79.36 79.36 0 0 1-8.891 2.234c-6.117.918-12.37 1.242-18.766.97a260.59 260.59 0 0 1-19.047-1.531 134.46 134.46 0 0 1-10.844-1.531c-3.523-.645-7.043-1.43-10.562-2.36l-11.688-2.78c-3.887-.926-7.773-1.578-11.656-1.953-3.898-.363-7.793-.453-11.688-.266a47 47 0 0 0-11.391 1.938c-1.48.375-2.824.84-4.03 1.39l-3.75 1.672c-5.75 2.594-10.293 5.606-13.625 9.03s-5.465 5.793-6.39 7.094c-.187 0-.28.094-.28.28h-.28c-.187.367-.375.64-.562.828-.18.188-.36.465-.547.828l-4.312 5.563c-1.387 1.856-2.824 3.617-4.312 5.28-.555.563-1.246 1.215-2.078 1.953a65.23 65.23 0 0 1-2.641 2.219c-.375.375-1.305 1.117-2.78 2.22-.742.563-1.856 1.125-3.344 1.688-1.48.555-3.242.828-5.28.828-2.406 0-4.535-.602-6.39-1.812s-3.148-3.156-3.89-5.844-.785-6.066-.14-10.14c.648-4.082 2.36-9.086 5.14-15.016 2.418-5.375 4.97-9.586 7.656-12.64 2.688-3.062 5.14-5.332 7.36-6.812 2.227-1.488 4.176-2.414 5.844-2.78 1.664-.375 2.773-.562 3.328-.562h1.11c.375.188.883.375 1.53.563.656.188 1.164.465 1.53.828 1.113.555 1.945 1.574 2.5 3.063 1.3 2.594.836 5.465-1.39 8.61-.742 1.492-1.668 2.887-2.78 4.188-1.105 1.293-2.31 2.586-3.61 3.875-5 4.086-10.746 6.96-17.234 8.625-.926 2.043-1.758 4.406-2.5 7.094s-1.156 5.188-1.25 7.5.277 4.31 1.11 5.984c.836 1.668 2.367 2.5 4.594 2.5 2.03.18 4.02-.566 5.97-2.234s3.383-3.055 4.313-4.172l1.672-1.656a113.75 113.75 0 0 0 4.297-5.141c1.395-1.77 2.832-3.672 4.313-5.703h.28v-.28c.375-.55 1.16-1.52 2.36-2.906 1.207-1.394 2.69-2.926 4.453-4.594 1.758-1.676 3.703-3.394 5.828-5.156 2.133-1.758 4.406-3.19 6.813-4.297a75.26 75.26 0 0 1 13.203-4.859c4.54-1.207 9.223-1.723 14.047-1.547a96.5 96.5 0 0 1 20.703 2.797l20.438 4.72c3.332.555 6.71 1.016 10.14 1.39l10.438 1.11a120.58 120.58 0 0 0 10.281.703c3.52.086 7.133-.055 10.844-.422a213.14 213.14 0 0 0 9.719-1.391c3.344-.562 6.586-1.582 9.734-3.062 6.125-2.78 10.203-7.414 12.234-13.906zM1.95-91.74c-.187.367-.47 1.106-.844 2.22 4.258-1.3 8.523-3.43 12.797-6.39 1.477-1.113 2.77-2.18 3.875-3.203 1.113-1.02 2.133-2.27 3.063-3.75a18.14 18.14 0 0 0 2.219-4.172c.563-1.477.473-2.867-.266-4.172-.187-.363-.746-1.055-1.672-2.078s-2.32-.883-4.172.406c-.555.375-1.2.934-1.937 1.672-2.594 2.23-4.914 5.012-6.953 8.344a140.46 140.46 0 0 1-2.922 5 69.71 69.71 0 0 0-2.922 5.281l-.266.28z"/></symbol><symbol id="C" class="B"><path d="M38.36-108.14c.375-.738.93-.875 1.672-.406.738.46.926.965.563 1.516L32.25-92.843l-8.625 13.89c-2.78 4.637-5.934 9.273-9.453 13.906-1.855 2.96-3.703 5.555-5.547 7.78l-3.203 2.5a24.83 24.83 0 0 1-4.031 2.5c-1.477.742-2.773 1.11-3.89 1.11-.187 0-.28.094-.28.28H-3.6c-.738 0-1.484-.187-2.234-.562l-.266-.266c-.187 0-.28-.094-.28-.28h-.28c-.187-.187-.28-.328-.28-.422s-.094-.227-.28-.406c-.363-.375-.547-.656-.547-.844-.738-1.477-1.11-3.05-1.11-4.72-.187-2.97.043-6.395.688-10.28.648-3.894 1.434-7.516 2.36-10.86.93-3.883 2.043-7.867 3.344-11.953v-1.656l1.813-6.39a125.5 125.5 0 0 1 2.359-7.234c5.188-16.312 9.957-28.36 14.312-36.14s7.922-13.062 10.703-15.844c.926-.926 2.316-1.945 4.172-3.062s3.52-1.113 5 0l.563.28c.738.555 1.242 1.246 1.516 2.078l.703 2.094c.375 2.406.145 4.68-.687 6.813-.836 2.125-1.715 4.117-2.64 5.97a62.11 62.11 0 0 1-8.344 12.938 71.08 71.08 0 0 1-11.125 10.688c-.93 2.606-1.81 5.203-2.64 7.797l-2.64 7.78a59.52 59.52 0 0 1-1.391 4.719L6.4-90.904c-.187.188-.28.375-.28.563l-.547 1.656v.844c-.187.367-.28.64-.28.828s-.094.465-.28.828c-.367 1.117-.687 2.277-.97 3.484l-.97 4.03a10.28 10.28 0 0 0-.703 2.922c-.094 1.023-.324 1.992-.687 2.906-.187 1.305-.47 2.883-.844 4.734C.46-66.252.234-64.443.14-62.685s-.047 3.293.14 4.594c.188 1.293.648 2.03 1.39 2.22a2.85 2.85 0 0 0 1.516-.422 15.48 15.48 0 0 1 1.266-.687c1.664-1.488 3.145-3.066 4.438-4.734 1.3-1.664 2.598-3.426 3.89-5.28 1.488-2.04 3.02-4.22 4.594-6.53l4.594-6.812 8.328-13.89 8.063-13.906zm-7.22-47.547c-2.043 2.78-4.18 6.906-6.406 12.375l-7.22 17.938c2.97-2.594 5.656-5.375 8.063-8.344s4.63-6.21 6.672-9.734c.926-1.664 1.758-3.516 2.5-5.547.738-2.04 1.203-4.176 1.39-6.406v-.547c0-1.3-.234-2.04-.703-2.22-.46-.187-1.016-.094-1.672.28-.648.367-1.246.824-1.797 1.375l-.828.828z"/></symbol><symbol id="D" class="B"><path d="M51.703-107.86c.563-.562 1.164-.656 1.813-.28.645.367.785.922.422 1.672-2.594 3.887-5.61 7.6-9.047 11.11-3.43 3.523-7.273 6.578-11.53 9.172-.187.375-.328.703-.422.984a10.04 10.04 0 0 1-.406.969c-4.273 7.594-8.68 13.062-13.22 16.406-4.53 3.336-9.305 5.094-14.312 5.28H3.89c-3.148 0-5.457-1.02-6.937-3.062-1.488-2.04-2.414-4.586-2.78-7.64-.375-3.062-.375-6.352 0-9.875.367-3.52.824-6.852 1.375-10l.28-.28c.188-.738.28-1.383.28-1.937a5.18 5.18 0 0 1 .281-1.672c.555-2.414 1.293-4.734 2.22-6.953.188-.375.28-.648.28-.828 0-.187.094-.47.28-.844l.266-.562c.188-.926.422-1.71.703-2.36a47.77 47.77 0 0 1 .969-2.078 10.62 10.62 0 0 0 .844-2.234c1.477 0 2.633.422 3.47 1.266a7.5 7.5 0 0 1 1.813 2.906c1.477-2.03 3.563-4.437 6.25-7.22s5.977-4.36 9.875-4.734c2.03-.363 3.88-.082 5.547.844 3.156 1.48 5.473 3.887 6.953 7.22 1.488 3.336 2.047 7.137 1.672 11.406 0 2.22-.37 4.813-1.11 7.78-.375.367-.61.828-.703 1.39-.094.555-.324 1.11-.687 1.672 3.52-2.414 6.625-5.102 9.313-8.062a80.47 80.47 0 0 0 7.359-9.453zm-31.97 27.516c0-.363.094-.547.28-.547a64.97 64.97 0 0 1-7.375.688c-2.5.094-4.766-.414-6.797-1.53-.93-.55-1.766-1.29-2.516-2.22a9.6 9.6 0 0 1-1.656-3.062C-.368-81.086-1.25-75.9-.97-71.454c.273 4.45 1.984 6.672 5.14 6.672 2.406 0 5-1.57 7.78-4.72s5.375-6.758 7.78-10.844zm6.39-14.453c.75-2.227 1.305-4.96 1.672-8.203.375-3.238.328-6.11-.14-8.61-.46-2.508-1.434-4.316-2.922-5.422-1.48-1.113-3.793-.742-6.937 1.11-.375.188-1.86 1.352-4.453 3.484-2.594 2.125-4.543 5.043-5.844 8.75-.367 1.48-.734 2.824-1.11 4.03-.367 1.2-.547 1.89-.547 2.078-.375.742-.656 1.484-.844 2.234-.187.742-.465 1.387-.828 1.938-.555 2.22-.648 3.98-.28 5.28.738 2.78 2.594 4.45 5.563 5 1.852.375 3.844.47 5.97.28 2.133-.187 4.223-.555 6.266-1.11 1.477-2.78 2.492-5.19 3.047-7.234.188-.55.422-1.055.703-1.516a15.48 15.48 0 0 0 .688-1.266z"/></symbol><symbol id="E" class="B"><path d="M45.03-105.36c.375-.738.883-.875 1.53-.406.645.46.785.965.422 1.516-2.594 3.71-5.148 7.512-7.656 11.406l-7.64 11.672c-1.293 1.856-2.45 3.664-3.47 5.422l-3.203 5.422c-2.03 2.78-4.07 5.375-6.11 7.78-.562.367-1.586.97-3.062 1.813-1.48.836-2.965.508-4.453-.984V-62h-.266c-.375-.363-.656-.727-.844-1.094l-.547-1.125v-.828c-.375-2.227-.195-4.5.547-6.812.738-2.32 1.57-4.5 2.5-6.53A52.09 52.09 0 0 0 15-85.766c.563-2.5 1.305-4.953 2.234-7.36l3.61-10.703c1.113-3.426 2.4-6.992 3.89-10.703-1.48 1.668-2.96 3.242-4.437 4.72a57.48 57.48 0 0 1-4.594 3.625c-1.574 1.106-3.383 1.938-5.422 2.5-1.48.555-2.87.828-4.172.828-1.48 0-2.684-.273-3.61-.828-.93-.562-1.762-1.023-2.5-1.39-1.852-2.04-2.914-4.312-3.187-6.812-.28-2.5-.238-5.05.125-7.656.375-2.77 1.027-5.406 1.953-7.906l2.78-7.375L3.343-139c.914-1.852 1.79-3.242 2.625-4.172.844-.926 1.266-1.484 1.266-1.672 2.594-2.22 4.63-2.9 6.11-2.078s2.594 1.81 3.344 2.922c.738 0 1.29 1.668 1.656 5v.28c.188 0 .28.094.28.28 0 2.03-.234 4.023-.703 5.97-.46 1.95-1.06 3.852-1.797 5.703a51.09 51.09 0 0 1-1.953 5.422c-.742 1.762-1.574 3.383-2.5 4.86-.187.188-.512.7-.97 1.53a32.34 32.34 0 0 1-1.531 2.5l-1.53 2.375c-.46.742-.687 1.2-.687 1.375.926 0 2.035-.18 3.328-.547.926-.375 2.13-.79 3.61-1.25 1.488-.47 3.16-1.348 5.016-2.64.738-.562 1.57-1.164 2.5-1.812a45.51 45.51 0 0 0 3.063-2.359l.547-.562c.188 0 .375-.094.563-.28 0 0 .094-.086.28-.266l.266-.28c.75-.562 1.957-1.394 3.625-2.5 1.664-1.113 3.797-1.207 6.39-.28L31-106.188c-1.762 5-3.387 10.094-4.875 15.28a106.47 106.47 0 0 0-2.5 7.234c-.742 2.406-1.574 4.813-2.5 7.22-.367.93-.687 1.95-.97 3.063a134.11 134.11 0 0 1-.969 3.609c-.187.375-.375.934-.562 1.672-.375 1.48-.562 2.6-.562 3.328.926-1.102 1.805-2.258 2.64-3.47L23.36-72l3.61-5.562c1.113-1.664 2.223-3.52 3.328-5.562a396.89 396.89 0 0 0 7.5-11.109l7.234-11.125zM4.72-109.813c.375-.187.836-.695 1.39-1.53a55.33 55.33 0 0 0 1.672-2.641c.738-1.102 1.39-2.305 1.953-3.61.926-1.477 1.758-3.004 2.5-4.578a23.9 23.9 0 0 0 1.672-4.875c.926-2.04 1.617-4.22 2.078-6.53.47-2.312.422-4.582-.14-6.812 0-.375-.047-.742-.14-1.11-.094-.375-.14-.742-.14-1.11a.23.23 0 0 0-.266.266c-.93 1.68-1.812 3.398-2.656 5.156l-2.625 5.422c-.375.367-.75 1.106-1.125 2.22-.18.188-.266.465-.266.828h-.28c-1.305 3.156-2.187 5.938-2.656 8.344-.46 2.406-.78 4.356-.97 5.844-.18 2.03-.18 3.606 0 4.72z"/></symbol><symbol id="F" class="B"><path d="M28.36-107.6c.55-.914 1.195-1.144 1.938-.687s.926.97.563 1.53l-7.78 17.938c-2.594 6.023-5.746 11.72-9.453 17.094l-3.344 4.578c-1.293 1.762-2.684 3.106-4.172 4.03-.93.742-2.086 1.344-3.47 1.813-1.387.46-2.914.508-4.594.14l-.266-.28c-.562 0-1.023-.187-1.39-.562h-.28c-2.04-1.102-3.29-3.14-3.75-6.11-.47-2.97-.47-6.07 0-9.312a77.9 77.9 0 0 1 1.938-9.453c.836-3.062 1.53-5.332 2.094-6.812l1.39-4.172a47.18 47.18 0 0 1 1.109-3.047c.367-1.113.688-2.04.97-2.78.28-.75.602-1.305.97-1.672l1.953-6.125c2.22.375 3.977 1.027 5.28 1.953 1.113.93 1.852 2.32 2.22 4.172.375 1.856-.18 4.637-1.656 8.344A56.42 56.42 0 0 1 7.5-93.964l-1.11 2.78c-.367.742-1.06 2.414-2.078 5.016-1.023 2.594-1.95 5.328-2.78 8.203-.836 2.867-1.39 5.64-1.672 8.328s.043 4.402.97 5.14v.28h.28c.738.375 1.477.375 2.22 0 .75-.375 1.492-.836 2.234-1.39.363-.363.64-.547.828-.547 1.488-1.676 2.785-3.394 3.89-5.156 1.113-1.758 2.227-3.38 3.344-4.86 3.144-5 5.828-10.188 8.047-15.562l6.688-15.86zm-17.797-8.61c-2.594 0-4.262-1.02-5-3.062-.375-.738-.47-1.754-.28-3.047v-.28c.188-1.488.832-2.785 1.938-3.89 1.113-1.113 2.414-1.672 3.906-1.672 1.477 0 2.863.7 4.156 2.094 1.3 1.387 1.953 2.82 1.953 4.297 0 1.856-.652 3.434-1.953 4.734-1.293 1.293-2.68 1.938-4.156 1.938-.375 0-.75-.047-1.125-.14-.367-.094-.734-.14-1.11-.14h.844c.188 0 .46-.273.828-.828z"/></symbol><symbol id="G" class="B"><path d="M50.594-105.64c.375-.926.836-1.203 1.39-.828.55.367.645.734.28 1.11L45.03-89.656c-2.406 5.094-5.184 10.055-8.328 14.875-.75 1.117-1.73 2.46-2.937 4.03-1.2 1.574-2.54 2.918-4.016 4.03-.93.375-2.137.793-3.625 1.25-1.48.46-3.148.137-5-.97-1.668-.738-2.965-2.36-3.89-4.86-.93-2.508-.652-6.547.828-12.11-2.594 3.71-6.023 7.37-10.28 10.984s-8.29 6.168-12.094 7.656c-3.8 1.48-6.72 1.293-8.75-.562-2.04-1.852-2.227-6.394-.562-13.625C-11.394-89.14-7.78-96.97-2.78-102.437s9.816-9.4 14.453-11.828c.738-.176 2.64-.9 5.703-2.203 3.063-1.3 5.977-1.77 8.75-1.406 1.676.375 2.422 1.305 2.234 2.78-.187-.187-.47-.28-.844-.28-.742 0-1.387-.086-1.937-.266-3.156-.375-5.805-.05-7.937.97-2.125 1.023-3.652 1.902-4.578 2.64-3.148 2.406-6.156 6.07-9.03 10.984C1.157-96.14-1.484-89.515-3.9-81.17c-1.477 4.813-2.078 8.195-1.797 10.14.273 1.95 1.06 2.922 2.36 2.922 1.293 0 2.953-.738 4.984-2.22 2.04-1.488 4.172-3.297 6.39-5.422 2.227-2.133 4.363-4.36 6.406-6.672l5.28-5.984c1.113-2.78 1.992-5.14 2.64-7.078l1.813-5.156c.738-1.477 1.297-2.773 1.672-3.89l2.5-5c1.852.188 3.332.746 4.438 1.672.926.93 1.484 2.227 1.672 3.89s-.46 4.074-1.937 7.22c-.93 2.043-1.484 3.62-1.672 4.734l-1.953 4.734c-.93 2.22-1.81 4.625-2.64 7.22s-1.484 5.008-1.953 7.234c-.46 2.22-.227 3.7.703 4.438h.28v.28h.28c.55.375 1.195.336 1.938-.125.75-.47 1.398-.89 1.953-1.266l.828-.828c1.3-1.113 2.504-2.457 3.61-4.03 1.113-1.582 2.133-3.113 3.063-4.594 2.594-4.258 4.957-8.613 7.094-13.062l6.53-13.625z"/></symbol><symbol id="H" class="B"><path d="M51.984-155.7c.738 0 .926.465.563 1.39l-.28.563-3.75 9.453-5.984 15.297-6.812 18.203-6.39 18.484c-1.95 5.93-3.574 11.21-4.875 15.844-1.293 4.637-1.844 7.977-1.656 10.016 2.04-2.414 3.8-4.97 5.28-7.656a79.03 79.03 0 0 1 5-7.922l7.094-12.22 7.36-11.97c.375-.738.883-.922 1.53-.547.656.367.797.922.422 1.672l-7.64 12.375a320.17 320.17 0 0 0-7.375 12.359l-3.89 6.547c-1.293 2.125-2.684 4.21-4.172 6.25-.742.93-1.945 2.273-3.61 4.03s-3.336 2.453-5 2.078c-.93-.375-1.53-1.395-1.812-3.063s.133-4.63 1.25-8.89v-.28c-.367.375-.687.797-.97 1.266a6.6 6.6 0 0 1-.969 1.234l-4.172 4.172a6.54 6.54 0 0 1-1.266.984c-.46.273-.965.594-1.516.97-.93.555-2.137 1.11-3.625 1.672-1.48.555-3.148.828-5 .828-2.406 0-4.535-.598-6.39-1.797-1.852-1.207-3.148-3.11-3.89-5.703-.738-2.602-.785-5.94-.14-10.016.648-4.082 2.266-8.992 4.86-14.734 2.594-4.82 5.047-8.71 7.36-11.672 2.32-2.97 4.598-5.285 6.828-6.953l.28-.28c.363-.375.727-.562 1.094-.562.375 0 .75-.086 1.125-.266 3.144-1.852 5.875-2.5 8.187-1.937 2.32.555 3.766 1.012 4.328 1.375.55.375 1.055.656 1.516.844.47.18.883.453 1.25.828 1.113 1.293 2.133 2.6 3.063 3.89.375-1.3.742-2.414 1.11-3.344l1.11-2.766c.375-.75.656-1.586.844-2.516 2.594-7.04 4.863-13.523 6.813-19.453s3.383-10.004 4.313-12.234c.176-.363.36-.64.547-.828s.375-.47.563-.844c.188-.363.367-.64.547-.828.738-.738 1.71-1.523 2.922-2.36s2.55-1.16 4.03-.984zm-32.53 75.906c1.3-3.52 2.69-7.78 4.172-12.78 1.488-5.008 2.973-9.644 4.453-13.906-.375-.926-.887-1.898-1.53-2.922s-1.34-1.898-2.078-2.64c-1.492-1.113-2.605-1.766-3.344-1.953-.555-.187-1.293-.28-2.22-.28h-.28c-.742 0-1.203.094-1.39.28l-.828.563-.562.547c-.187.188-.375.328-.562.422a2.29 2.29 0 0 0-.547.422c-1.305 1.293-2.465 2.637-3.484 4.03-1.012 1.387-2.074 2.914-3.187 4.578A50.18 50.18 0 0 0 5-98.83c-.93 1.574-1.856 3.383-2.78 5.422v.28c0 .18-.047.266-.14.266-.086 0-.125.094-.125.28-.375 1.117-.75 2.043-1.125 2.78-.742 2.043-1.523 4.406-2.36 7.094s-1.383 5.28-1.656 7.78c-.28 2.5-.098 4.68.547 6.53s2.18 2.875 4.594 3.063c2.03.188 4.066-.504 6.11-2.078 2.04-1.582 3.523-2.93 4.453-4.047.363-.363.734-.914 1.11-1.656 1.113-.926 2.13-1.992 3.047-3.203.926-1.207 1.852-2.363 2.78-3.47z"/></symbol><g transform="translate(-47.476 -68.617)"><path d="M480.32 68.617c-10.494-.074-18.908 7.44-26.82 13.393-7.874 5.25-18.623 3.813-27.262 7.565-15.216 4.428-30.46 9.312-45.516 14.362-9.88 3.507-19.9 6.77-28.862 12.12-9.55 3.748-17.952 9.626-26.466 15.194-6.358 5.146-8.948 7.04-15.436 11.44-6.935 5.227-15.148 9.096-21.184 15.266-14.347 7.386-25.686 19.764-37.18 30.997 3.925.853-5.238 1.78-5.936 6.246-8.256 9.575-15.855 20.026-25.273 28.403-9.208 5.923-17.727 12.778-24.4 21.023-2.27-4.776 6.813-16.776-1.3-18.222.716 3.307-.32 5.545-4.31 7.8 1.75 5.35-.516 11.22 2.75 14.22-2.1 4.83-7.123 8.432-2.622 1.434 3.535-10.49-4.265 6.9-5.703 3.88-.924-5.252-5.192-18.423.582-20.098 1.313 6.967 5.46 3.103 2.91-1.317 9.213-5.21 11.426-16.094 16.867-24.697 3.035-3.18 10.708-13.408 1.524-11.373-4.566.88-10.97 10.198-12.77 6.977 4.885-3.698 2.553-13.472 6.127-13.318 5.655-6.166 15.26-6.373 20.42-14.44 2.192-3.71-.723-1.742 1.502-1.973 3.687-5.63 6.895-11.948 5.837-18.856-.26-9.04-3.357-18.562.563-26.416 4.217-10.657-8.058 5.403-7.067 10.11-2.067 9.492-11.407 12.78-16.61 19.397-7.845 7.4 7.912 19.914-1.877 24.43-3.492 7.757-11.414-3.275-13.46-8.447-.024-3.487 6.52-15.442-1.572-8.418-5.37 6.895-2.802 15.715-5.186 23.3-3.648 7.754-4.583 15.986 2.2 21.892-3.922-2.268-11.272.457-8.444 7.327 1.422-.774 6.776-7.687 4.73-1.473-2.642 4.5-6.656 14.556-1.902 13.284-2.073 5.385 2.115 17.36-5.48 10.353-1.385-4.852-12.343-15.962-3.025-16.434 3.047-6.12-9.488.065-4.48-5.667.04-.098 3.623-12.083-.134-17.06-2.11-7.23-4.443-14.606-9.52-20.267-4.336-9.135-7.3 12.485-7.452 16.824-1.077 5.658 11.593 13.23 7.536 15.928-8.984-1.978-19.382-.838-27.445 3.574-13.776 6.404 6.62 19.187 14.077 11.04 3.112 2.223 8.25 12.925.35 14.512-3.117 4.415 7.27 14.156-1.774 8.084-6.638-5.973-16.753-7.7-23.155-10.182-1.344-6.707-7.73-6.144-3.44 1.087 1.702 5.153 9.034 6.28-.44 6.464-7.93 4.676 3.115 14.5 9.38 15.734 5.447 2.328 10.32 1.44 13.178 7.534 10.567-3.52 9.47 25.01.416 10.06-4.355-1.98-22.437-.968-18.48 7.202 3.447 9.184 10.602 15.845 19.535 15.59 6.755-5.355 12.982 7.5 21.236 7.483 14.062 5.218 4.998 20.685 2.215 30.556-4.464 13.275-7.32 27.092-10.64 40.703-1.252 10.26-3.722 20.28-7.594 29.86-1.52 9.51-4.637 18.886-7.62 28.087-7.813-7.55 3.905-16.134-.477-23.566-3.808 4.72-10.177 14.965-8.62 19.527-3.423-1.706-3.07 19.862-7.002 18.563-6.703-6.305-14.238-14.32-8.116-23.46 3.274-.538 6.65-10.9 1.916-5.464 4.905-7.108 15.982-5.515 19.806-13.68 3.938-8.174-13.338 3.457-6.194-5.926.76-8.763 9.12-5.935 13.562-11.688-1.568-4.045-1.742-12.144-6.957-4.323-6.03 10.342-3.338-14.995-10.542-6.17 6.843-.002 2.818 16.894 2.13 5.178-4.585-4.723.972 12.75-1.847 17.48-3.045 4.07-6.785 17.444-9.85 14.697.563-7.283-3.196-6.528-3.365-12.686-4.11-2.636-15.043-10.2-8.79-.283 2.954 3.207 8.76 13.766 2.132 5.96-2.423-4.223-10.027-10.223-5.3-1.824 4.157 9.336 11.485 17.065 7.836 27.887 1.43 8.937-11.94-3.83-13.048-8.32-.88-2.57-8.692-9.248-2.444-3.52.202-9.648-.196-19.326 2.844-28.093 7.047-3.6 7.444-17.487 6.174-20.2 3.237-7.442-2.674-10.9-6.658-2.974-5.05 6.422-.554 17.05-7.11 22.484 3.955 3.016-2.76 10.143-4.458 2.843-3.215-4.08-16.088-7.312-17.177-5.617.752 8.965 13.794 15.895 14.125 21.395-9.115 3.176 6.468 11.162 4.626 7.794-5.51 9.27-10.534-12.118-18.913-12.935-7.863-1.002-10.355-11.5-17.24-13.012-1.467 11.348 4.257 20.758 13.086 27.816 4.562 3.346 27.05 3.885 14.974 10.53-5.7 2.71-19.577 16.465-10.53 19.138 4.39-5.117 15.01 1.015 19.683-7.17 9.993-9.51 19.27.674 27.066 7.43.883 4.848 13.784 11.885 7.5 13.836-7.258-6.746-15.428-3.313-22.462-9.862-6.146-4.88-24.426 2.305-15.208 9.43 4.795 5.247 10.257 10 16.047 2.573 9.195-3.48 21.434-2.012 25.594 8.115.212 5.413 4.825 12.687 2.073 14.467 4.9 7.544 7.33 17.62 16.36 21.955 8.74 3.452-7.696-4.766 2.68-2.528 6.963 2.9 2.186 9.18 7.65 12.997.75 10.173 5 19.688 6.674 29.8-.084 5.312 7.103 17.258 3.547 17.43-2.94-2.67-1.452-10.64-6.53-5.5-5.046-4.188-6.3-11.796-12.384-16.03-6.312-1.062-7.687-19.183-10.344-7.77-1.355 3.52-.45 14.033-5.574 7.53 1.857-8.966-6.222-16.515-3.613-25.564 4.358-6.045-6.444-20.208-9.907-11.482 2.152 3.544 8.215 20.333-.183 12.138-7.907-8.133-3.27-23.443-8.34-29.344-6-4.366-3.64 11.11-2.067 5.98-1.614 9.018-22.193-5.677-13.846 7.302-2 5.998 7.074 15.555 13.935 20.377-4.325-1.3-20.286-8.31-9.493-1.927 4.735.854 17.855 12.603 6.136 7.606-4.36-1.116-12.482-2.695-10.38 3.33-15.66.957-3.257 20.522 6.403 17.902.287-3.983-10.87-2.528-10.406-10.438 4.582.296 18.76-4.378 17.9 1.452-3.068 2.784-14.025 11.145-3.4 7.797 3.832-1.846 10.502-10.57 8.788-10.04.815 3.883 13.76 11.1 2.38 13.03-3.528.56-3.5 6.184.69 3.595.416 8.615-20.722 6.107-9.406 13.288 5.732 1.005 5.985-7.135 12.472-5.606-5.71-4.216 3.77 3.056 2.042-3.164 2.19 5.412 11.447-9.873 17.778-2.71 3.66 1.4 14.863 1.34 4.7 2.65-9.753-.526-12.83 10.064-16.78 16.878-3.436 6.76 6.328 4.305 7.3-.898 8.128-2.653 16.63-6.876 25.4-5.258 5.213-4.724 4.837-1.694 8.872 3.057 7.03 8.746 12.975 18.4 17.195 28.872 4.923 9.107 4.685 23.422 14.8 28.262 3.44 2.626 9.97 20.048 1.38 13.214-4.922-3.53-7.617-3.992-12.75-7.99 1.1-4.954-1.674-20.102-8.66-12.268-3.452 8.138 15.782 16.05 4.396 19.42-2.908-6.843-14.627-18.6-6.698-5.078 4.866 5.062 2.352 10.746-2.934 3.943-2.446-3.84-9.83-12.945-3.81-13.59 5.09 7.024 9.19-6.282-.1-4.828-2.952-4.294-10.96 4.902-10.296-5.087-5.156-7.413 3.88-5.93 5.508.204.744-8.617-8.656-10.984-12.147-17.9-3.055-4.607-10.344-16.427-11.72-4.2-3.293 5.104 9.74 19.7-.643 11.58-5.7-2.056-20.367 3.653-18.022 12.22 4.98 2.63.44-6.926 7.574-5.27 4.96.676 10.242-9.542 10.865.03 1.498 4.3 10.325 10.288.885 7.07-4.76 2.525-19.346-7.47-15.14-.732 6.375 4.14 15.33 1.992 20.966 5.79-6.947.49-7.373 6.88-.376 1.68 5.09 1.19-6.243 4.07-4.538 5.118 8.092 3.843-8.208 16.25-11.366 7.525 3.617-3.008 15.742-7.265 10.157-8.796-2.665 2.713-19.492 7.355-8.607 13.847 8.325 2.48 12.675-3.673 15.792-9.898 9.37-6.198 14.328.865 19.22 8.456 5.034 1.24 11.507 8.727 2.363 9.083-4.536 8.103-18.653 6.288-18.66 17.194-3.04 6.29 4.906 18.574 7.587 7.02 7.413-2.315 11.15-11.115 20.664-9.756 8.782-1.127 12.838-10.412 22.5-7.034 8.84.06 17.592 4.333 23.78 10.362 4.533 6.467 12.142 12.725 14.77 19.323-.45 8.318-14.944-3.43-17.81-7.966-2.397-8.307 7.646 4.81 11.516 4.947 10.86 5.627-3.68-4.47-7.144-7.47-5.014-6.773-12.286-2.882-6.328 3.913.966 6.714 19.102 8.733 6.13 11.497-3.888 9.15-11.295-5.046-18.92-3.18-6.148-6.28-15.9-6.887-23.018-2.604-2.124 5.91.717 11.562 5.45 12.422.225 6.278 20.6 3.698 9.746 8.5-4.492 1.153-5.97 7.032-10.384 7.794-.785 8.97 11.703 24.047 16.723 9.232 3.882-7.78 9.697-13.552 15.274-21.015 7.822-5.72 4.127.112.14 3.793-2.747 7.16-8.39 16.282-6.896 23.314 11.68 5.957 6-17.56 15.216-19.8 11.13 2.84 10.65-12.084 15.006-13.72 3.515 1.732 19.17 8.164 7.455 5.876-4.862-1.702-12.53-3.26-3.73.354 10.995 1.15 17.432 9.068 25.275 15.865 8.67 7.243 15.835 16.286 26.642 20.672 10.325 7.936 21.392 14.72 32.656 21.22 7.44 6.958 16.502 12.067 24.973 17.776 15.68 9.303 30.86 19.78 48.1 26.11 12.8 5.19 26.025 9.38 39.914 10.156 11.804 1.68 23.2-2.035 34.516-4.635 4.148-.26 11.244 3.534 5.395-1.55 7.886 7.832 22.35 1.634 32.902 3.625 10.744-.346 21.74.385 32.06-3.165 12.718-2.67 25.424-5.874 38.554-5.38 10.205.858 20.025-1.64 30.018-3.126 9.946-2.06 17.75-3.81 25.794-7.446 8.422-8.43 19.28-13.35 31.102-15.274 10.76-4.08 20.055-11.11 30.455-15.98 5.808-6.616-4.81-.35-7.764.374-8.867 4.43-17.966 12.355-28.24 12.7 18.234-12.115 38.084-21.664 55.96-34.384 10.894-6.838 20.798-15.763 31.385-22.586.252 5.117-16.06 12.89-13.22 16.254-7.383 1.522-13.588 11.072-21.565 14.212-5.716 3.074-11.25 6.47-16.865 9.723 6.39 4.45 11.76-4.58 17.78-6.197 4.632-4.087 10.857-6.04 15.26-10.726 3.318-3.68 9.688-7.773 14.337-12.873 7.515-8.303 15.488-16.48 25.273-22.883 10.58-7.186 18.718-17.872 24.332-29.236 4.056-10.238 14.397-16.566 18.694-26.655 4.322-4.218 10.37-12.1 12.688-19.005 6-6.4 10.546-13.938 13.387-22.253 6.557-6.218 8.397-15.476 12.65-23.02 5.154-7.55 11.326-15.467 14.12-23.868 6.71-6.344 10.91-16.55 13.278-26.117 2.54-11.563-.308-23.434 1.355-35.05-2.375-9.78-2.063-19.624 1.873-28.97 1.977-9.99-2.15-19.965-1.89-30.067-.397-8.877-1.225-17.676-3.388-26.283.158-7.19-1.68-16.552.31-22.445.642-1.766.875 5.628 4.008 1.488-3.674-4.757-5.006-18.383-3.838-27.4-1.212-6.795 1.015-15.935 8.312-9.58 2.72 7.42 15.547 7.16 21.13 12.488 4.28-7.687 10.622 4.496 17.05-1.544 5.932 2.508 17.556 12.964 20.852 4.128.1-9.596-14.92-8.223-15.8-10.13 5.037-.37 6.794-5.43 12.37-5.292.138-4.462-9.645-9.016-3.047-2.85-6.69-11.182-18.302 4.757-26.13-.593-8.575-6.393 10.2 4.135 7.964-6.308 3.917-9.58-16.736-9.938-12.328.69-8.962 5.322-16.91-5.3-25.922-1.89 2.936-11.585 11.124 3.772 17.828-3.463 4.76-.904 8.45-11.417 1.544-4.71-3.484 6.006-17.765 2.98-8.237-2.416 3.217-2.897 17.213-7.234 15.6-4.025-5.46 3.257-2.293 5.06-2.91 6.24 4.578-6.517 13.514-6.97 19.09-11.106 4.88-10.135-13.262-1.685-19.016-4.433-4.554 1.973-18.978 11.964-10.2 3.797 1.277-3.71 4.834-8.014 9.198-11.837 3.084-5.083 7.117 3.076 9.73-4.36 7.724-3.423 17.81-5.425 17.9-15.398 3.5-6.48 9.88-11.193 12.548-18.007-1.106 5.773.17-10.233-4.753-1.83-8.705 7.42-17.864 14.298-25 23.292 1.4-5.094-9.188-16.447-6.816-5.687.07 10.71-5.644-11.05-11.152-2.043-2.414 9.348 6.012 20.185.164 28.12-8.344 11.05-3.148-9.76-10.738-13.605-11.143-8.55-6.997 15.12-8.212 21.766.623 6.34-3.95 18.173-5.538 6.054-2.697-8.635-7.125-17.357-9.282-25.668 1.693-2.976 8.01 5.36 6.555-1.835-8.096 1.855 1.008-11.163 3.79-14.692 5.617-2.807 13.094-2.69 15.03-9.778 10.1-1.502 16.168-12.395 15.854-22.423-3.996-6.734-10.34 4.676-14.2 4.47-10.786-9.59-9.802 8.617-16.785 12.408-1.723 3.98 6.432-2.417 3.23 5.177-1.014 5.3-12.728 17.256-8.763 5.458-1.064-7.634.326-15.575 2.94-22.732 5.51-4.797 18.305-13.285 9.483-21.176-4.165-3.376-7.754-10.15.727-7.03 8.703 3.565 13.628-1.12 17.57-8.993 6.385-1.196-1.33-6.495 4.726-4.44 4.5-7.668-8.073-6.673-11.92-3.23-7.376 3.372-4.035-7.837-10.23-1.694-3.795 3.504-12.306 3.19-5.892-2.2 2.168-6.26 8.992-18.14 2.928-18.566 2.576-.688 9.983-5.04 2.61-4.75-7.086 4.135-17.768-7.727-17.262-9.664 3.842.7 14.946 3.345 6.837-1.607-.2-.794-14.257-3.784-19.573 1.01 4.945-11.355.842-24.584 7.01-35.556-.483-4.404-11.696 1.843-13.49 4.708-5.68 9.184-.622 17.284.17 26.883 5.066 5.853-2.39 18.52-6.14 17.172-.576-7.417-8.593 2.017-5.494-6.566 4.46-2.965-.755-13.917 3.59-18.61-.798-6.93 5.377-6.6 4.633-15.222-2.8-3.677 4.6-12.94-2.75-6.825-10.705 6.805-1.68 18.03-6.686 27.206-.414 6.475.018 17.547-2.725 21.047-2.057-10.943-5.573-21.825-3.823-32.906 1.072-6.93 4.86-21.503.403-24.935-.103 4.287-.995-8.847-1.267-11.097.183-11.267-6.22 4.783-7.28 8.76-3.3 8.487-8.904 21.93 2.562 26.288-.104 3.267 5.34 12.527-1.523 6.387-3.207-10.927-16.972-11.65-21.686-20.348-8.476-3.5-1.345 13.333-4.174 7.595 2.047 8.162 2.43 20.723 14.172 17.022 1.82 5.806 5.316-3.803 9.27 2.347 7.112 5.397-10.483.89-8.602 7.026 4.13 4.253 11.7 11.2 8.694 15.6-3.564-8.836-13.054-11.21-15.652-20.788-2.572 1.995-8.925-.038-10.444 3.688-3.54 3.928-.76 16.14-5.33 5.71-4.124-8.158-11.873-14.527-18.194-21.655-5.242-4.785-9.468-6.22-15.42-9.67-3.013-6.287-11.523-9.096-13.672-15.227-8.096-5.57-13.9-13.588-22.725-18.29-5.134-2.446-14.622-9.41-24.267-7.94 2.63 4.18-5.984-6.196-7.288-8.66-8.334-13.146-24.536-17.485-39.032-19.9l-28.04-6.767c-4.61-.665-16.92-3.156-17.344-.387 2.827 1.638-8.022-3.962-11.206-3.785-4.55-2.457-9.334.93-7.613.35-1.682-3.246-7.468-1.937-10.908-3.232-11.64-.75-23.407-1.774-34.997-3.26-13.895-3.263-27.497-7.66-41.666-9.707-6.475-1.488-12.97-2.897-19.595-3.522zm399.46 129.87c4.476 3.95 11.073 4.966 14.52 7.238 2.758-6.846-11.01-9.395-14.52-7.238zm11.858 7.086c-.128-.094.033.097 0 0zm0 .028c-.068-.133-.058.03 0 0zM483.678 71.65c12.79 2.818 26.17 3 38.492 7.787-12.986-.825-25.927-.974-38.88.388-7.428 1.196-10.38-1.31-16.3-.997 10.7 2.503-19.26 6.526-5.652.833 6.268-5.264 14.034-7.62 22.34-8.01zm45.625 8.078c4.994 1 5.856 1.1 0 0zm-54.19 1.178l.475.63h-.005l-.47-.63zm39.658.884c2.747.336-2.98-.197 0 0zm6.427.397c.426 3.273.422 3.27 0 0zm-7.383.1c.277.268-1.58.48 0 0zm-39.64.19c1.508.54 1.503.543 0 0zm42.48.158c4.513 2.984 4.513 3 0 0zm-18.958.983c14.806.763-16.06 2.807-3.844.22l1.9-.155 1.943-.066zm8.525.823l-.273.606zm37.67.978c5.028.433 18.803 2.28 6.59 3.008-7.2-1.207-6.384 3.084.374 2.197 10.6-.86 21.19-1.316 31.6 1.317 5.028.193 10.2 1.883 2.542 4.232-11.34 5.07-24.373 2.74-35.247-2.552-5.344-1.712-3.536-6.783-11.942-4.558-4.946 2.77-9.216-5.23-13.13.04-6.508.33-21.46 1.74-22.786-1.848 9.204-2.54 12.993.06 23.628-1.468 6.054.442 12.267-.404 18.368-.37zm-38.472.077l-.356.14zm-5.522 1.178c.246-.002.354.78 0 0zm-31.24.42c.775.496.776.51 0 0zm19.297.237c12.356 1.445 24.576 6.164 37.266 4.29 5.076-.977 14.712 2.806 12.426 1.255l25.198 8.812c7.28 1.73 15.36.482 22.013-2.297.485.018 15.285-8.202 20.922.274 11.288 5.316 21.993 11.67 32.78 17.882 7.858.265 15.653 5.09 23.782 6.148 10.376 3.734 22.203 2.616 31.84 8.282 8.107 3.546 11.237 12.247 17.653 17.336 11.917 9.09 26.89 12.58 39.32 20.666 7.122 6.304 15.115 12.095 19.488 20.767 5.482 8.553 8.662 17.853 13.65 26.67 4.682 7.928-11 1.576-13.133-3.186-3.95-5.408-8.95-3.305-2.316.998 4.707 2.004 6.512 8.84-.528 6.948 2.04-8.463-14.54-5.775-13.842-16.17-3.227-5.772-6.514-11.917-11.337-16.53-10.046-5.628-11.87-20.62-25.38-20.426-9.125-2.755-8.894-17.168-17.37-18.965 6.058 6.758-.717-3.42-4.008 2.008-5.455 1.322-16.107-7.656-9.132 2.086 2.483 5.97 11.52 12.07 12.367 12.54-8.717 6.086-17.225 15.262-22.234 22.836-7.177 3.963 13.456 10.5 14.775 2.635 4.562-4.185 6.01-12.04 12.502-16.1 4.18-6.987 10.328-4.92 16.625-3.428 8.672 1.422 9.994 11.54 16.47 16.168 3.238 2.802 6.794 7.27-.147 5.83 1.683.718-9.917-2.655-13.806-2.266-5.823 1.063-4.564-4.476-7.26-3.87-7.99 6.038 10.16 8.533 14.317 10.554 3.42 4.612 8.043 11.27 11.715 12.66-8.387 3.217-19.292-2.892-26.586 2.098-2.754 5.706-9.554 5.08-12.815 7.378 6.603 8.55 14.952.502 21.974 5.917 6.636.88 13.695 1.087 18.36-.322 5.175.29 11.808 2.428 3.232 4.735-9.32-1.255-16.596 4.542-25.357 4.33-5.874 5.367-24.408-1.164-18.343 11.614 4.106 9.056 12.385 9.475 20.026 5.11 4.082-1.037 8.557-15.47 9.597-7.2-5.412 4.535-1.205 12.075 3.59 5 8.427-8.022 2.2 14.602 5.098 19.868 4.098-1.18 3.996-12.55 5.942-18.367-2.748-9.006 13.842-22.776 15.48-19.182-1.16 2.35-6.905 2.34-3.84 8.01-1.753 7.63-2.972 21.003 6.827 23.138 5.408-1.603-9.8-6.81-.7-9.193 11.045-3.135 5.444-13.454 7.59-21.066 7.68 2.776 17.873-4.982 23.514.1 4.222 5.803 15.08 21.373.92 18.585-3.115-3.314-12.72-10.193-9.69-.8-2.33 6.12 6.4 9.896 7.093 16.67 5.232-3.298 14.057 12.77 3.616 5.044-6.533-8.55-17.74-4.12-26.546-3.096-1.455-5.983-21.08-7.76-14.252.586 6.5 3.688 3.38 14.346 13.97 11.56 7.6 2.8 15.884.36 23.214-4.342 5.055 2.4 10.133-.11 7.87 5.087-.167 2.187-10.318 7.74-9.175 15.07-5.95 4.493-13.976 8.675-21.9 7.38-9.372-.303-16.184 5.486-25.07 6.944-4.945 3.964-20.32-.964-16.963 7.74 6.303.003-7.59 1.486-.66 4.816 6.546-2.13 13.078 9.943 18.744 4.134-4.52 4.75 14.5.343 3.195.184 5.55.05 8.01-7.162 15.17-6.814 7.837-7.62-11.577 4.224-4.41-5.847 4.753-4.244 18.688-6.3 15.195 4.526-1.065 6.548 9.248 18.633 11.69 10.974-5.224-8.724 5.802-17.906 8.21-26.645 1.393-3.69-4.277-7.313.842-11.683 3.8-5.757 17.185 5.785 17.868-6.42 1.35-1.823 5.723 3.188 8.87 1.842 7.088 3.676-9.672 7.915-9.7 13.73-3.355 2.63-13.843 7.744-4.496 8.527-2.6 7.268.736 18.915 10.47 15.27-8.925-7.286 9.268-9.54 5.175-17.303 3.415 8.25 8.292-8.205 12.252-11.585 3.715-6.214 7.052 3.957.216 4.327-5.034 5.878-2.188 5.038 1.828.387 9.23-2.8-4.596 7.162-5.977 8.57-3.372 3.916-4.096 13.68-1.227 12.898-2.954 3.125 5.43 4.9 6.097-.528 6.305-7.524-2.454 9.765 7.123 6.494 2.466 4.172 6.192-6.64 8.223 1.272 2.233 12.925-13.988-2.446-15.555 9.145 1.112 7.468 3.96 14.51 7.083 21.344-9.218-2.697-19.09-6.285-15.517-17.635.08-7.446-11.028-11.95-15.568-9.646-1.662 5.264 10.002 20.42-.152 13.594-2.64-7.203-6.94-14.558-11.016-20.987-6.352-2.158-13.424 8.742-6.8 9.752 1.023 6.602 14.793 10.614 12.073 14.725-8.24.532-17.306-.827-20.107 8.03-3.628.736-8.002 12.844-6.362 6.835-3.907 3.892-5.43 9.563-12.116 8.906-1.787 10.05 11.658.008 16.762.744 5.54-2.53 6.873-11.862 13.684-8.547 5.415-6.547 14.856-3.047 19.18-4.755 8.245-3.114 21.645 11.147 7.47 11.146-8.525 2.157-15.182 7.432-21.98 12.643-5.568 3.35-10.865 1.314-9.118 9.64-1.86 6.117-3.413 20.753 6.786 12.87 7.037-5.735 17.166-12.452 8.59-21.366.816-6.116 7.712-1.726 3.22 2.442 1.396 6.355 6.28-10.72 2.38-.114.64 1.48 4.147-5.57 5.967-7.6 3.028-6.137 15.295 8.897 22.46-.65 6.01-9.844 17.448-3.975 16.673 6.25-8.812-1.58-20.593.47-25.756 8.66-4.205 5.704-1.626 12.76-.38 17.338-8.228 4.51-5.92 20.02 1.03 22.59 9.207-5.238 12.083-15.4 4.5-23.325 4.01-9.46 11.486-16.824 22.01-11.82 7.705 3.87 10.334 17.88 8.818 26.53-.956 10.504-4.06 20.555-6.02 30.92 4.194.974 4.578-21.763 6.43-8.875 1.4 14.577.748 29.227 1.594 43.856-.587 7.094-.468 13.8-.918 20.935-.126 12.026-2.343 24.037-5.32 35.65-1.492 5.48-6.084 16.254-3.754 4.177 1.276-10.642 1.955-21.354 3.02-32.016-5.03 1.874-2.25 16.11-4.13 23.018-1.053 9.857-2.245 19.808-4.79 29.27-5.22 10.35-9.198 21.5-17.323 30.06-13.37 16.477-25.784 34.256-31.908 54.8-2.354 7.26-4.986 14.566-10.495 20.113-11.778 19.273-30.065 33.186-46.777 47.942-8.423 6.177-15.474 14.288-25.72 17.686-10.877 6.53-24.633 5.508-34.892 13.275-10.82 6.237-17 17.825-27.157 25-9.3 6.203-11.992 11.925-22.512 13.358-7.112 2.853-9.14.745-16.803 3.684-13.503 4.304-27.15 8.49-40.908 11.94-10.925 4.246-22.2 1.338-33.406.228-12.688-1.06-25.548-2.856-38.156-.012-10.583-1.175-20.137 5.965-30.685 3.436-12.217-.88-24.405-2.94-36.52-4.345-13.66-1.928-27.532-3.722-40.096-9.843-11.8-5.354-23.743-10.35-35.62-15.42-8.457-4.518-17.06-9.662-26.487-13-7.42-3.774-12.938-10.453-19.34-15.66-9.632-7.757-19.863-14.898-30.482-21.367-8.34-4.44-17.8-13.055-24.656-13.36 3.195 4.556 8.118 4.355 12.607 7.976 3.717 1.868 12.234 7.368 2.81 4.316-11.516-5.494-15.108-13.213-22.064-21.504-1.673-2.932-3.438-13.083-2.97-11.372 6.12-6.436 6.523-19.674 5.62-21.755 2.966-4.09.558-11.88 6.466-14.04 7.206-5.487 21.116-9.867 19.76-20.787-8.512-7.167-17.454 3.148-23.384 8.76.22-7.683-1.266-21.363-9.33-23.556-4.746 4.068-4.535 9.862-1.243 14.04-6.378 9.105 6.908 15.15 2.75 24.963-.125 12.87-10.63-.605-8.683-7.635.348-10.168-3.8-19.14-11.05-25.48 1.575-4.36.052-14.52-3.37-5.515-1.182 7.182-.423 22.67-11.857 15.026-3.613-.253-4.036-3.307-8.57-1.184-2.835-.495-8.96-7.857-8.634-1.77-5.638-3.306 3.886 16.908-3.176 5.088-1.167-8.682-7.33-29.16 6.53-29.178.448-8.775-2.318-18.42 3.766-26.584.145-6.078 10.967-17.806 9.515-5.275-1.43 12.155 16.245 6.457 20.812 2-2.23-8.394-7.73-16.574-17.574-14.688 2.233-6.397 7.84-5.15 9.874-11.52 3.487-5.732 8.798-12.866 2.566-18.9-2.71-5.11 1.986-21.26-2.993-17.764-4.264 10.298-6.508 21.133-8.622 32.024-.125 7.284-17.256 18.352-9.375 5.272-4.586-2.263-5.39 10.296-12.64 8.853-5.043 4.066-3.057-1.73-7.812-1.494.96-12.822 14.47-16.672 22.663-24.038 9.875-1.025 6.188-19.975 1.184-18.68-5.506 5.697-15.056 7.21-20.355 13.774-3.294 4.37-6.395 23.918-6.79 9.51-4.196-3.28 5.556-13.933-1.674-8.656-7.95 4.073 1.18-10.343 1.373-14.363 6.684-12.213-.654 11.038 1.972 13.77 3.33-4.013 3.196-9.69 2.887-16.724 1.23-5.247 4.234-9.92 6.27-14.91 3.11-3.716-3.474 21.145.97 9.707 3.367-12.14 6.258-24.563 4.45-37.22 2.425-7.813-3.625-21.373-9.46-9.002-6.346 8.983-14.3 19.81-8.5 31.247 5.76 13.496-4.58-17.884 2.49-8.122 5.544 5.777.86 13.616.422 18.175-2.186 5.07-7.05 15.59-8.373 4.26-2.735-8.21-9.37-15.508-14.576-21.61-8.978 4.087-6.075 15.66-4.113 22.848 5.78 5.745 10.904 11.9 14.784 19.428 1.695 5.922-8.368-3.074-5.806-7.326-5.743 10.18 7.9 9.628 8.347 18.598.367 1.285 2.006 12.617 6.023 14.756 1.303 6.968 5.197 14.337.73 20.97-5.162-5.368-6.828-15.28-9.6-19.83-9.68 1.918-6.555-11.76-10.473-18.19-2.674-13.075-9.852-24.772-11.477-38.106-3.516-5.35-1.55-15.484-5.778-19.138 1.673 9.213 3.422 18.38 3.338 27.757 5.715 15.014 12.613 29.852 15.366 45.8 2.223 6.067-3.634 12.578 3.408 16.367.052 6.63 3.164 13.665 1.95 20.027-5.2-10.637-8.605-21.587-13.222-31.54-3.855-10.687-4.725-21.793-8.172-32.486-2.5-9.175-2.524-17.81-6.145-24.862-.187-7.312-3.958-24.325-3.172-26.694.583-5.23.884-11.57.073-12.244.385-12.968-1.22-25.976 1.38-38.78.66-7.934 2.402-3.9 1.5.756-1.04 17.577-.017 35.198 3.362 52.504 1.463-9.32-2.45-20.832-2.2-31.09.142-10.4.008-20.89 1.18-31.206 1.72-5.656 4.944-13.67 12.556-16.486-1.433 6.805 4.378 19.837 11.452 15.87 1.897-9.318-4.598-19.18 1.136-27.967.73-6.667 22.186-6.625 11.605-11.1-10.814 4.745 4.837-15.492 2.254-3.247 5.023 4.532 9.56-3.578 11.982.933 3.596 3.555-2.883 10.256-.836 15.027-9.91-1.802-1.46 11.968-3.548 17.633 4.018 1.9 8.4 2.307 11.7 4.888 4.778-7.326 1.26-15.684-.333-23.41-2.73-7.757 3.022-16.686 9.343-7.76 5.83 5.963 9.722 18.574 20.18 17.82 3.195-3.797 9.085-9.832 9.327-1.084 8.935-3.062-.79-18.976-9.557-17.414-7.776-4.987-15.583-9.852-24.673-10.51-3.16-6.224-13.643 1.726-7.502-4.316 7.158-1.354 12.78-11.36 20.505-6.405 8.672 7.438 17.202-5.656 21.73-11.985 1.317-4.757-2.796-8.744 1.976-12.86-10.936.548-13.265 12.974-20.43 18.562-7.198 2.377-10.064-.848-16.36 3.97-.8-2.537 3.94-14.357-2.064-5.387.338 8.846-22.162 9.186-14.383 2.762 5.272-2.23 6.163-5.617.7-5.366 4.44 3.478 7.908-15.346 9.523-5.755 2.488-10.17 11.377-7.4 18.14-4.926 7.55-3.753 19.5-3.867 22.026-13.692-1.306-5.875 16.688-11.906 4.423-10.04-8.77 3.25-18.868 3.522-23.185 13.355-3.57 5.924-8.975 3.72-14.174 4.487-.258-4.232 3.664-14.342 13.712-15.054 8.78-2.52 16.682-6.584 26.072-5.912 11.925 1.443 13.274-11.207 11.725-20.33 2.244-7.955-3.943-8.22-6.652-1.4-6.996 6.515-11.345 15.244-21.374 14.426-4.294 2.974-19.15 8.945-9.43.497 4.907-11.594 19.735-14.093 26.1-24.664-.276-4.87 12.17-15.07 1.922-13.047-4.47 4.873-9.673 8.794-14.66 3.95-2.416 3.93-12.88 20.84-10.78 8.344 3.273-5.807-5.543-4.92-3.92-12.092-3.638-5.424-6.924 1.954-12.12 3.14-6.163 1.592 2.213 6.537 1.548 3.834.348 6.138 4.344 13.46 5.316 19.57-1.356 3.36-4.97-10.85-7.806-2.455 3.157 7.318-.582 14.414.15 21.232 4.474-.366 8.096-9.053 4.298-.502-8.232 3.548-1.52 20.516-14.412 20.603 1.3-7.22 7.173-16.876 7.465-21.86-6.796 6.895-8.634 17.32-10.938 26.447-2.84 12.77-2.787-7.183-.254-11.177 4.058-10.95 6.788-21.958 11.09-33 2.422-8.858 2.9-20.236-7.5-23.735-4.69.76-5.41-5.983-7.017 1.352.893 10.834 6.486 21.26 4.44 32.437.654 4.87-1.394 15.7-5.25 6.118-4.575-2.837-10.708-9.043-14.78-9.096-1.842 3.804-3.567 6.093-3.945 11.653-4.76 9.334 7.482 7.595 12.257 12.638 3.908 4.247 4.3 10.892 6.275 16.08.246 7.227-6.192 18.813-9.53 20.448-2.142-4.79 7.914-10.13 2.063-9.706 3.467-4.762 5.49-17.075-2.925-8.54-7.343 9.375 2.343-13.833-3.628-11.33.28 4.563-2.606 11.855-2.924 3.56-.05-7.867-12.136-5.403-7.068-13.842 1.103-11.057 3.64-22.192 10.2-31.375 10.29-18.524 21.502-36.566 30.774-55.625 4.506-11.858 11.62-22.99 22.584-29.81 13.212-9.875 26.264-19.95 38.158-31.407 10.206-8.334 17.538-19.37 26.685-28.757 8.006-8.836 18.744-13.877 29.39-18.85 10.653-4.36 21.625-8.683 33.167-9.83 10.052-3.435 20.406-6.152 30.32-10.046 9.31-2.83 22.74-10.767 26.947-13.404 5.806-1.75 14.156-7.66 15.056-7.52 14.345-3.578 28.832-7.176 43.73-6.933 1.775-.53 3.756-.476 5.564-.533zm377.37 434.42c5.12 3.144.372-12.752.08-2.807l-.08 2.807zm.16-5.614c4.54-9.656.583-22.04.37-32.71-2.497-7.824 4.318-19.248.323-24.51-1.336 8.337-3.612 16.728-2.16 25.093.296 10.727 1.87 21.365 1.467 32.126zm-275.27-428.52c1.748.832 1.75.838 0 0zm11.366 2.81c.41 4.437-2.892-.13 0 0zM447.8 91.724c-3.394.744-3.393.74 0 0zm144.78.922c1.288.106-.002.327 0 0zm26.49 1.48c4.246 1.067 17.065 1.543 15.555 4.314-2.444 2.338-20.367-3.945-15.555-4.314zm-201.32.444c-5.816 1.536-5.91 1.558 0 0zm9.423.898c-1.155 6.17-15.73 8.947-23.237 12.587-7.35 4.772-24.896 11.916-27.705 9.922 4.54-.925 14.377-8.53 5.046-4.56-12.454 5.787-25.277 11.456-38.87 13.718 2.03-2.78 15.03-8.03 21.632-10.755 8.15-2.173 19.214-7.17 24.14-3.863 7.87-3.76 13.383-5.158 21.264-8.247 5.222-4.146 13.11-5.044 17.73-8.802zm207.15.822c4.886.562 12.545 1.864 3 .38l-1.505-.19zm-28.597.184c4.967.574 9.904 2.507 10.75 2.45 14.005 4.99 27.818 10.582 41.686 15.982 4.73 3.055 17.57 6.834 17.137 9.52-22.033-3.268-42.787-12.312-61.875-23.58-2.242-2.02-5.955-2.013-7.697-4.372zm-190.05 1.105c2.57 1.864 3.3 2.015 0 0zm221.3 1.977c2.705.65 2.635.636 0 0zm-228.83.403c-2.724 3.433-16.167 4.24-15.26 6.656 1.71-2.97-13.955 3.352-5.03-1.605 6.842-1.232 13.553-3.22 20.3-5.05zm239.4.902c2.857 2.02 17.634 1.46 23.328 6.23 8.48 2.83 14.682 8.96 19.075 16.583-7.33-1.584-12.913-6.558-20.01-9.135-7.69-3.626-15.388-6.323-23.025-9.908-8.317-1.78-8.158-4.073-.63-3.275l.29.006.972-.502zm-248.5 3.44c3.04.98 1.567 2.418 0 0zm-15.533 3.273c-1.052 1.007-.888.662 0 0zm21.592.458c2.674.404 5.502.844 0 0zm-28.053.66l.427 1.566h-.002l-.425-1.566zm-8.57 5.3l-1.51.293 1.51-.293zm304.6 7l1.644.777-.002.002-1.642-.778zm-336.72 8.598c.248-.002-.043.963 0 0zm368.04 1.458c10.706 1.316 19.848 7.937 27.614 14.937-11.06-3.357 13.274 10.66.16 3.764-8.028-5.693-17.04-9.697-25.224-15.223-.922-1.14-7.9-3.47-2.55-3.478zm-369.05.784c.397-.004-.623 1.554 0 0zm-18.28 7.895c.544.273-1.2 2.598 0 0zm400.14 2.12c.253.96-1.09.287 0 0zm-3.27 2.46c4 1.29 4.002 1.31 0 0zm-494.4 1.153c8.47 2.652 1.303.08 0 0zm610.26.175c2.696 6.357 5.834 24.482-.133 24.08-3.568-5.15-4.502-9.706.687-14.416.372-5.62-8.718 5.412-4.632-1.94 1.423-2.48 1.796-5.85 4.078-7.724zm-609.22 2.058c1.708 6.56-12.752 14.183-9.605 17.16.255-8.512-4.402 8.63-4.067-1.964-1.337-7.273 13.973-13.498 10.964-14.446l1.314.277 1.394-1.028zm496.38 1.266c4.532.275 14.03 8.424 4.52 3.215-1.163-1.116-4.496-1.365-4.52-3.215zm-490.7.094l.28 2.25-.005-.002-.276-2.248zm502.85 3.447c1.51 1.398 1.508 1.418 0 0zm7.99.125c4.07 2.23 12.475 9.52 3.682 3.89-1.702-.78-2.388-2.666-3.682-3.89zm-35.852.756c7.742 4.274 7.214 15.124-2.576 9.853-6.07-2.572-9.13-9.183-.195-8.99l1.385-.43zm-474.07.216c-1.78 6.435-1.78 6.418 0 0zm598.9 2.898c-2.56 4.58-3.88 6.802 0 0zm-599.93 2.74c-1.352 3.16-1.354 3.174 0 0zm-4.052 1.714c4.106.86 4.1.86 0 0zm641.18 1.286c-4.114 2.564-3.708 14.178-1.67 3.855-3.11 8.348-1.132 17.752-4.62 25.964-1.125-6.337-2.833-12.687-.583-18.956 1.373-4.207-7.198-8.613 1.84-9.576l5.032-1.286zm-39.534.23l1.542.214zM709.385 165h.002l-.652 1.023.65-1.023zm-425.56.155c-3.043 8.497-14.39 12.943-19.82 20.7-2.275 2.982-16.25 16.095-7.973 5.708 7.933-6.8 12.818-15.07 21.027-21.34 2.11-1.935 4.14-3.825 6.765-5.066zm520.34.294c4.128 4.522 5.296 8.03 8.027 10.84-.063 7.744-5.13-2.598-7.397.73-.762-2.165-4.142-11.6-.63-11.57zm-589.16.18c-.103 5.558-4.768 14.868-4.352 4.052.553-1.82 1.873-4.83 4.352-4.052zm536.9 1.012l1.022.823zm95.08 1.152c2.43 3.28-3.934 7.926-.92.555zm-140.1.05c-4.814.46-5.603.543 0 0zm136.56.984c.334 5.174-2.517 10.448-1.508 1.84l.247-1.097zm-566.45.073c1.956-.493-8.318 2.73 0 0zm426.2 1.97c-3.063 7.372-15.663 10.996-14.766 21.07 2.7-5.727-8.928-2.546-2.047-7.64 5.462-4.384 10.555-10.396 16.813-13.43zm-430.12 1.67c-4.746 3.817-4.764 3.818 0 0zm541.6 1.614c6.413.62 12.876 13.388 1.948 7.973-3.575-1.507-3.004-4.915-1.948-7.973zm-5.727.234c-1.16 1.3 1.352 2.062 0 0zm-526.56.925c1.317 2.042 1.312 2.05 0 0zm-3.444.653c-2.535 3.287-12.788 13.85-12.553 11.605 3.828-4.098 7.8-8.6 12.553-11.605zm529.1 2.803c4.94 2.785 3.235 7.175-1.317 2.893-3.172-2.068.397-2.073 1.317-2.893zm-121.4.983l-.23.247zm-497.58.27c4.3.525 11.09 11.683 4.058 8.775-1.53-2.828-3.084-5.7-4.058-8.775zm577.9.12c2.128 2.467 2.1 2.454 0 0zm-80.812.073c-1.337.583-1.337.583 0 0zm86.606 2.26c4.95 3.233 2.424 1.477 0 0zm40.008 1.27c-.263 1.58-.31 1.568 0 0zm-120.32.105c-1.81 2.534-3.443 4.703 0 0zm76.89 1.16c-1.138 2.04-1.173 2.042 0 0zm-76.795.37c-.76 2.87-.762 2.87 0 0zm-537 .022c5.94 2.973 9.527 23.727-.232 15.467-3.705-4.6-1.73-10.554.232-15.467zm32.148.997c4.828 4.406-3.194 21.29-1.832 7.92.63-2.343-.016-6.555 1.832-7.92zm-2.47.863l-1.972 1.036v-.003l1.972-1.033zm6.066 1.994c4.522 7.957-4.21 5.13 0 0zm581.65.6c7.224 1.37 9.51 16.544 3.07 6.48-.86-2.158-2.917-4.182-3.07-6.48zm-611.82 1.666c2.465 2.202-.567.563 0 0zm.006 1.386c.37 2.086.348 2.094 0 0zm568.2.39c2.087.808 2.04.842 0 0zm56.172.292c-.39.807-.407.815 0 0zm18.03.047c14.704 3.143-11.135 4.513 0 0zm26.906.625c2.02 1.883 2.888 2.686 0 0zm-97.19.473c-.092.187-4.72 2.04 0 0zm-470.7.194c-1.794 1.008-1.796 1 0 0zm561.7.875c2.86.9 8.45 6.907 5.28 4.955-1.393 1.992-11.136-4.238-5.28-4.955zm-91.98.364c5.698.15 2.55 6.32 0 0zm123.65.32c-.95.535-.35-.002 0 0zm-647.08.38c-4.145 8.143-10.805 14.523-13.702 23.42-1.434-1.455 3.285-13.558 7.887-16.742 1.586-3.253 5.083-2.89 5.815-6.677zm36.942.294c1.054.495-.195.187 0 0zm496.08 1.286c3.605 1.405 13.293 12.406 7.785 10.8-5.17.403-6.303-9.794-7.785-10.8zm56.278.787c6.65 2.506 17.047 2.983 19.25 10.62-3.537-7.35-20.43-.757-19.25-10.62zm-15.898.41c5.475 3.764 12.856 13.254 10.242 14.803 3.85 5.058 2.66 11.038-3.598 5.81-4.015-5.64-9.66-13.307-6.644-20.613zm86.914.616c11.228 3.755 3.572 8.434-1.865 11.664 4.766 2.158 13.928 9.58 6.665 14.48-3.107-3.44-2.577-14.317-5.096-5.028 1.502 3.397 7.655 12.82 1.054 5.79-5.298-4.045-11.756-6.296-10.433-14.054-6.742 7.273-3.244 18.303-2.723 27.168 5.9 11.66-7.32 18.67-4.69 30.53-.025 6.787-1.414 13.688.656 20.323-3.156 5.545-8.8-11.504-7.202-15.866-.444-11.197 3.68-22.56-.182-33.43 3.976-2.867-4.808-7.444-.862-11.213 2.53-9.524 5.546-20.247 14.32-25.534 6.248 2.104 7.175-2.017 10.36-4.832zm-128.87.56c3.295 5.386 1.63 7.457-1.156.672zm-552.04.18c2.02 6.764-8.087 6.027 0 0zm-3.89 1.195l.002.003-2.156.75 2.155-.753zm639.65.16c7.103-.26 14.285 8.725 9.076 12.855-5.855-1.32-5.78-8.882-9.076-12.855zm7.617 1.012c-3.135.682-3.144.68 0 0zm-670.15.9c3.05 1.808 3.09 1.83 0 0zm-1.366.67c5.354 1.967.918 7.892-.83 1.107l-.62-1.052 1.45-.055zm645.2 1.066c1.947 1.92 1.94 1.924 0 0zm33.57 1.666c-.863 5.658-.87 5.68 0 0zm-674.83.228c.605 5.685.57 5.34 0 0zm644.56.166c5.103 2.26 15.702 10.017 4.016 10.184-6.06-6.01-1.464 6.334 4.4 3.36 6.565.012 12.464-7.78 16.213 1.758.993-1.514 1.526-5.18 3.09-.725-1.057 4.27.318 9.026 1.9 2.726-.065 5.946-4.693 12.83 1.345 17.363 5.202 8.215 4.1 22.42-1.57 27.942-6.295-13.592-15.65-25.382-24.075-37.608-4.255-8.36-16.217-17.72-16.375-24.88 3.687.3 7.38.004 11.067-.12zm71.384.47c.786 8.05-3.256 6.228-7.63 1.863 2.407-1.18 5.03-1.398 7.63-1.863zm-39.747.08c-1.418 6.583 1.748 5.636 3 .198 5.65.096-.815 12.118-1.32 4.24-3.8 4.044-1.092-3.067-1.67-4.437zm41.392.717c7.276 1.403-2.303 14.267-.818 3.892 1.048-.557-1.03-4.103.818-3.892zm-9.86.592c.002.214-.64.353 0 0zm-128.5 4.47c4.77-.515 7.462.972 9.267 4.528 1.815-3.588 11.15 10.526 2.752 4.55-4.884-7.718-1.324 1.08-3.217 2.47-9.34-.234-19.25-5.434-8.802-11.55zm-23.533.488c-3.656 2.698-4.097 3.34 0 0zm4.405.677c13.2-.014-9.2 3.594-2.138.54zm72.755.122c.35 1.9.346 1.903 0 0zm-655.47 1.586c.494.978-4.733.04 0 0zm40.555.155c2.57 2.727 3.532 4.777 0 0zm-50.28.273l-1.59 1.703h-.005l1.594-1.703zm11.91.473c5.74.512-14.914 11.863-10.93 1.39 3.6-.817 7.267-1.044 10.93-1.39zm654.15.008c-.001 3.545.18 4.12 0 0zm-77.517.358l1.934.533v.003l-1.934-.536zm-528.65.54c.85 4.228 2.593 5.53-2.137 7.742l2.137-7.742zm688.9.664c4.004 2.008-4.24 8.275-.78 1.225l.778-1.225h.003zm-158.87.394c10.532-1.485.685 4.464-3.078.87l3.078-.87zm-4.453.048l.57.39-.002.003-.567-.392zm46.09.345c6.142 2.107 6.14 2.115 0 0zm-634.15.02c6.56 9.243-4.517 4.586 0 0zm57.3.547l-.397.353zm671.74 1.09c6.05 3.862 17.8 9.573 9.4 17.162-2.94 2.326-4.968 8.87-5.98 2.022-1.75 6.2-6.154-12.644-.94-9.03 2.796 8.903 3.185-6.516-2.816-3.192-.062-2.205-.876-4.988.334-6.963zm-97.092.053l-.378.877zm-610.47.097c9.155-2.012 4.158 11.094 12.944 13.305 6.985 4.96-7.413 11.422-5.477 2.348.396-6.483-10.407-12.12-8.707-14.92l1.24-.733zm648.6 1.222l.24.255h-.002l-.24-.255h0zm-671.8.037l.723.49zm674.9.584c1.704.543-.252.148 0 0zm-1.598.33l.808.17zm-641.1.79c1.01 3.982 6.922 3.073 6.27 8.847-3.637-1.044-7.208-5.16-6.27-8.847zm640.95 1.494c-.256.143-.094-.002 0 0zm-27.555.763c4.4 3.274 4.39 3.274 0 0zm-554.97.237c-2.19 3.54-2.194 3.536 0 0zm-68.553.505c6.695 4.572 7.948 15.58 6 23.372-.604 4.138.053 1.356-3.07 6.773-2.112-8.46 1.925-21.227-3.708-29.81l.78-.336zm653.06.105c9.53 4.633 13.162 16.695 19.47 25 3.034 3.717 5.516 11.648-.388 4.88-5.05-3.81-15.283-14.34-14.44-16.105 6.82 2.778-9.383-12.964-4.326-11.924zm-587.48.938c-1.85 3.233-3.34 2.302 0 0zm566.22 1.54c-1.258 1.368-1.34 1.433 0 0zm125.37.067c.003.784-2.173 1.474 0 0zm-684.86.61c-2.98 2.052-2.99 2.057 0 0zm-34.822 1.75c.11.108-.027.504 0 0zm581.5.14c.238 6.366 3.63 14.993-4.197 18.03-5.828 6.79-6.32-7.98.148-6.248 3.395-3.318 2.12-7.93 4.05-11.782zm-26.295.1c2.966-.353-2.218 8.025-4.23 7.176-7.752 4.325-3.668-9.073 2.872-4.98-1-.884.482-2.245 1.357-2.196zm162.07 1.575c1.47 4.217-15.612 8.228-17.805 2.645 5.924-1.015 12.02-.124 17.805-2.645zm-156.53.713c4.346 3.645-7.147 1.86 0 0zm-554.67.025l1.53 1.517-1.534-1.516.003-.002h0zm559.8.283l-.255.3zm-1.61.688c.388-.002-1.694.76 0 0zm12.667.053c2.924 3.997-6.164 12.244-2.547 3.322.888-.997 1.114-2.85 2.547-3.322zm118.14.158c5.755 1.192-10.272 10.17-3.58 2.302.48-1.624 2.457-1.45 3.58-2.302zm-10.47.68c-2.242 2.982-1.54 4.573 0 0zm-662.7.813c2.956 6.963-9.212 15.514-11.502 23.406-1.887 3.465-7.045 12.137-3.97 2.784 1.83-11.47 7.31-18.456 15.47-26.2zm516.28.92c8.586 2.968-14.776 10.986-12.186 5.556 4.595-.683 7.698-4.787 12.186-5.556zm146.94.297l-.253.17zm29.544 1.184c1.158 9.255-15.372 8.096-14.972 2.54 6.408-2.576 10.782 4.058 14.972-2.54zm-189.88.5c-2.712 4.907-11.63 1.424-2.7.005h1.357l1.353-.005zm156.75.622c3.86 3.647-4.58 9.206-5.028 12.336-3.632 1.913 4.018-10.6 5.028-12.336zm-122.42.19c-2.836 2.22-2.403 18.632-3.402 9.953.068-3.346-1.263-9.684 3.402-9.953zm-581.4.25c7.185 3.246 15.266 9.48 6.976 17.153-6.38 13.485-4.185-9.296-9.2-13.516-1.782-2.28.88-2.234 2.234-3.638zm6.027.692h.002l.678.972-.68-.972zm29.177.172c-1.22 2.548-1.22 2.548 0 0zm538.76.352c3.205 4.375-12.3 10.707-4.456 1.925.93-1.52 2.824-1.872 4.456-1.925zm-591.3.92c2.168 8.334-6.252-.3 0 0zm-21.488.706c5.124.228 10.716 5.118 2.378 2.524-4.32-1.937-9.318 4.55-2.88-.703l-.602-1.745 1.103-.075zm5.92.24c.62 1.078.637 1.12 0 0zm738.92.01c-4.232 5.31-4.204 5.292 0 0zm2.758.752c6.337 1.564 11.15 4.78 3.344 8.432-2.335 1.116-4.57-7.388-3.344-8.432zm-163.4.478c5.054.78 5.052.782 0 0zm13.316.298c-1.76 6.26-17.56 6.056-15.02 1.006 5.11 1.487 10.126 1.034 15.02-1.006zm155.8.22c.545 1.434-.118.02 0 0zm-744.38.45c3.166 1.13 3.168 1.135 0 0zm25.178.534c6.15 6.874-7.382 16.895.937 24.463.024 7.8-2.848 22.692-9.5 22.225-4.615-2.952-7.697-17.265-.183-15.255-5.035-7.918 4.228-21.126 8.172-24.052 3.83 5.066.192-6.385.575-7.38zm-14.177.417l1.48.367zm64.027.802c1.113-.004-4.76 2.46 0 0zm-86.806 1.52c7.4 4.703.047 7.214-5.29 3.672-1.21-5.095 1.36-3.032 5.29-3.672zm16.767.405c5.766 1.7 7.492 10.632 2.03 3.162.225-.795-5.14-3.613-2.03-3.162zm-12.3.41c4.125 2.846 3.29 8.316.103 1.495l-.103-1.495zm9.366.358l-.486 1.345c-1.452-.13 4.187.51.486-1.345zm672.28.037c7.467 4.794 13.31 12.638 20.106 18.66 3.927 2.358 10.137 20.315 3.798 10.6-2.388-7.402-10.29 2.224-11.684-5.706-5.676-6.43-3.53-16.13-11.71-21.555l-.714-1.51.206-.49h-.002zm-675.68.208c5.72.7-1.717 12.546-.61 2.417l.305-1.207zm674.35.577c-4.57.756-4.572.75 0 0zm15.83.042l.753 1.113zm45.327.053c1.495 4.86 3.233 16.872-.76 19.26-3.602-2.997-11.966-13.936-1.474-18.17.69-.48 1.18-1.43 2.235-1.092zm-44.572 1.06c2.672 3.413 2.656 3.414 0 0zm56.586.41c4.318 7.69-7.606.67 0 0zm-743.23.02c.654 4.313 8.085 12.583 6.2 14.49l-8.532-6.524 2.33-7.966zm661.63.208c6.597-.483 7.358 8.357 13.278 10.46-2.116 4.856 5.173 5.96 4.718 10.604-5.8-7.412-16.34-13.917-21-20.42l3.004-.642zm-606.67.88c1 3.902-4.758 17.2-3.128 6.66.807-2.336 1.64-4.656 3.128-6.66zm-13.364.316c6.593 5.766 2.764 19.002-2.255 26.616-2.685 1.72-3.222 12.854-2.892 5.506-2.65 4.215-7.118 19.483-.672 16.183-1.434-4.242 3.52-17.533 2.74-6.2.196 7.776-3.41 17.783-11.953 11.052-9.41-3.2-11.027-14.185-2.425-18.96 1.768-3.793 3.28-15.994 3.476-14.965-4.226 3.823.554 17.076 3.19 7.21 1.83-5.8 3.717-11.968 6.305-17.917.948-3.135 2.712-5.794 4.485-8.525zm612.54.348c2.15-.165-3.686.548 0 0zm15.29.014c6.542 4.325 1.545 8.678 0 0zm-13.912.747c3.168 3.62 13.46 11.434 11.248 13.278-4.785-3.58-11.258-10.082-11.248-13.278zm63.52 0c-1.294 3.717-4.024 16.408-3.19 5.332.55-1.91.958-4.62 3.19-5.332zm-670.58.22c3.848 2.556-.53 1.047 0 0zm690.95.422c5.335 3.906-7.987 16.176-2.904 4.498 1.04-1.458 1.134-3.593 2.904-4.498zm7.66.156c11.335 1.27-6.43 19.646-.925 7.078.45-2.34.628-4.717.925-7.078zm-56.028 1.216l.163.41zm-704.17.086c5.628.127 7.717 4.102.855 1.84-.415.26-2.195-1.698-.855-1.84zm748.95.31l-.688 1.53zm-710.88.005c6.353 4.722-1.8 15.795-2.587 4.187.118-1.68 1.04-3.423 2.587-4.187zm666.4.438l.206.89v.005l-.206-.895zm52.366 2.63c1.818 8.05-9.648 10.108-3.266 2.05l1.394-1.274zm-708.77.042c1.623 4.134-4.897 7.756-.61 1.17zm630.43 1.453l1.328 1.522zm55.978.34c6.707 2.8 4.936 19.145-2.35 11.154-.68-3.148.495-8.585 2.35-11.154zm-98.612 1.608c5.194.664-2.277-.078 0 0zm-3.052 1.055l-.416.09zm4.242.53c6.264-.524 8.384 7.77.58 4.472-1.627-1.618-5.244-3.646-.58-4.472zm-572.57.914c.573 1.464.588 1.487 0 0zm-19.205.797c-3.435 3.118-3.435 3.115 0 0zm20.66.54h.003l-.32 2.094.316-2.094zm643.1 2.355c2.8.73.124.645 0 0zm-664.8.08l.652.277-.002.002-.65-.278zm644.74.48c-.345 4.77 10.71 8.297 4.564 8.132-3.228-4.387-9.045-10.91-2.315-3.057 3.602 4.582-2.505-4.966-2.25-5.075zm-41.234 1.494c5.233 2.213 25.307.608 12.42 5.57-2.192 2.345-21.854-1.648-12.42-5.57zm-587.55.722c-1.642 4.972-2.25 8.948-.52 1.476zm690.36.222c1.108 9.975-6.482 1.695 0 0zm-685.25.37c-1.558 3.285-8.337 14.685-4.336 4.994.59-2.166 2-4.425 4.336-4.994zm653.36.777l-.098.722zm64.95.948c2.273 9.993-7.9 15.765-15.22 18.775.142 5.623-12.116 6.427-4.28 1.155 4.94-3.77 8.27-9.026 12.65-13.37.8-3.794 4.785-3.94 6.848-6.56zm-680.07.223c3.44 5.86-2.478 17.728-6.146 6.635-5.44-3.8 4.06-4.7 6.146-6.635zm663.54.023c10.504 1.74-3.852 11.396-4.013 10.08.66-3.583 2.078-7 4.013-10.08zm-35.875 2.078c10.425-2.328 12.955 9.973 12.57 17.656.245 7.158-10.224-9.615-7.562 2.36-.317 4.598 2.96 12.55 1.72 3.342-3.248-12.154 9.7 4.615.486 5.108 6.122 9.31-6.067 2.78-3.94-3.926-1.078-9.006.818-15.945-3.275-24.54zm7.214 28.466c-.054-.147-.1.078 0 0zm-57.394-28.16c5.095 3.93-.806-2.358-2.32 2.183l1.037-.976zm23.345.303c10.768 6.858-6.44 3.66 0 0zm11.122.714c4.428.383-3.08.032 0 0zm-660.8.302l-1.148 1.117-.006-.003 1.155-1.114h0zm662.7.102l.942.76zm-710.52 1.005c6.88.505 13.917 13.254 11.826 16.04-6.047-.614-8.286-14.6-13.59-4.478-2.51 7.78-13.403-11.734-1.688-10.606l1.7-.764 1.752-.192zm722.87.54c4.625 6.614 1.338 11.575-.336 2.697l-.14-.42h-.008l.48-2.278h.003zm-596.63.052c.068 9.564-6.385 5.863-12.47 6.557-3.077 2.745-10.857 14.756-5.77 4.554 3.11-6.798 7.088-10.2 13.873-9.278 1.48-.555 2.92-1.2 4.367-1.833zm-51.573 1.048c7.958 1.15-.783 13.976-.168 3.852.387-.976-2.4-4.478.168-3.852zm605.95 1.892c6.118 5.246-9.338 8.278-11.506 2.62 3.516-1.872 7.534-2.762 11.506-2.62zm-577.94.663c.73 1.54.725 1.54 0 0zm565.1.91c1.28.735 1.166.677 0 0zm-570.97 1.202c5.007 3.834.66 12.816-1.62 4.062-.22-1.54.44-3.1 1.62-4.062zm-41.097 1.137c-4.192 3.865-4.206 3.872 0 0zm613.77.337l.295.58v.003l-.295-.584zm-554.03 1.74c12.06-.34-12.632 9.177-1.876.38zm-70.416.048l-.272.616zm-40.05 1.192c-1.663 3.43-4.812 5.97 0 0zm50.647.24c1.608 1.402-.37.363 0 0zm710.84.566c-.323 1.68-.465-.002 0 0zm-43.233.166c3.843 3.425 2.465 20.88.36 8.338-.365-2.632-.87-5.933-.36-8.338zm92.516.5c-3.465 6.57-11.802 13.784-14.572 22.464-3.17 1.738-14.352 7.678-8.252-.858 5.93-8.684 13.522-16.616 22.824-21.607zm-112.84.473c1.116 7.066-12.233 7.744-4.308 2.305l4.308-2.305zm-624.94.064c-1.352 1.902-1.335 1.867 0 0zm-26.702.827c-2.76 4.313-2.754 4.302 0 0zm-36.906.116c6.053 1.89 2.844 7.124.22 1.4zm38.488.005c.41 1.56.05 1.615 0 0zm665.12.106l1.153.09v.003l-1.153-.092zm-716.13.714c6.874.39 7.375 7.212.37 2.9-.633-.4-2.966-3.05-.37-2.9zm741.48.536c-1.612 2.57-5.122 9.022-4.483 2.748.14-4.068 3.433.94 4.483-2.748zm-665.3.128c5.277 1.58-.617 11.737.15 2.082l-.212-1.587.063-.495zm23.156 1.12c1.054 4.957-9.963 20.18-4.958 9.057 1.8-2.79 1.762-7.558 4.958-9.057zm586.1.927c4.034 2.213 14.487 5.43 5.25 9.135-6.25 3.57-15.017-2.42-4.85-4.193 5.68-1.28 3.165-3.01-.402-4.942zm-575.5.133c1.632.09-1.686.024 0 0zm.456.04c2.14.993 2.14.998 0 0zm-1.434.066c-2.06 5.217-10.365 7.335-2.87 1.53l1.284-1.038zm-21.945.678c4.04 4.666-1.495 10.478 0 0zm45.012 1.266c1.155 5.854 1.97 16.853-4.89 9.097-6.816 1.152 6.104-5.02 4.89-9.097zm551.12.694l-.887.742v-.002l.89-.74h-.003zm-27.212 1.553c-1.456 3.337-14.826 10.437-16.058 4.625 5.44-1.226 10.858-2.58 16.058-4.625zm55.864 1.31c.906 5.18-10 3.228 0 0zm-610.48.803c-.246 2.635-.254 2.642 0 0zm614.78.552c-1.513 3.574-1.53 3.58 0 0zm58.59.167c7.607-.62 3.773 25.305.705 10.45-.7-3.424-1.216-6.96-.705-10.45zm-117.1.473c3.3 3.83-2.62 12.028 1.567 4.255-2.972-5.774-5.714 9.14-8.382 12.356-2.62 5.28 1.525 9.827-2.67 4.272-1.06-5.245-6.185-16.098 3.455-13.46.837-3.72 2.87-5.374 6.03-7.42zm60.978.02c4.41.433 5.108 12.767.833 4.507l-.51-2.207-.322-2.3zm15.897.188l1.994.522zm3.244 1.22c-.817 7.102-5.8 1.098 0 0zm-25.075.69c3.283 2.17-6.862 10.64-3.886 9.377-1.628-3.14-5.57 5.254-8.905 3.132-.503-8.608 6.225-10.073 12.79-12.51zm-23.012 1.384c1.1 2.635-10.304 10.703-10.345 10.406-1.184-9.99-3.274-10.313 10.345-10.406zm-563.54 2.527c7.626 2.17-11.593 7.04-1.2.44l1.2-.44zm587.4.384c-3.696 4.786-3.702 4.785 0 0zm19.97.74c5.89.225-6.582 1.514 0 0zm-110.73.044c6.406 1.614-4.9 5.125-2.456 8.344-5.537 1.913-16.155 7.824-16.6-1.5 5.76-3.592 12.946-3.896 19.046-6.835zm-492.84.456c.55.134 1.23 1.262 0 0zm-15.812 1.03c9.767 3.32-5.8 3.173 0 0zm-73.172.78c.234 1.686.34 2.56 0 0zc-3.778 6.097-3.31 6.052 0 0zm2.378.03c-1.404 1.18-1.41 1.17 0 0zm671.27.038c2.228 2.98 6.68 11.54 7.786 8.716-4.527-1.096-18.112 5.27-11.873-4.242 1.254-1.6 2.87-2.842 4.087-4.474zm-660.35.197c7.257 1.91 6.742 10.4 7.606 13.475 3.58.026-13.207-2.43-8.744-8.418.784-1.33-.666-4.508 1.138-5.057zm6.442.683c-1.388 2.523-1.39 2.515 0 0zm651.24.647l-.36.094zm-604.3.122c-3.45 3.87 1.185 5.73-3.093 3.15-13.5 5.257 1.435-3.574 3.093-3.15zm15.097.742c-.818 1.166-.81 1.162 0 0zm608.03.17c-1.06 1.436-1.016.05 0 0zm50.616.522c-1.747 4.287-1.745 4.29 0 0zm-61.872.323c1.3 3.784 5.28 5.286.667 1.667l-.67-1.667h.002zm-668.54.102c3.054 4.377-2.895 9.445-.957 2.838l.48-1.427zm706.63.328c7.023 5.914 7.764 16.793 3.826 24.674-7.846 11.115-1.483-14.494-2.328-20.554.96-1.676-1.133-2.723-1.498-4.12zm-661.97 1.547l-.622.76zm630.37 2.384c3.824 4.847 3.475 5.54 0 0zm-107.55 1.066c1.096 4.205-8.29 2.79-1.127.656zm-7.233 1.04l.444.673h-.002l-.442-.673zm1.784 1.645c.27-.002.323.897 0 0zm122.53.927c4.3 4.843 8.126 20.015 8.192 18.684-.697 4.98 7.803 16.28.453 16.308-5.423-9.562-5.883-20.734-8.562-31.2l-.083-3.792zm-12.156.06c6.664 1.476 3.876 7.48 6.978 12.058 3.055 3.834 7.21 18.545 1.28 7.916-7.524-4.757 4.277 8.993 5.55 12.077l3.597 34.906c-5.22-6.275-9.686-12.73-10.537-22.4-1.94-6.907-7.147-12.73-6.695-20.294 2.942-7.557-11.78-15.213-1.086-15.845 1.604 3.376 8.325 12.993 4.902 4.078-1.533-4.138-3.67-8.03-3.99-12.495zm-608.46.038c1.675 5.03-7.573 17.084-9.37 11.737 1.208-4.042-7.064-.188-1.768-5.687 2-4.244 6.97-5.273 11.138-6.05zm553.46.098l8.63 17.25c-4.815-1.825-7.974-5.185-10.446-9.78-2.81-3.04-4.418-7.057 1.815-7.47zm-600.1 1.208l-.267.192v-.002l.267-.19zm-2.72.003l1.82 1.356c1.35-3.39-1.1 4.426-1.82-1.356zm-27.028.472c2.39 3.293 2.4 3.297 0 0zm693.2.427c-2.52 1.39-2.53 1.387 0 0zm-629.05 2.137c.715.7 2.288.842 0 0zm608.37 3.17c5.46 2.392 13.034 15.3 8.945 17.88-3.068-5.562-6.86-10.696-9.5-16.418v-.005l.542-1.458h.003zm-26.61.553c8.774-1.743 12.592 13.585 6.794 14.822-3.374-4.226-5.837-8.944-7.8-13.97l.446-.64zm23.556.922c1.866 2.335.657 2.77 0 0zm-668.96 1.16c-8.202 3.473-6.494 15.43-9.634 22.9-1.604 5-2.178 10.37-4.756 15.007-.466-8.308 2.574-16.608 5.247-24.424 2.833-5.39 2.202-13.403 9.143-13.473zm745.6 1.26c13.097.604-19.676 5.33-3.343.348l1.657-.266 1.686-.082zm-718.3.298c3.667 1.93-1.203 10.66 0 0zm-23.342.113c7.823 2.754 5.703 19.216 2.68 19.69-.416-3.955 2.99-10.405-4.387-8.842-.228-3.707-1.888-8.1 1.706-10.847zm747.37.063c4.287 2.16 4.283 2.162 0 0zm-754.17 1.858c-1.014 6.173-1.052 7.103 0 0zm698.98.595l-.292.77v-.003l.292-.766zm-658.04.24c1.66.43-1.023-.034 0 0zm15.4.038c.505 4.368-7.732.31-.89 2.355l.89-2.355zm-15.978.742c-1.035 5.615-6.4 8.93-2.76 1.497l1.617-.91zm36.77 4.855c.59 1.325.58 1.336 0 0zm-74.88.283c-.594 4.485 5.882 16.227 2.155 17.44-5.75-4.262.198 1.098-6.02 1.555-2.38-3.937 2.172-13.922 3.866-18.995zm74.58 1.077c2.207 3.61-10.92 12.192-3.594 3.113.97-1.198 2.135-2.506 3.594-3.113zm597.92.34c4.316 2.45 13.284 11.878 8.564 15.458-2.6-5.003-8.186-10.312-8.564-15.458zm-651.52 1.43c-.105 4.027-6.334 22.19-6.585 10.047-1.234-4.835 3.244-7.682 6.585-10.047zm10.248.144c.597.46-1.283 2.792 0 0zm604.3 1.122c4.46 1.66 20.832.624 15.725 5.883-6.015 1.823-6.524.3-14.517.828-5.17.976-13.632 7.263-11.536-2.458 2.538-3.54 17.844 4.326 9.406-2.303-4.912-.76-2.383-2.033.922-1.95zm-11.79.73l-1.864.35zm-635.1.453c-2.142 4.055-2.15 4.05 0 0zm726.3 1.527c3.885-2.255-3.82 12.13-2.322 3.552 1.074-.883.9-3.134 2.322-3.552zm30.608.945c3.133.608 3.133.608 0 0zm9.18.336c1.16 5.962-7.742 10.13-6.89 2.978 1.422-2.284 4.643-2.03 6.89-2.978zm-93.23.32c-.33.526-.184-.001 0 0zm-42.778 2.736c5.828 3.567-3.614 15.744-9.297 12.95-4.614-.535 6.42-10.758 9.297-12.95zm47.845.434l1.65 1.28zm-.906 1.23c5.372 1.055 16.77 8.028 4.78 6.958-5 3.503-6.854-3.41-4.78-6.958zm56.792.77c3.25 4.472 16.24 6.813 20.405 4.456-1.12-4.947 1.862 7.184 7.54 4.587-7.137 6.302-21.495 7.04-27.18-1.92-3.768-2.968-9.45-5.78-.765-7.12zm-10.24 1.342c.482.924.482.924 0 0zm.912.903c3.007 1.3 3.007 1.303 0 0zm-709.24 1.114c1.06 2.932 1.347 3.535 0 0zm-12.34.764c.002.3-1.022.256 0 0zm724.6.388c-3.67.93-3.678.93 0 0zm-721.76.097l-.528 1.184zm774.73.19c5.536 3.165-8.016 9.393-11.98 4.78-2.994-.512 8.244-5.73 11.98-4.78zm-89.125.14c.832.318.832.318 0 0zm.897.517l.144.262zm4.212.336c-5.263 1.56-5.27 1.56 0 0zm-669.3.555l-1.62 1.71v-.005l1.62-1.706zm25.525.883c-2.81 3.997-11.75-.914-2.772.2l1.572-.05 1.2-.16zm-47.653.594c2.847 1.533-.022 8.756 5.484 10 1.72 6.772 3.018 16.048-3.534 20.728 1.545 5.683-10.582 13.104-12.822 13.58-.066-15.45 6.58-29.744 10.872-44.308zm683.76.422c10.292.545-5.105 5.844-7.245 8.88-4.82 4.1-18.286-4.362-6.5-3.3 3.558-3.24 8.922-5.24 13.744-5.582zm-648.13.784c2.463 1.07-1.875-.485 0 0zm-31.745.144c8.928 3.254-4.03 9.813 0 0zm25.51.205l.94.248-.002.002-.937-.25zm11.552.367l-.848.72-.002-.002.85-.717zm-50.558.067v.002l-.906.444.906-.445zm3.956.348c.572 3.594-.098 7.018.246 1.4zm697.94 1.733c5.673 1.47 5.673 1.474 0 0zm-650.47.133c.598 3.992-.962.477 0 0zm718.9.214c-.945.933-.913.957 0 0zm-827.8 1.016c.498 2.542.933 11.647-1.628 4.7-.675-1.7-.213-3.937 1.628-4.7zm776.96.68c3.585-.274-.452 3.752 2.07 8.003 1.356 3.77-.377 13.17-1.047 3.98-1.11-3.737-2.368-8.375-1.023-11.985zm45.922.266c5.268.023 14.022 3.665 4.172 3.98-.856-.6-6.52-2.44-4.172-3.98zm-747.3.455c-.678 2.92-.764 3.202 0 0zm646.88.69c.94 5.023-9.608 3.1-1.244.71l1.244-.71zm-622.66.422c6.848-1.064 8.13 4.587 0 0zm682.15.22c.712.682-.215-.002 0 0zm-694.5.528l.248.436h-.002l-.247-.436zm-6.986.452c3.227.627-.004.844 0 0zm764.2.706c8.44.61 5.987 10.858-1.394 4.874-6.452-3.16-6.707-5.514.312-4.844l1.082-.03zm-762.17.222c4.422 3.286-3.553 12.122-6.12 14.385-.5-4.504 1.352-9.6 6.12-14.385zm30.794 1.622c.888.44-4.034 1.925 0 0zm6.917 1.656c.298-.002-1.347.398 0 0zm-.136 1.566c3.937 3.04.838.65 0 0zm1.734.145l.383 1.02h-.002l-.38-1.02zm-126.64.57c11.232-.327-3.674 14.375.706 3.8.085-1.43 3.162-4.54-.706-3.8zm713.68.863c8.265 5.678 1.407 14.874-5.98 18.87-7.492 6.8-4.66-14.125-.7-15.04 2.826-.26 4.503-2.823 6.67-3.83zm44.295 1.23c1.805.89 1.805.893 0 0zm-697.03.134c.005.742-2.157 1.29 0 0zm82.633.122l1.527.695zm-99.636.28c2.932 4.42-2.432 7.98-6.453 6.825 2.865-1.58 3.95-5.16 6.453-6.825zm72.898 2.577c1.228.696 1.8 2.2 0 0zm20.03.056c7.7-.062 12.425 11.528 2.05 7.394-.924-2.046-4.906-5.42-2.05-7.394zm624.1 1.46c4.74-1.58 16.568 5.015 6.45 4.153-8.436-6.66-14.98 6.04-19.24 6.516-.172-4.924 7.888-10.818 12.79-10.668zm-643 .072l.137 1.413zm28.538.253c4.988.285 11.917 3.04 2.906 3.352-.943-1.14-1.935-2.237-2.906-3.352zm-31.247 2.866c-1.13 4.487 9.24 23.566-1.756 19.36-4.475-1.816-.828-11.53-1.544-11.027.247-2.94.395-6.743 3.3-8.334zm-119.17.416c3.23 2.866 3.224 2.867 0 0zm159.73 1.33c1.307.37 2.492.705 0 0zm-1.284 1.275c1.637.52-.27.266 0 0zm-173.96.942c-1.345 1.548-2.258 3.02 0 0zm166.92.63c7.624 2.003-7.093 8.983-4.203 1.797 1.16-1.153 2.887-.964 4.203-1.797zm-91.958.742c.962 3.427.962 3.425 0 0zm-.43.655l-.725 1.21zm-78.006.29c2.918.608 2.332.494 0 0zm6.597.786c8.34-1.124 6.085 15.976.03 6.478-3.97-3.026-3.19-4.467-.03-6.478zm97.064.49c-3.292 4.88 7.37 22.4-3.286 17.56-1.925-6.315-4.66-14.05 3.286-17.56zm27.69.133l.552 1.337-.553-1.336.002-.002zm-112.34 1.053l1.717 1.573-1.72-1.572h.002 0zm154.42.097c.565-.002-1.75 1.912 0 0zm-92.136.34c-.176 4.123-1.35 8.697.808 8.5 1.006 4.99-4.34 17.852-2.594 9.524-.157-6.074 2.068-11.884 1.786-18.023zm17.206.08l-.255.228v-.002l.255-.227zm-118.47 1.24c5.385 2.618.308 10.203 9.07 10.222 4.724 1.788 15.276 11.57 4.47 6.086-6.892.77-8.387-12.92-9.1-4.447-3.25-2.794-5.318-7.28-4.44-11.86zm823.26.32l1.448.303h0l-1.448-.305zm-785.6.05c.742 3.562.737 3.543 0 0zm18.153 2.07c4.857 1.392 1.483 7.822-.888 1.353l-.93-1.162zm61.673.355l.417.17zm-37.472 2.977c-1.183 4.976-13.308 4.402-4.27.693l2.135-.335zm-41.288.406c.432 5.923.428 5.928 0 0zm749.88.64c5.785 6.048 3.65 14.44-2.56 19.116-3.502-7.236-4.96-13.647 2.56-19.116zm-662.94 3.837c.85 1.746.85 1.746 0 0zm-69.73 2.62c4.17 3.04 2.888 10.94.005 1.878l-.723-1.675.717-.203zm39.67.438c-.92 17.884-2.476 35.876-.836 53.767.36 5.654.305 14.12-1.825 3.366-3.405-10.798-4.6-22.294-4.05-33.496 1.552-7.767 2.415-17.326 6.7-23.637zm-61.375 2.497c4.782 4.464 3.262 9.837 8.088 16.297-6.785-.357-8.4-10.845-8.088-16.297zm-12.62 3.542c.005 1.22-4.115 1.385 0 0zm-1.544.978c-3.63 1.64-3.627 1.627 0 0zm811.33 1.827c-.17 4.818-.178 4.86 0 0zm-2.628.74l.16.45zm.16.452c.683 1.135.663 1.334 0 0zm-731.32.18c-1.023 5.276-1.952 9.545-.3 1.772zm727.95 2.82c1.69 4.782-2.172 12.323-1.42 3.9-.127-1.355.074-3.143 1.42-3.9zm-744.78 1.78c-.976 2.804-.982 2.806 0 0zm-3.63 1.39c2.71-.365-3.165.77 0 0zm2.06 3.127c5.352 2.55.26 12.392.648 10.288-2.25 5.306-7.098 10.155-4.71 1.11.203-4.01.532-8.875 4.063-11.4zm-43.114 1.973c-.607 4.657-20.23 5.542-8.83 2.063 2.94-.7 5.85-1.533 8.83-2.063zm49.386 2.652c.926 11.578 1.1 22.376 4.724 32.864 2.828 9.564 5.882 19.228 6.446 29.198 5.43 7.43-2.648 6.752-3.8-.295-7.824-6.066-12.36-16.8-13.35-26.442-1.19-4.172.814-12.095 2.672-17.525.713-2.365-4.547 1.67-1.492-3.416 1.398-4.86 2.55-9.823 4.8-14.384zm-31.703 2.348l-.656.57zm772.77.21c1.798 2.646.35 17.944-.77 7 .495-2.077-.526-5.347.77-7zm-806.66.028c1.472 4.225 17.708-2.058 7.766 3.894-4.733 3.206-15.663 3.1-7.766-3.894zm811.16 1.167c1.518 7.992-.172 15.58.25 23.78-1.013 13.045-2.652-12.653-1.297-17.313.083-2.193-.16-4.503 1.048-6.466zm-817.67 4.033c-.862 1.458-.862 1.458 0 0zm821.3.67c1.035 10.127 2.864 19.813 2.82 30.386.2 5.444-4.406 14.934-4.5 4.106-.384-11.51 1.207-23 1.68-34.492zm-771.96 3.122c1.657 2.804 1.654 2.806 0 0zm13.8 1.925c2.16 4.054-.4 13.783-.856 4.313-.785-1.442-.317-3.24.856-4.312zm11.444 2.328c.006.198-.768-.1 0 0zm-13.136 4.47l-.84.342h-.005l.844-.342zM90 465.714c5.063.82 13.668 5.186 3.815 3.42-1.276-.35-7.473-1.392-3.815-3.42zm-6.883.523c4.497 1.97 1.224 9.88-1.308 2.375-.284-.687.126-2.633 1.308-2.375zm16.68 4.034c6.335-1.567-6.23 3.528 0 0zm40.262.606c1.353 3.428 1.34 3.43 0 0zm-48.61 1.48c1.938 3.973-9.41 2.14-1.18.13zm117.1 1.033l.798.466zm1.308.927l.184.102zm-5.014 1.772c4.27 3.925 1.223 20.014-2.87 7.176-.48-3.262-1.92-6.507 2.87-7.176zm674.92 5.666c3.718 1.057-.004 1.018 0 0zm-677.95 3.938c2.857 5.14-1.875 9.448-1.664 14.175-3.98-4.513-1.2-10.425 1.664-14.175zm674.06 1.534c-1.22 3.18-1.554 4.535 0 0zm-678.68.022c2.202 4.146-6.518 5.083 0 0zm683.08 1.428c1.043 4.284-.492 11.25-1.187 3.195-2.767-4.205 1.5 3.197 1.188-3.195zm-671.02.05c1.94 4.063-3.867 19.1-6.302 13.256 1.386-4.793 3.325-9.218 6.302-13.256zm-4.117 1.442c-2.446 4.475-3.246 5.964 0 0zm-58.42 2.667c1.52 3.526 1.936 3.946 0 0zm63.555.2l-.294 2.24zm-.68 3.9l.294 1.59zm672.63.144c-.904 1.437-1.952 2.905-.353.59zm-671.4 2.533c-.03.127-.195-.043 0 0zm-76.728.205c-2.412 2.322-2.423 2.297 0 0zm39.06 1.81c9.663 4.683-6.22 19.522-4.363 6.722.81-2.447 1.388-5.994 4.363-6.722zm-68.388 2.86c3.274 3.464-.133 17.768-1.187 7.09 2.007-2.065-.29-5.366 1.188-7.09zm27.87.16c3.242 1.977 14.492 10.828 5.114 8.783-2.614 1.212 3.702-.884-1.352-3.092-1.385-1.808-2.466-3.822-3.763-5.69zm70.714 4.762c.935-.004 1.827 2.52 0 0zm671.4.96c1.383 4.313 2.428 3.666 0 0zm-783.7.87c7.186-2.85 10.976 6.607 5.84 8.545-3.754-1.074-5.704-4.86-5.84-8.545zm86.817.398c4.178 2 10.392 11.31 7.414 18.62-.986 6.08-6.955-9.452-10.76-10.495-6.232-1.843.43-7.1 3.346-8.125zm703.88.323c5.298 9.34 2.157 20.084-1.02 29.544-3.07 7.945-11.077 25.855-14.422 26.448 5.697-16.978 8.458-34.705 13.702-51.802l.807-2.115.935-2.075h-.002zm-778.98 3.195c.757 6.668 8.21 11.956 9.52 18.882 1.896 6.125-6.654-6.173-7.74-9.023-3.175-3.02-4.642-7.92-1.78-9.86zm15.3 2.39c5.903 2.658 1.455 15.376-.05 5.007-.18-1.552-2.643-4.346.05-5.007zm-11.616.84l.48.775v.003l-.48-.778zm63.417 1.797c-.077 1.65-.082 1.653 0 0zm3.333 2.587c8.116 3.3 2.562 7.727 0 0zm-77.42 1.448c5.7 2.05 6.475 8.768 1.193 1.375zm97.206 6.317c.243.116-.056.118 0 0zm-7.41 2.025c.42-.002.5 1.405 0 0zm3.29 1.603c2.625 1.38 2.628 1.39 0 0zm-21.033 1.956c.002.375-1.33.31 0 0zm68.142.337c-.44 6.547 5.16 15.525 3.072 18.95 3.788 2.062-3.88-2.7-4.07 2.472-8.88 6.72-1.666-10.77-1.165-15.758.83-1.264.443-5.497 2.163-5.666zm648.63.33c1.175 2.385.015 7.054-.17 10.293-1.22 10.59-6.62 19.954-13.23 28.137-3.202 3.087-.423 5.515-2.713 3.582-3.597 3.985-13.785 18.25-8.012 5.88 8.292-15.85 18.503-30.766 24.125-47.89zm-662.5.077c2.086 3.74-10.084 16.75-13.556 11.606-3.75 4.708 8.48-10.3 13.556-11.606zm-8.842 1.455c-.795 3.05-7.68 10.86-11.992 10.653 2.04-5.184 7.924-7.28 11.992-10.653zm-96.555.148c5.945 2.505-1.99 14.068-.062 3.516l.063-3.516zm71.037.148c.395 3.955.383 3.94 0 0zm-65.998 2.987c.35 2.675 6.454 11.402.864 14.293-4.463-3.045.268-10.44-.864-14.293zm63.303 1.03c.5 2.442.49 2.456 0 0zm685.37.684c-1.25 5.95-1.232 5.923 0 0zM92.5 545.17c6.67.02 1.855 2.792-2.344 2.592-3.388.552.97-3.697 2.344-2.592zm125.97.636l.003.002 1.284 1.573-1.288-1.575zm-91.805 2.33c-.138 7.027-.135 9.286 0 0zm61.045 3.095l-.334.34zm-50.178 3.536c3.73 4.425 8.055 3.616 11.114 10.218 4.388 6.19-5.286-1.616-6.5-5.156-2.812.068-5.362-1.013-4.613-5.062zm40.06.038c-4.31 3.495 5.99 3.288 0 0zm-39.13 6.15c6.548 1.89 5.13 8.733.455 1.494l-.908-1.034zm-14.706.875c4.586 3.423-12.772 9.447-6.795 3.523 1.975-1.61 4.498-2.37 6.795-3.523zm110.15.053c.344 2.14.3 2.144 0 0zm-51.375 1.153c-5.712 5.788 4.538 4.934 0 0zm-44.747 3.23c4.276.484-6.1.522 0 0zm-14.595 1.1c-.22 2.133-.23 2.14 0 0zm-9.636 1.673c6.994 2.445-8.082 5.824 0 0zm65.298 1.46c3.953.724 11.923 19.37 3.63 11.534-2.576-2.762-4.85-7.872-3.63-11.534zm-32.738 2.536c9.297-.267 3.44 3.732-2.525 3.837-4.88 3.504-9.79.63-3.46-3.435 2.003.001 3.984-.347 5.984-.402zm-11.906 1.248c-1.9 5.844 7.404 8.176-2.38 9.522-10.14 6.037-1.034-5.9 2.38-9.522zm82.147.43c-3.41 6.774-11.15 13.016-14.26 20.964-3.076-9.277 1.567-22.086 13.04-20.313zm-61.645 1.034c5.402 5.34-15.17 3.507-2.68.685l2.238-.633.444-.052zm707.06 1.48c2.907.706-1.202-.025 0 0zm-629.92 1.71c10.207-.044 11.857 14.25.184 13.394-8.3 4.7-6.468-10.502-5.01-12.484l4.825-.9zm-28.697 1.36c-3.27 3.826-3.282 3.83 0 0zm13.748 2.472c1.657 2.67-6.306 8.672-1.796 1.626l1.248-1.5.548-.125zm-34.848 1.53c5.076 5.033 5.218 12.746 11.84 16.813 4.096 5.55.482 17.002-2.44 20.11-8.14-6.403-8.43-17.374-9.47-26.82-.657-2-.546-12.907-2.08-6.59.68-1.2.332-3.173 2.15-3.513zm29.86 2.403c-.243 8.615-6.954 10.648-4.755 19.12-1.952-.996-1.14-5.907-2.935-.41-5.147 6.884-2.587 13.893-6.534 20.548-1.325 6.088 2.922 21.44-1.036 9.333-3.102-8.504-.95-17.643 1.46-26.043 7.058 2.454-.897-12.94 7.99-12.14-1.11-2.447 3.168-9.654 5.813-10.41zm-22.31.678c5.338 2.734 3.503 11.266-.05 3.028-.806-.525-1.413-2.944.05-3.028zm.966 6.903c-.182 1.7-.185 1.708 0 0zm667.26.986c-.1 6.055-6.6 13.746-8.948 20.64-2.836 5.513-9.986 18.57-11.915 18.132 4.54-9.207 9.57-17.526 13.798-27.17 1.563-4.328 4.916-7.977 7.064-11.602zm-6.744.698c-1.607 7.568-5.74 15.103-9.862 22.838-3.238 5.3-5.203 12.903-10.12 16.302 6.835-12.93 13.213-25.96 19.547-39.12l.436-.022zm-706.67 11.084c3.012 3.365 1.686 13.255-1.272 6.052.188-2.047-.316-4.384 1.272-6.052zm-3.14.598c2.06 5.55-.8 10.172-1.456 2.66-.126-.994.243-2.5 1.456-2.66zm66.983 1.022c1.046 3.48 1.033 3.495 0 0zm646.2.017l-.645 1.816.642-1.816h.003zm-13.156.21c-4.604 10.365-10.6 20.267-15.38 30.617-.644 2.626-5.245 12.354-10.166 17.27-7.445 11.254-1.685-7.533 1.286-11.797 4.287-9.708 9.825-18.855 16.362-27.175 1.585-3.78 4.936-6.018 7.9-8.914zm-634.18 1.195c4.696 8.73-1.656 6.87 0 0zm644.7 4.448c-1.728 2.85-1.748 2.85 0 0zm-709.55 2.395c1.01 2.684 8.85-.05 5.464 4.216-1.927-1.275-3.763-2.65-5.464-4.216zm9.873 2.68l1.72.667v.005l-1.72-.672zm34.772 1.792c.003 2.244.003 2.244 0 0zm-54.178.266l-.66 1.13zm56.434.337c4.102 3.66 3.268-2.558 2.777 3.818 1.774 6.05-3.877-2.81-2.777-3.818zm-2.06 1.48c3.026 3.517 3.014 3.513 0 0zm-40.294 2.188c5.64 1 5.783 10.878 1.144 2.848-.256-1.67-2.8-3.173-1.144-2.848zm-3.714 1.184c5.65 1.97 2.472 7.56-1.016 1.784l.328-1.328zm3.586 6.44c2.343 1.03-1.956.762 0 0zm111.98.945c3.63 1.424 7.445 16.852.445 8.11-1.663-3.275-4.01-5.222-.445-8.11zm-77.45.742c1.645 4.128.86 14.594-1.844 5.033-.99-2.085-1.047-4.714 1.844-5.033zm-18.395 1.43c.94 2.85 2.12 16.305-2.717 6.538-.62-2.34.332-5.55 2.717-6.538zm672.33.89l-1.77.914v-.005l1.77-.91zm-596.6 6.172c8.08-.555 6.835 13.716 6.074 10.4-1.5 10.69-8.818-7.396-6.074-10.4zm27.26 2.378c.87 3.456 1.38 8.115 0 0zm17.033.622c10.842 5.48-14.31 9.856-5.297 2.034 1.1-1.97 3.49-1.573 5.297-2.034zm-23.464 2.263c3.374 2.884 4.646 11.672-.156 5.078.38-1.588-1.724-3.88.156-5.078zm-47.325.245c5.33.637 7.24 8.106 1.077 2.873-1.12-.567-1.308-1.827-1.077-2.873zm-2.97.066c3.037 4.618 7.74 7.303 7.36 11.782 4.943-4.487 12.09-1.8 15.976 3.285 6.748 4.43-5.425.903-6.46.684-8.192 5.988-16.96-3.63-17.206-12.337.012 6.992-.956-3.798.33-3.414zm18.955 1.72c.755 1.543.757 1.552 0 0zm-62.353.42c6.025 3.034-1.547 4.33 0 0zm65.13.788c8.84-3.352 4.094 14.767 1.402 3.362-.306-1.17-1.317-2.126-1.402-3.362zm-4.953.138c6.62-1.002 3.624 7.976 0 0zm-3.71.577c9.615 5.973-9.457 2.863-2.07.3.956.555 3.834 2.33 2.07-.3zm55.08.886c1.968.225 1.955.245 0 0zm-29.734.806c2.423 4.62-1.51 11.395-1.533 4.066.468-1.4.255-3.093 1.533-4.066zm-60.188.203c6.814 1.846 4.557 9.125-1.29 3.776-2.587-1.036-1.282-4.553 1.29-3.776zm49.68.202c3.16.86-2.438-.27 0 0zm36.733.502c5.513 1.42-12.138 12.698-5.094 4.494 1.763-1.328 2.82-3.977 5.094-4.494zm-79.966 1.28c6.28-.574 5.612 6.76.823 1.694l-.823-1.694zm-10.303 4.872c4.193.604 17.398.968 6.052 3.355-2.375.964-9.474-.73-6.052-3.355zm17.058 1.02c4.323 3.017-1.038.513 0 0zm39.03 1.972c4.18 3.702 3.635 10.3-.745 3.552l.32-1.52zm571.54.67c1.902 4.053-5.46 9.96-1.37 1.852l1.37-1.852zm-626.88.003c-1.086 4.7 9.056-2.55 2.934 4.27-2.494 1.81-2.823-2.835-2.934-4.27zm61.14.822c.503 8.11 16.6 9.672 10.39 18.94-4.18-5.576-9.864-12.102-10.788-18.745zm21.333.538c-.8 3.708-.793 3.705 0 0zm-95.164.37c1.823 3.346-8.6 3.904-1.294.204zm27.947.642c7.07-1.436 17.135 7.9 17.762 8.275-6.708-4.4-19.577-4.384-24.195-6.73 1.722-1.713 4.222-1.505 6.433-1.544zm25.875 1.036c4.023 2.665 6.6 23.4-.18 10.874-2.827-5.994-11.57-9.338.18-10.874zm35.572.333c.854.275 1.255 1.055 0 0zm-32.172.344c10.27.02 16.073 9.728 23.458 15.33 5.148 3.622 3.26 10.66-1.828 4.006-3.708-3.632-16.076-10.18-7.535-1.35 10.824 2.857 16.634 11.165 12.627 22.625-7.648-6.42-16.903-15.95-22.588-25.19-1.3-5.193-3.454-10.07-4.134-15.42zm-38.023 1.375c.54 2.672.536 2.665 0 0zm-19.89.99l1.94 1.02v.003l-1.94-1.022zm7.77.178c-2.167 7.283-17.366 6.232-16.613 8.913-2.507-3.092-8.27 11.667-8.9.89 5.48-9.62 9.1-5.316 18.672-7.962 1.957-1.44 4.578-1.208 6.83-1.842zm82.488 4.872c4.018 1.864-.114 9.84.247 11.488-.73 5.93-3.397 6.89-3.1.09.697-3.4-.022-9.653 2.852-11.576zm541.75 1.445c.297 4.294-12.5 18.427-5.02 6.266l5.02-6.266zm-651.36 7.38c6.494 2.646-3.405 7.37 0 0zm112.06 2.703c.116 3.773-1.08 6.033 0 0zm-30.047.264l1.143 1.256-1.143-1.253v-.003zm568 .548l.11.04zm-8.022 2.608c-2.734 4-2.75 4.012 0 0zm-.072 4.767c-2.043 9.24-11.517 17.035-19.477 22.937-3.595 3.666-12.592 8.2-4.482 1.055 8.326-7.664 15.765-16.212 23.96-23.992zm-600.82 4.57c4.93-.424 12.207 4.696 2.968 2.667-1.228-.006-4.114-.9-2.968-2.667zm-5.344 2.65c6.94 2.24 12.656 12.116 19.672 15.084-7.636-1.983-20.784-5.02-19.672-15.084zm9.79 2.886c3.878 1.473 21.935 3.542 10.66 6.04-1.236 4.85-13.002-5.526-10.66-6.04zm581 1.286c-.443 5.836-18.718 16.68-6.23 5.592l6.23-5.592zm-545.18 5.594c8.974 3.715-2.39 12.007-8.398 10.587-2.22 5.154-6.493 14.78-4.13 3.394 1.562-6.018 8.125-9.884 12.527-13.98zm-25.77 8.484l1.052.97zm-1.363 1.234c4.046 6.265-19.553 10.264-8.915 6.575 2.873-2.368 5.143-5.593 8.915-6.575zm6.594.55c-.928 5.106-6.242 4.673 0 0zm-6.762 7.61c-1.457 10.773-16.538 17.356-14.2 2.206 5.625 2.128 9.495 1.174 14.2-2.206zm12.78 5.133c-1.35 5.812-4.432 13.888-3.625 4.413 2.294-.694 1.303-4.31 3.625-4.413zm68.57 2.38c15.282 5.478 28.864 15.067 40.048 26.695 9.89 6.207-7.185-2.678-11.502-4.155-11.773-3.72-19.96-13.2-29.16-20.883-.293-.6-1.304-1.234.614-1.656zm438.96 10.016c-16.773 13.2-34.49 25.527-53.373 35.4-2.838-.89 7.964-9.514 11.01-12.515 4.804-3.375.43-4.245 4.907-4.528 11.538-6.972 23.737-13.02 36.18-18.163zm-20.647 5.8c-.865 3.184-22.306 12.468-11.14 4.785 3.406-2.213 7.193-3.83 11.14-4.785zm-384.05 11.594c4.886 3.255 20.2 7.32 17.628 10.966-5.743-3.25-13.972-7.363-17.628-10.966zm360.94 4.184c-1.357.43-1.373.434 0 0zm-331.3 8.77c6.01.713 11.28 8.313 3.467 2.626-.698-.845-3.865-1.518-3.467-2.626zm-6.74.058c.225-.002.375.672 0 0zm.845 4.517c5.542-1.234 17.7 13.666 7.374 5.878-2.062-1.96-6.5-3.574-7.374-5.878zm9.423 3.105c2.197 3.163 2.187 3.167 0 0zm3.408 1.97c5.18 4.378 12.463 7.568 16.48 12.708-6.154-2.8-12.917-7.037-16.48-12.708zm.047 2.73l.372.27zm18.422.67c6.697 2.22 20.28 7.516 21.352 10.19-6.793-4.057-14.75-5.955-21.352-10.19zM368.1 794c13.26 4.274 26.314 9.632 39.316 14.702 17.715 5.683 35.93 9.555 54.47 11.18 4.176 2.927 9.912 2.497 13.667.97-6.416 2.11-13.142 2-19.802 1.747 8.65 3.93-8.95 6.427-13.406 4.926-13.706-1.227-27.696-4.675-38.984-12.68 8.028.448 17.253 4.745 25.87 6.02 8.423.027 17.02 2.708 25.012 2.346-4.254-3.716-16.766-2.384-24.3-4.375-15.318-3.47-30.453-8.023-45.08-13.69-5.478-3.873-11.587-6.852-16.774-11.15zm269.4 6.163c1.87.43 1.848.428 0 0zm-1.43.15h.002l-.686 1.38.684-1.38zm6.152.427c2.302 4.676-5.95 8.168-11.27 9.18-12.92 3.2-26.224 5.623-39.523 5.935 2.4-4.353 17.31-5.04 24.716-7.73 6.38-.446 17.846-7.354 18.023-5.394l8.053-1.99zm-263.44 3.944c6.838 2.925 13.866 5.997 19.81 10.59-5.216-.724-10.72-4.288-15.627-7.048-.784-1.004-6.296-2.534-4.184-3.543zm225.9 4.06c-4.022 3.222-4.09 3.27 0 0zm-76.7 5.567c8.785.118 17.62.748 26.19 2.758-3.707 3.87-16.396.943-25.352 2.374-9.737 1.032-19.56-.517-29.223.1-6.824.598 6.58.252.208-1.507 9.28-1.784 18.73-3.382 28.177-3.725zm63.284 2.414l1.108 1.58h-.003l-1.105-1.58zm-33.323 1.09c.87-.003-3.36 2.377 0 0zm-76.036 1.64c-3.206 1.435-3.207 1.43 0 0zm30.136 1.573l-1.29.803zm27.497.505c7.606 1.172-8.12 3.416-11.482 2.838-5.38-.4-18.94 1.927-19.193-.73 10.106-1.637 20.46-1.13 30.675-2.1zm7.81 1.91c9.185.412-7.423.187 0 0z"/><g fill="#211e1e"><use y="548.382" xlink:href="#A" x="315.683"/><use y="548.382" xlink:href="#C" x="395.386"/><use y="548.382" xlink:href="#D" x="430.933"/><use y="548.382" xlink:href="#E" x="479.532"/><use y="548.382" xlink:href="#F" x="523.688"/><use y="548.382" xlink:href="#G" x="550.07"/><use xlink:href="#H" y="548.382" x="597.559" fill="#000"/><use y="548.382" xlink:href="#B" x="643.936"/></g></g></svg>